<svg version="1.1" xmlns="http://www.w3.org/2000/svg" width="48" height="48">
  <defs>
    <linearGradient x1="12.96723" y1="16.22716" x2="59.62328" y2="56.16287" gradientUnits="userSpaceOnUse" id="color-1">
      <stop offset="0" stop-color="#000000" stop-opacity="0"></stop>
      <stop offset="1" stop-color="#000000" stop-opacity="0"></stop>
    </linearGradient>
    <filter id="dropshadow-base">
      <feColorMatrix type="matrix" values="0 0 0 0 0  0 0 0 0 0  0 0 0 0 0  0 0 0 .8 0"></feColorMatrix>
      <feOffset dx="0" dy="1"></feOffset>
      <feGaussianBlur stdDeviation="1"></feGaussianBlur>
      <feComposite in="SourceGraphic"></feComposite>
    </filter>
    <filter id="dropshadow-banner" x="-10%" y="-10%" width="120%" height="130%">
      <feColorMatrix type="matrix" values="0 0 0 0 0  0 0 0 0 0  0 0 0 0 0  0 0 0 .4 0"></feColorMatrix>
      <feOffset dx="0" dy="1"></feOffset>
      <feGaussianBlur stdDeviation="0.5"></feGaussianBlur>
      <feComposite in="SourceGraphic"></feComposite>
    </filter>
  </defs>
  <g fill="none" fill-rule="none" stroke="none" stroke-width="none" stroke-linecap="butt" stroke-linejoin="miter"
     stroke-miterlimit="10" stroke-dasharray="" stroke-dashoffset="0" font-family="none" font-weight="none"
     font-size="none" text-anchor="none" style="mix-blend-mode: normal">
    <path
      d="M7,43c-1.10457,0 -2,-0.89543 -2,-2v-34c0,-1.10457 0.89543,-2 2,-2h34c1.10457,0 2,0.89543 2,2v34c0,1.10457 -0.89543,2 -2,2z"
      id="base 1 5" fill="#455a64" fill-rule="nonzero" stroke-width="1"></path>
    <path
      d="M13.5797,31.06591c-0.00314,-0.00314 -0.0059,-0.00649 -0.00822,-0.00998l-0.22205,-0.22205c-0.01401,-0.01401 -0.02099,-0.03538 -0.02099,-0.06427c0,-0.021 -0.00625,-0.04276 -0.01672,-0.06136l-0.05236,-0.05236c-0.01518,-0.01518 -0.02727,-0.0359 -0.03255,-0.05578l-0.10339,-0.10339c-0.01476,-0.01476 -0.02119,-0.04058 -0.02497,-0.08632c-0.00134,-0.01588 -0.00325,-0.02972 -0.00587,-0.04174l-0.08206,-0.08206c-0.0164,-0.0164 -0.02176,-0.04602 -0.02176,-0.10198c0,-0.05597 -0.00513,-0.08532 -0.02154,-0.10173l1.45479,1.45479c0.09609,0.00018 0.13579,0.00336 0.15131,0.01888l0.09691,0.09691c0.09667,0.01372 0.2989,0.01484 0.7206,0.01484h0.72562l0.07049,-0.06532c0.05321,-0.0493 0.09891,-0.06532 0.18666,-0.06532c0.09883,0 0.11625,-0.00782 0.11625,-0.05226c0,-0.0437 0.01742,-0.05226 0.10695,-0.05226c0.00833,0 0.01608,-0.0001 0.0233,-0.00033l-1.81517,-1.81517c-0.009,-0.009 -0.01336,-0.02287 -0.01336,-0.04191c0,-0.00154 -0.00005,-0.00307 -0.00014,-0.00458l-0.08018,-0.08018c-0.01605,-0.01605 -0.02569,-0.04212 -0.02921,-0.0788c-0.00198,-0.02029 -0.00625,-0.03805 -0.01278,-0.05319l-0.05901,-0.05901c-0.09668,-0.09668 -0.09444,-1.25385 0.00705,-1.26834c0.04651,-0.00657 0.05817,-0.02812 0.06473,-0.11913c0.00649,-0.08975 0.01779,-0.11101 0.05883,-0.11101c0.03225,0 0.05071,-0.01794 0.05071,-0.04924c0,-0.02724 0.02332,-0.05528 0.05226,-0.06288c0.0313,-0.00812 0.05226,-0.03558 0.05226,-0.06834c0,-0.08008 0.50354,-0.08468 0.57511,-0.0131l0.08312,0.08312c0.01358,0.00466 0.02563,0.01214 0.03416,0.02067l0.19445,0.19445c0.01821,0.0006 0.03029,0.00307 0.03829,0.01107c0,0 0,0 0,0l0.42563,0.42563c0.01258,-0.01244 0.02196,-0.02795 0.02686,-0.04671c0.0124,-0.04738 0.04023,-0.05048 0.4543,-0.05048c0.42374,0 0.44116,-0.00207 0.44116,-0.05226c0,-0.04451 0.01742,-0.05226 0.11758,-0.05226h0.1175v-0.45423c0,-0.13627 0.00026,-0.23183 0.00217,-0.2992l-1.46527,-1.46527c0,-0.04192 0.00717,-0.09484 0.01587,-0.11758l-0.00002,-0.00002c0.02699,-0.0702 1.13375,-0.0617 1.20156,0.0061l0.05132,0.05132c0.0186,0.00426 0.04419,0.00576 0.0799,0.00576c0.06101,0 0.08979,0.0019 0.10318,0.01529c0,0 0,0 0,0l1.34343,1.34343c0.02001,-0.00006 0.04152,-0.00008 0.06466,-0.00008c0.29959,0 0.32247,-0.00354 0.33525,-0.05226l0.00002,0.00002c0.02111,-0.08051 0.35235,-0.07874 0.42399,-0.0071l0.29663,0.29663c0.01365,-0.00157 0.03085,-0.00209 0.05252,-0.00209c0.07949,0 0.10444,-0.01129 0.11514,-0.05226c0.01322,-0.05041 0.03565,-0.05226 0.63012,-0.05226c0.47326,0 0.5835,0.00092 0.60893,0.02635c0,0 0,0 0,0l0.07744,0.07744c0.01071,0.00052 0.02299,0.00073 0.03704,0.00073c0.05828,0 0.08856,0.00526 0.10512,0.02181c0,0 0,0 0,0l0.08197,0.08197c0.01201,0.0026 0.02585,0.0045 0.04172,0.00582c0.04579,0.00382 0.0716,0.01027 0.08636,0.02503l0.10087,0.10087c0.01858,0.0012 0.03149,0.0055 0.03977,0.01379l0.35747,0.35747c0.00659,-0.02584 0.02006,-0.03196 0.04644,-0.03196c0.03489,0 0.05188,-0.01704 0.05225,-0.05231l-6.33584,-6.33584c-0.00031,-0.00031 -0.00062,-0.00063 -0.00092,-0.00096l-0.10238,-0.10238c-0.00045,-0.00045 -0.0009,-0.00092 -0.00133,-0.00141l-0.13164,-0.13164c-0.00143,-0.00143 -0.00272,-0.00298 -0.00388,-0.00465l-0.09578,-0.09578c-0.01363,-0.01363 -0.01675,-0.04387 -0.01675,-0.10738c0,-0.01623 -0.00022,-0.03031 -0.00077,-0.04249l-0.09426,-0.09426c-0.02824,-0.02824 -0.03975,-0.08343 -0.02255,-0.13752c0.00908,-0.02879 0.03927,-0.05226 0.0671,-0.05226c0.03306,0 0.05048,-0.01809 0.05048,-0.05226c0,-0.03425 0.01742,-0.05226 0.05041,-0.05226c0.0324,0 0.05344,-0.02104 0.05875,-0.05883c0.00538,-0.03779 0.02937,-0.06178 0.06716,-0.0671c0.03779,-0.00539 0.05875,-0.02642 0.05875,-0.05883c0,-0.03299 0.01809,-0.05041 0.05226,-0.05041c0.03483,0 0.05226,-0.01742 0.05226,-0.05226c0,-0.03425 0.01741,-0.05226 0.05048,-0.05226c0.0324,0 0.05344,-0.02104 0.05875,-0.05883c0.00538,-0.03772 0.02937,-0.0617 0.06716,-0.0671c0.03233,-0.00457 0.05875,-0.02553 0.05875,-0.04657c0,-0.02096 0.02059,-0.04554 0.04576,-0.05462c0.0251,-0.00901 0.06671,-0.03801 0.0924,-0.06451c0.02577,-0.02642 0.08076,-0.04804 0.12231,-0.04804c0.05846,0 0.07743,-0.01328 0.08392,-0.05875c0.00686,-0.0482 0.02487,-0.05883 0.09978,-0.05883c0.04538,0 0.06988,0.0039 0.08367,0.01769c0,0 0,0 0,0l0.20489,0.20489c0.01838,0.00136 0.03108,0.00566 0.03922,0.0138c0,0 0,0 0,0c0,0 0,0 0,0l0.32394,0.32394c0.03211,0.00119 0.07411,0.00145 0.12903,0.00145c0.21013,0 0.23338,-0.00494 0.24578,-0.05226c0.00753,-0.02871 0.03093,-0.05226 0.05197,-0.05226c0.02708,0 0.04215,-0.03986 0.05137,-0.1361c0.00967,-0.10061 0.02761,-0.14577 0.06865,-0.17301c0.05529,-0.03668 0.05558,-0.04317 0.05558,-1.18331l0,-0.18153l-0.98657,-0.98657c-0.02821,-0.02821 -0.03238,-0.15305 -0.03238,-0.72578v-0.71566h0.11448c0.09255,0 0.11721,-0.01004 0.12821,-0.05226l0.00004,0.00001c0.0135,-0.05145 0.03565,-0.05226 1.46615,-0.05226h1.45257l1.47153,1.47153l0.505,0.00466l0.19161,0.13064l0.34264,0.34264l-0.0034,-0.35571h0.27708c0.25583,0 0.28076,-0.0045 0.32469,-0.05883c0.04679,-0.05786 0.05778,-0.0589 0.74223,-0.0665l0.69477,-0.00775l0.90877,0.90877c0.0064,-0.21427 0.02456,-0.39409 0.05481,-0.41527c0.02702,-0.01889 0.05359,-0.0578 0.05905,-0.08636c0.00568,-0.02989 0.03477,-0.0555 0.06842,-0.06038c0.0375,-0.00531 0.05854,-0.02642 0.05854,-0.05875c0,-0.03299 0.01801,-0.05041 0.05226,-0.05041c0.03483,0 0.05226,-0.01742 0.05226,-0.05226c0,-0.03831 0.01742,-0.05226 0.06532,-0.05226c0.04111,0 0.06532,-0.01476 0.06532,-0.03986c0,-0.04451 0.10067,-0.09079 0.19744,-0.09079c0.03506,0 0.07794,-0.02332 0.09602,-0.05226c0.03137,-0.05034 0.0609,-0.05226 0.7939,-0.05226c0.6448,0 0.76622,-0.00598 0.79375,-0.03919l0.00001,0.00001c0.01794,-0.02155 0.07086,-0.03919 0.11757,-0.03919c0.04454,0 0.09463,0.01598 0.11475,0.0361l0.00973,0.00973c0.03389,0.02634 0.13295,0.03255 0.46658,0.03255h0.44102l0.36571,0.36571v-0.13056h0.10333c0.07536,0 0.12097,-0.01771 0.16866,-0.06532c0.04812,-0.0482 0.09307,-0.06532 0.17102,-0.06532h0.10569v-0.34432c0,-0.34823 0.03167,-0.51792 0.0967,-0.51792c0.01867,0 0.03395,-0.01174 0.03395,-0.02613c0,-0.01432 0.02215,-0.02613 0.04924,-0.02613c0.02724,0 0.05529,-0.02332 0.06282,-0.05226c0.01277,-0.04872 0.03565,-0.05226 0.33967,-0.05226l0.33967,-0.05218l-0.00002,-0.00003c0.01284,-0.0493 0.03564,-0.05226 0.39495,-0.05226h0.3813l11.40858,11.40858v13.02463c0,1.10457 -0.89543,2 -2,2h-15.48621zM16.16328,21.77919c0,0 0,0 0,0z"
      fill="url(#color-1)" fill-rule="nonzero" stroke-width="1"></path>
    <path
      d="M30.47552,16.67126l0.33967,-0.05218zM32.1803,27.46186l0.12415,-0.05226zM17.09834,16.2794c-0.011,0.04222 -0.03565,0.05226 -0.12821,0.05226h-0.11448v0.71566c0,0.62856 0.00502,0.71765 0.04133,0.7316c0.02273,0.00871 0.25199,0.01587 0.50943,0.01587h0.46817v1.14641c0,1.14014 -0.0003,1.14663 -0.05558,1.18332c-0.04104,0.02724 -0.05897,0.07241 -0.06864,0.17301c-0.00923,0.09625 -0.02428,0.1361 -0.05137,0.1361c-0.02104,0 -0.04443,0.02355 -0.05196,0.05226c-0.0124,0.04731 -0.03565,0.05226 -0.24579,0.05226c-0.21464,0 -0.23206,-0.00391 -0.23206,-0.05226c0,-0.03484 -0.01742,-0.05226 -0.05226,-0.05226c-0.03838,0 -0.05226,-0.01742 -0.05226,-0.06532c0,-0.0479 -0.01395,-0.06532 -0.05226,-0.06532c-0.03484,0 -0.05226,-0.01742 -0.05226,-0.05226c0,-0.03831 -0.01742,-0.05226 -0.06532,-0.05226c-0.0479,0 -0.06532,-0.01395 -0.06532,-0.05226c0,-0.03417 -0.01742,-0.05226 -0.05049,-0.05226c-0.0324,0 -0.05336,-0.02096 -0.05875,-0.05875c-0.00686,-0.0482 -0.02487,-0.05883 -0.09979,-0.05883c-0.07492,0 -0.09293,0.01063 -0.09979,0.05883c-0.0065,0.04547 -0.02546,0.05875 -0.08392,0.05875c-0.04155,0 -0.09654,0.02163 -0.1223,0.04805c-0.02569,0.0265 -0.06731,0.0555 -0.09241,0.06451c-0.02517,0.00908 -0.04576,0.03366 -0.04576,0.05462c0,0.02104 -0.02642,0.042 -0.05875,0.04657c-0.03779,0.00539 -0.06178,0.02938 -0.06717,0.06709c-0.00531,0.03779 -0.02635,0.05883 -0.05875,0.05883c-0.03307,0 -0.05049,0.01801 -0.05049,0.05226c0,0.03484 -0.01742,0.05226 -0.05226,0.05226c-0.03417,0 -0.05226,0.01742 -0.05226,0.05041c0,0.0324 -0.02096,0.05344 -0.05875,0.05883c-0.03779,0.00531 -0.06178,0.0293 -0.06717,0.06709c-0.00531,0.03779 -0.02635,0.05883 -0.05875,0.05883c-0.03299,0 -0.05041,0.01801 -0.05041,0.05226c0,0.03417 -0.01742,0.05226 -0.05049,0.05226c-0.02783,0 -0.05801,0.02347 -0.06709,0.05226c-0.02458,0.07728 0.00945,0.15677 0.06709,0.15677c0.04237,0 0.05049,0.01875 0.05049,0.1175c0,0.10016 0.00775,0.11758 0.05226,0.11758c0.03484,0 0.05226,0.01742 0.05226,0.05226c0,0.03831 0.01742,0.05226 0.06532,0.05226c0.05218,0 0.06525,0.01306 0.06525,0.06532c0,0.0479 0.01395,0.06532 0.05226,0.06532c0.03484,0 0.05226,0.01742 0.05226,0.05226c0,0.03484 0.01742,0.05226 0.05226,0.05226c0.03484,0 0.05226,0.01742 0.05226,0.05226c0,0.03831 0.01742,0.05226 0.06532,0.05226c0.05226,0 0.06532,0.01306 0.06532,0.06532c0,0.05388 0.01262,0.06532 0.07211,0.06532c0.04377,0 0.08488,0.02052 0.10474,0.05226c0.01845,0.02952 0.06089,0.05226 0.09772,0.05226c0.03698,0 0.0651,0.01513 0.0651,0.03499c0,0.0493 0.11448,0.09566 0.23641,0.09566c0.08584,0 0.10326,0.00878 0.10326,0.05226c0,0.051 0.01742,0.05226 0.74245,0.05226c0.75743,0 0.82519,-0.00546 0.82519,-0.06665c0,-0.02236 0.03986,-0.03779 0.11101,-0.04288c0.09234,-0.00672 0.11249,-0.01801 0.11942,-0.06687c0.00701,-0.04938 0.0245,-0.05875 0.10924,-0.05875c0.07802,0 0.10474,-0.01188 0.1175,-0.05226c0.00915,-0.02871 0.03934,-0.05226 0.06709,-0.05226c0.03646,0 0.05049,-0.01816 0.05049,-0.06532c0,-0.0479 0.01395,-0.06532 0.05226,-0.06532c0.03484,0 0.05226,-0.01742 0.05226,-0.05226c0,-0.03558 0.01742,-0.05226 0.05469,-0.05226c0.03277,0 0.06023,-0.02096 0.06842,-0.05226c0.00745,-0.02871 0.02864,-0.05226 0.04702,-0.05226c0.04111,0 0.06503,-0.05846 0.06503,-0.15891c0,-0.05883 0.01196,-0.07625 0.05226,-0.07625c0.04429,0 0.05226,-0.01742 0.05226,-0.11448c0,-0.08946 0.01055,-0.11728 0.04827,-0.12717c0.07831,-0.02045 0.08237,-0.10584 0.08237,-1.73423v-1.55126h0.21146c0.18947,0 0.21287,-0.00546 0.22512,-0.05226c0.0076,-0.02893 0.03565,-0.05226 0.06289,-0.05226c0.07543,0 0.07292,-0.3827 -0.00303,-0.46426c-0.04827,-0.05181 -0.05226,-0.09226 -0.05226,-0.52752v-0.47135h-1.45257c-1.4305,0 -1.45265,0.00081 -1.46615,0.05226zM30.81519,16.61908c-0.01277,0.04871 -0.03565,0.05218 -0.33967,0.05218c-0.30402,0 -0.3269,0.00354 -0.33967,0.05226c-0.00753,0.02893 -0.03558,0.05226 -0.06281,0.05226c-0.02709,0 -0.04923,0.01181 -0.04923,0.02613c0,0.01439 -0.01528,0.02613 -0.03395,0.02613c-0.06503,0 -0.09669,0.16969 -0.09669,0.51792v0.34432h-0.1057c-0.07794,0 -0.12289,0.01712 -0.17102,0.06532c-0.04768,0.04761 -0.0933,0.06532 -0.16865,0.06532h-0.10333v0.43555c0,0.33879 -0.00819,0.44478 -0.03698,0.47681c-0.06975,0.0778 -0.0789,0.22586 -0.01771,0.28705c0.03011,0.03004 0.05469,0.07233 0.05469,0.09389c0,0.03233 0.0479,0.03919 0.27406,0.03919h0.27398l0.00686,0.96019c0.00686,0.95923 0.00694,0.96019 0.06289,0.96816c0.05049,0.00716 0.05698,0.02716 0.06591,0.20467c0.00768,0.15212 0.02015,0.20239 0.05506,0.22187c0.0248,0.01388 0.0451,0.0541 0.0451,0.08931c0,0.04561 0.01432,0.06399 0.04997,0.06399c0.03786,0 0.05418,0.02517 0.06761,0.10451c0.00967,0.0575 0.02775,0.10451 0.04015,0.10451c0.01233,0 0.05418,0.02938 0.09293,0.06532c0.04096,0.03794 0.10171,0.06532 0.14504,0.06532c0.05573,0 0.07455,0.01247 0.07455,0.04945c0,0.0761 0.04148,0.08119 0.66628,0.08119c0.6248,0 0.66628,-0.00509 0.66628,-0.08119c0,-0.04096 0.01956,-0.04945 0.11352,-0.04945c0.0803,0 0.12732,-0.01528 0.16076,-0.05226c0.0262,-0.02893 0.08053,-0.05226 0.12164,-0.05226c0.06185,0 0.07433,-0.01092 0.07433,-0.06532c0,-0.05875 0.01048,-0.06532 0.10451,-0.06532c0.0871,0 0.10451,-0.00871 0.10451,-0.05226c0,-0.03831 0.01742,-0.05226 0.06532,-0.05226c0.04584,0 0.06532,-0.01425 0.06532,-0.04761c0,-0.03321 0.02938,-0.05499 0.09691,-0.07189c0.14474,-0.03609 0.18548,-0.32469 0.04584,-0.32469c-0.02701,0 -0.03823,-0.02975 -0.03823,-0.10141c0,-0.07831 -0.01151,-0.10451 -0.05049,-0.1147c-0.03683,-0.0096 -0.05277,-0.04052 -0.05883,-0.11411c-0.00672,-0.08163 -0.01949,-0.10245 -0.06702,-0.10916c-0.05093,-0.00723 -0.05883,-0.02399 -0.05883,-0.12415c0,-0.09831 -0.00782,-0.11573 -0.05226,-0.11573c-0.04377,0 -0.05226,-0.01742 -0.05226,-0.10695c0,-0.08193 -0.01122,-0.1099 -0.04812,-0.11957c-0.02915,-0.0076 -0.05742,-0.05041 -0.07182,-0.10857c-0.02886,-0.11669 -0.14304,-0.15131 -0.19272,-0.05838c-0.0217,0.04045 -0.05455,0.05381 -0.13241,0.05381c-0.08614,0 -0.10355,0.00878 -0.10355,0.05226c0,0.04731 -0.01742,0.05226 -0.1829,0.05226h-0.1829v-0.23538c0,-0.20312 -0.00716,-0.24158 -0.05226,-0.28018c-0.0465,-0.03978 -0.05226,-0.07706 -0.05226,-0.33938v-0.29465h1.12346v-1.33248h-1.01894v-1.2541h-0.3813c-0.35931,0 -0.38211,0.00295 -0.39496,0.05226zM27.82907,17.54657c-0.02753,0.03321 -0.14895,0.03919 -0.79375,0.03919c-0.733,0 -0.76253,0.00192 -0.7939,0.05226c-0.01808,0.02893 -0.06097,0.05226 -0.09603,0.05226c-0.09676,0 -0.19744,0.04628 -0.19744,0.09079c0,0.0251 -0.02421,0.03986 -0.06532,0.03986c-0.0479,0 -0.06532,0.01395 -0.06532,0.05226c0,0.03484 -0.01742,0.05226 -0.05226,0.05226c-0.03425,0 -0.05226,0.01742 -0.05226,0.05041c0,0.03233 -0.02104,0.05344 -0.05853,0.05875c-0.03366,0.00487 -0.06274,0.03048 -0.06842,0.06038c-0.00546,0.02856 -0.03203,0.06746 -0.05905,0.08636c-0.07853,0.05499 -0.07558,1.17903 0.0031,1.19963c0.03432,0.009 0.05226,0.03565 0.05226,0.07765c0,0.08488 0.04488,0.16504 0.09234,0.16504c0.02104,0 0.03831,0.02355 0.03831,0.05226c0,0.03484 0.01742,0.05226 0.05226,0.05226c0.03558,0 0.05226,0.01742 0.05226,0.05477c0,0.0324 0.02089,0.06015 0.05137,0.06813c0.02827,0.00738 0.05846,0.03565 0.06709,0.06289c0.01063,0.03358 0.04008,0.04938 0.09204,0.04938c0.04812,0 0.0885,0.01934 0.10909,0.05226c0.01794,0.02879 0.0592,0.05226 0.09167,0.05226c0.03558,0 0.05897,0.01587 0.05897,0.04008c0,0.022 0.0265,0.05063 0.05883,0.06362c0.03845,0.0155 -0.10466,0.02421 -0.414,0.02532c-0.62406,0.00214 -0.55926,-0.10806 -0.55926,0.95082v0.85361h0.61402c0.59653,0 0.61395,-0.00148 0.61395,-0.05226c0,-0.03764 0.01742,-0.05226 0.0623,-0.05226c0.0403,0 0.06709,0.01845 0.07595,0.05226c0.02436,0.09322 1.56004,0.07757 1.56004,-0.01587c0,-0.02281 0.02856,-0.03639 0.07654,-0.03639c0.07403,0 0.15862,-0.05669 0.15862,-0.10636c0,-0.01336 0.02347,-0.02428 0.05226,-0.02428c0.03484,0 0.05226,-0.01742 0.05226,-0.05226c0,-0.03558 0.01742,-0.05226 0.05469,-0.05226c0.03181,0 0.06015,-0.02081 0.06776,-0.04982c0.00716,-0.02746 0.03543,-0.05573 0.06281,-0.06289c0.03882,-0.01011 0.0499,-0.03676 0.0499,-0.12001c0,-0.08953 0.00849,-0.10695 0.05226,-0.10695c0.05063,0 0.05226,-0.01742 0.05226,-0.56169c0,-0.54435 -0.00162,-0.56176 -0.05226,-0.56176c-0.04451,0 -0.05226,-0.01742 -0.05226,-0.11758c0,-0.0978 -0.00834,-0.11758 -0.04938,-0.11758c-0.03602,0 -0.0541,-0.02546 -0.06702,-0.09433c-0.01166,-0.06207 -0.03499,-0.09883 -0.06827,-0.10754c-0.02775,-0.00731 -0.05049,-0.03454 -0.05049,-0.06067c0,-0.02613 -0.02355,-0.05491 -0.05233,-0.06407c-0.02871,-0.00908 -0.06444,-0.03927 -0.07927,-0.06702c-0.01875,-0.03499 -0.05484,-0.05049 -0.1175,-0.05049c-0.0792,0 -0.09056,-0.00827 -0.09056,-0.06532c0,-0.04495 -0.01432,-0.06532 -0.04598,-0.06532c-0.02524,0 -0.06067,-0.02355 -0.07861,-0.05226c-0.02214,-0.0355 -0.06089,-0.05226 -0.12083,-0.05226c-0.06525,0 -0.0916,-0.01321 -0.10134,-0.05063c-0.00996,-0.03809 -0.04148,-0.05314 -0.12717,-0.06075c-0.06266,-0.00561 0.15707,-0.01218 0.48832,-0.01469c0.42817,-0.00325 0.61129,-0.01365 0.63358,-0.03595c0.02295,-0.02295 0.03137,-0.23339 0.03137,-0.78378v-0.75249h-0.44101c-0.36004,0 -0.44692,-0.00723 -0.47349,-0.03919c-0.01786,-0.02155 -0.07078,-0.03919 -0.11758,-0.03919c-0.04672,0 -0.09964,0.01764 -0.11758,0.03919zM20.1669,17.70592c-0.05108,0.051 -0.02111,1.21675 0.03159,1.23048c0.03654,0.0096 0.05307,0.04015 0.05883,0.10865l0.0079,0.09529l0.16334,0.00775l0.16327,0.00782v0.84608c0,0.8232 0.0014,0.8466 0.05226,0.86276c0.04281,0.01358 0.05226,0.03949 0.05226,0.14356c0,0.1209 0.04488,0.2091 0.10636,0.2091c0.01336,0 0.02428,0.04229 0.02428,0.09389c0,0.07196 0.01225,0.09713 0.05226,0.10761c0.03004,0.00782 0.05226,0.03565 0.05226,0.06532c0,0.02879 0.022,0.05735 0.04982,0.06466c0.02746,0.00716 0.05573,0.03543 0.06289,0.06289c0.0076,0.02901 0.03587,0.04982 0.06776,0.04982c0.03727,0 0.05469,0.01668 0.05469,0.05226c0,0.03572 0.01742,0.05226 0.05499,0.05226c0.03026,0 0.07816,0.02938 0.10643,0.06532c0.04096,0.05211 0.07477,0.06532 0.16703,0.06532c0.09831,0 0.11573,0.0079 0.11573,0.05226c0,0.05093 0.01742,0.05226 0.67927,0.05226c0.64451,0 0.682,-0.00266 0.7316,-0.05226c0.02871,-0.02871 0.08237,-0.05226 0.11928,-0.05226c0.08761,0 0.16806,-0.04421 0.16806,-0.09234c0,-0.02347 0.02539,-0.03831 0.06532,-0.03831c0.06001,0 0.06532,0.0096 0.06532,0.11758v0.11758h1.6991l-0.01388,-1.45006l-0.16054,-0.00775c-0.13374,-0.00642 -0.16282,-0.01624 -0.1739,-0.05875c-0.01055,-0.04023 -0.03617,-0.05108 -0.12031,-0.05108h-0.10695v-2.74579l-0.69477,0.00775c-0.68444,0.0076 -0.69543,0.00864 -0.74223,0.0665c-0.04392,0.05432 -0.06886,0.05883 -0.32469,0.05883h-0.27708l0.01388,1.45006l0.28085,0.00738l0.28092,0.00745v0.17375c0,0.14083 -0.01048,0.18497 -0.05514,0.2325c-0.0406,0.04318 -0.05883,0.10496 -0.06923,0.2342c-0.00974,0.12186 -0.02886,0.19028 -0.06244,0.22386c-0.02657,0.02657 -0.04835,0.07123 -0.04835,0.09913c0,0.05632 -0.11123,0.07492 -0.34624,0.05772c-0.10141,-0.00738 -0.12407,-0.01808 -0.12407,-0.05875c0,-0.03144 -0.01823,-0.04975 -0.0496,-0.04975c-0.04406,0 -0.05056,-0.02465 -0.05875,-0.22416c-0.00723,-0.17618 -0.01904,-0.23139 -0.05491,-0.25767c-0.04207,-0.0307 -0.04576,-0.10769 -0.04591,-0.95805l-0.00022,-0.92461l-0.19161,-0.13064l-0.9038,-0.00834c-0.49703,-0.00458 -0.91236,0.00037 -0.92292,0.01092zM27.52365,18.86791c0.00782,0.02982 0.03853,0.0606 0.06835,0.06842c0.03358,0.00871 0.05418,0.03543 0.05418,0.07005c0,0.07794 -0.22268,0.0668 -0.24335,-0.01218c-0.00753,-0.02901 -0.03587,-0.04982 -0.06768,-0.04982c-0.04096,0 -0.05469,-0.01646 -0.05469,-0.06532c0,-0.09056 0.21981,-0.1006 0.2432,-0.01115zM26.59505,20.25073c0.02377,0.03809 0.06097,0.05226 0.13692,0.05226c0.08687,0 0.10429,0.00871 0.10429,0.05226c0,0.03831 0.01742,0.05226 0.06532,0.05226c0.14002,0 0.2401,0.21619 0.11101,0.23981c-0.13706,0.0251 -0.30697,-0.0079 -0.30697,-0.05956c0,-0.03218 -0.0183,-0.0496 -0.05226,-0.0496c-0.04451,0 -0.05226,-0.01742 -0.05226,-0.11758c0,-0.10016 -0.00775,-0.11758 -0.05226,-0.11758c-0.03484,0 -0.05226,-0.01742 -0.05226,-0.05226c0,-0.02871 0.01484,-0.05226 0.03292,-0.05226c0.01808,0 0.04761,0.02355 0.06554,0.05226zM15.95702,25.8049c-0.00871,0.02273 -0.01587,0.07565 -0.01587,0.11758c0,0.10407 -0.22519,0.12046 -0.23981,0.01749l-0.00834,-0.05883l-0.6575,-0.00694l-0.6575,-0.00701l-0.05174,0.06576c-0.04215,0.05359 -0.0744,0.06576 -0.17449,0.06576c-0.10082,0 -0.12525,0.00937 -0.13647,0.05226c-0.01033,0.03964 -0.03565,0.05226 -0.10451,0.05226c-0.06798,0 -0.09418,0.01277 -0.10407,0.05078c-0.00731,0.02797 -0.03853,0.0544 -0.06945,0.05883c-0.03513,0.00495 -0.0592,0.02997 -0.06444,0.06672c-0.00539,0.03779 -0.02635,0.05883 -0.05883,0.05883c-0.03299,0 -0.05041,0.01801 -0.05041,0.05226c0,0.03558 -0.01742,0.05226 -0.05469,0.05226c-0.0327,0 -0.06023,0.02096 -0.06835,0.05226c-0.0076,0.02893 -0.03565,0.05226 -0.06289,0.05226c-0.03506,0 -0.04923,0.01875 -0.04923,0.06532c0,0.0479 -0.01395,0.06532 -0.05226,0.06532c-0.03484,0 -0.05226,0.01742 -0.05226,0.05226c0,0.02871 -0.01092,0.05226 -0.02421,0.05226c-0.04894,0 -0.10643,0.08407 -0.10643,0.15559c0,0.05145 -0.01557,0.0775 -0.05226,0.0871c-0.04082,0.0107 -0.05226,0.03565 -0.05226,0.11433c0,0.07241 -0.01469,0.10983 -0.05226,0.1333c-0.04458,0.0279 -0.05226,0.06097 -0.05226,0.2266c0,0.1812 -0.00384,0.19441 -0.05875,0.20224l-0.05875,0.00834v1.9857l0.05875,0.02576c0.05137,0.02251 0.05875,0.04517 0.05875,0.17884c0,0.13101 0.00753,0.15493 0.05226,0.16666c0.04126,0.01078 0.05226,0.03565 0.05226,0.11758c0,0.08097 0.01122,0.1068 0.05085,0.11721c0.03654,0.00952 0.05307,0.04015 0.05883,0.10857c0.00627,0.07595 0.01985,0.09699 0.06672,0.10363c0.04052,0.00576 0.05875,0.02613 0.05875,0.06562c0,0.03144 0.02355,0.07189 0.05226,0.08983c0.03041,0.01897 0.05226,0.06089 0.05226,0.10016c0,0.04517 0.01705,0.07196 0.05137,0.08097c0.02827,0.00738 0.05831,0.03513 0.06665,0.06156c0.00841,0.02642 0.03823,0.05536 0.06621,0.06429c0.02805,0.00886 0.05093,0.0341 0.05093,0.05602c0,0.02192 0.02244,0.04569 0.04982,0.05292c0.02746,0.00716 0.05573,0.03543 0.06289,0.06281c0.01019,0.03882 0.03676,0.0499 0.12001,0.0499c0.09662,0 0.10695,0.00627 0.10695,0.06532c0,0.04488 0.01432,0.06532 0.04598,0.06532c0.02524,0 0.0606,0.02347 0.07861,0.05226c0.02251,0.03602 0.06089,0.05218 0.12385,0.05218c0.07381,0 0.09123,0.01004 0.09123,0.05226c0,0.04694 0.01742,0.05226 0.16976,0.05226c0.14924,0 0.16984,0.00605 0.16984,0.04953c0,0.07735 0.03809,0.08112 0.80829,0.08112h0.72562l0.07049,-0.06532c0.05322,-0.0493 0.0989,-0.06532 0.18666,-0.06532c0.09883,0 0.11625,-0.00782 0.11625,-0.05226c0,-0.0437 0.01742,-0.05226 0.10695,-0.05226c0.08495,0 0.10975,-0.0107 0.1206,-0.05218c0.00753,-0.02879 0.03499,-0.05226 0.06111,-0.05226c0.02915,0 0.05056,-0.02251 0.05573,-0.05868c0.00546,-0.03838 0.03107,-0.06318 0.07418,-0.07182c0.08045,-0.01616 0.26077,-0.15714 0.26077,-0.20394c0,-0.0186 0.02938,-0.06111 0.06532,-0.0944c0.03587,-0.03329 0.06525,-0.07979 0.06525,-0.10326c0,-0.02532 0.02133,-0.04274 0.05226,-0.04274c0.03698,0 0.05226,-0.01742 0.05226,-0.05949c0,-0.03277 0.02355,-0.07964 0.05226,-0.10429c0.05484,-0.04694 0.07691,-0.25427 0.02709,-0.25427c-0.01388,0 -0.06052,-0.03233 -0.10363,-0.07182c-0.13367,-0.12252 -0.23043,-0.18947 -0.27376,-0.18947c-0.02414,0 -0.04155,-0.02185 -0.04155,-0.05226c0,-0.03417 -0.01742,-0.05226 -0.05049,-0.05226c-0.0324,0 -0.05336,-0.02096 -0.05875,-0.05875c-0.00539,-0.03779 -0.02938,-0.06178 -0.06717,-0.06717c-0.03779,-0.00531 -0.05875,-0.02635 -0.05875,-0.05875c0,-0.03299 -0.01808,-0.05041 -0.05226,-0.05041c-0.03484,0 -0.05226,-0.01742 -0.05226,-0.05226c0,-0.03425 -0.01742,-0.05226 -0.05041,-0.05226c-0.03248,0 -0.05344,-0.02104 -0.05883,-0.05883c-0.00539,-0.03779 -0.02938,-0.06178 -0.06709,-0.06709c-0.03779,-0.00539 -0.05883,-0.02642 -0.05883,-0.05883c0,-0.04421 -0.01926,-0.05041 -0.15677,-0.05041c-0.13743,0 -0.15677,0.0062 -0.15677,0.05041c0,0.0324 -0.02096,0.05344 -0.05875,0.05883c-0.03779,0.00531 -0.06178,0.0293 -0.06717,0.06709c-0.00531,0.03779 -0.02635,0.05883 -0.05875,0.05883c-0.03307,0 -0.05049,0.01801 -0.05049,0.05226c0,0.04215 -0.01742,0.05226 -0.0899,0.05226c-0.05868,0 -0.10208,0.0172 -0.12459,0.04938c-0.06281,0.08968 -0.68414,0.09211 -0.70754,0.00288c-0.00812,-0.0313 -0.03558,-0.05226 -0.06835,-0.05226c-0.03727,0 -0.05469,-0.01668 -0.05469,-0.05226c0,-0.03484 -0.01742,-0.05226 -0.05226,-0.05226c-0.03558,0 -0.05226,-0.01742 -0.05226,-0.05469c0,-0.03225 -0.02089,-0.06023 -0.05078,-0.06798c-0.03417,-0.009 -0.05344,-0.04023 -0.05875,-0.09558c-0.00531,-0.05447 -0.02716,-0.09064 -0.06466,-0.1071c-0.10385,-0.04561 -0.104,-1.2586 -0.00007,-1.27344c0.0465,-0.00657 0.05816,-0.02812 0.06473,-0.11913c0.0065,-0.08975 0.01779,-0.11101 0.05883,-0.11101c0.03225,0 0.05071,-0.01794 0.05071,-0.04923c0,-0.02724 0.02332,-0.05528 0.05226,-0.06289c0.0313,-0.00812 0.05226,-0.03558 0.05226,-0.06835c0,-0.08451 0.56081,-0.08495 0.58287,-0.00052c0.00782,0.02982 0.0386,0.0606 0.06835,0.06842c0.02982,0.00775 0.05425,0.0296 0.05425,0.04849c0,0.01897 0.02347,0.04185 0.05226,0.051c0.02871,0.00915 0.05226,0.03934 0.05226,0.06709c0,0.03646 0.01816,0.05049 0.06532,0.05049c0.05993,0 0.06525,0.0096 0.06525,0.11758c0,0.10016 0.00775,0.11758 0.05226,0.11758c0.04355,0 0.05226,0.01742 0.05226,0.104c0,0.14821 0.29531,0.19353 0.33259,0.051c0.0124,-0.04739 0.04023,-0.05049 0.4543,-0.05049c0.42374,0 0.44116,-0.00207 0.44116,-0.05226c0,-0.04451 0.01742,-0.05226 0.11758,-0.05226h0.1175v-0.45422c0,-0.43216 0.00258,-0.45481 0.05226,-0.46781c0.05041,-0.01321 0.05226,-0.03565 0.05226,-0.61705c0,-0.58597 -0.00148,-0.60339 -0.05226,-0.60339c-0.03831,0 -0.05226,-0.01742 -0.05226,-0.06532c0,-0.05971 -0.00974,-0.06532 -0.11448,-0.06532c-0.09256,0 -0.11714,-0.01004 -0.12821,-0.05226c-0.0189,-0.07219 -1.17697,-0.08274 -1.20457,-0.01092zM28.15568,26.8871c0.15242,0 0.16984,0.00531 0.16984,0.05226c0,0.04687 0.01742,0.05226 0.16984,0.05226h0.16984v0.48736l-0.08495,-0.0124c-0.04665,-0.00679 -0.10023,-0.03417 -0.11905,-0.06082c-0.05506,-0.07816 -1.46623,-0.07447 -1.48667,0.00384c-0.01107,0.04222 -0.03565,0.05226 -0.12821,0.05226c-0.09713,0 -0.11455,0.00797 -0.11455,0.05226c0,0.02879 -0.01705,0.05226 -0.03794,0.05226c-0.0654,0 -0.17109,0.05905 -0.17109,0.09566c0,0.01926 -0.02458,0.03499 -0.05469,0.03499c-0.0324,0 -0.06015,0.02096 -0.06813,0.05137c-0.00738,0.02827 -0.03476,0.05816 -0.06075,0.06643c-0.03048,0.00967 -0.05359,0.05181 -0.0648,0.11846c-0.01321,0.07831 -0.0296,0.10341 -0.06746,0.10341c-0.03587,0 -0.04997,0.01838 -0.04997,0.06532c0,0.03587 -0.02347,0.08879 -0.05218,0.11758c-0.03683,0.03676 -0.05226,0.0871 -0.05226,0.16984c0,0.0975 -0.00841,0.1175 -0.04901,0.1175c-0.07425,0 -0.08163,0.0854 -0.08163,0.94063c0,0.84866 0.00686,0.92948 0.08119,0.9489c0.03853,0.01004 0.04945,0.03698 0.04945,0.1223c0,0.08746 0.01048,0.11219 0.05226,0.12304c0.04089,0.01078 0.05218,0.03565 0.05218,0.11514c0,0.08281 0.0093,0.10149 0.05049,0.10149c0.0324,0 0.05344,0.02104 0.05875,0.05875c0.00524,0.03668 0.02938,0.06178 0.06414,0.0668c0.03786,0.00539 0.06075,0.0324 0.071,0.08377c0.00982,0.04908 0.04281,0.09012 0.09366,0.1164c0.04318,0.02236 0.09101,0.06399 0.10629,0.09256c0.01528,0.02864 0.05093,0.05204 0.0792,0.05204c0.03388,0 0.0513,0.01771 0.0513,0.05226c0,0.04355 0.01742,0.05218 0.10451,0.05218c0.0871,0 0.10451,0.00871 0.10451,0.05226c0,0.04443 0.01742,0.05226 0.11581,0.05226c0.09042,0 0.1192,0.01078 0.13138,0.04916c0.02266,0.07123 0.1133,0.08149 0.72068,0.08149c0.57985,0 0.62591,-0.00576 0.62591,-0.07853c0,-0.09529 0.33104,-0.08636 0.34469,0.00937l0.00805,0.0561h0.89273c0.88992,0 0.89302,-0.00015 0.95539,-0.05875c0.0344,-0.03233 0.08842,-0.05883 0.12009,-0.05883h0.0575l-0.00694,-0.67277l-0.00701,-0.67277l-0.66621,-0.01461v-4.41396h-2.24699v1.12353zM19.1363,27.17444c-0.01277,0.04871 -0.03565,0.05226 -0.33524,0.05226c-0.30483,0 -0.32557,0.0034 -0.39916,0.06532c-0.06968,0.05868 -0.10068,0.06532 -0.30365,0.06532c-0.20792,0 -0.23139,0.00539 -0.29325,0.06724c-0.08739,0.08739 -0.07986,0.31871 0.01292,0.39924c0.053,0.04591 0.05669,0.07241 0.05669,0.40536v0.35613h0.5487v1.72441h-0.5487v1.22797h2.82174v-1.22797h-0.28741c-0.24549,0 -0.28734,-0.00605 -0.28734,-0.04163c0,-0.02288 -0.02244,-0.04746 -0.04982,-0.05462c-0.0437,-0.01144 -0.05093,-0.04325 -0.05883,-0.25796c-0.00672,-0.18349 -0.01971,-0.25568 -0.05189,-0.28778c-0.03978,-0.03978 -0.03934,-0.0465 0.00657,-0.09234c0.03905,-0.03912 0.04945,-0.08776 0.04945,-0.23235c0,-0.16548 0.00495,-0.1829 0.05226,-0.1829c0.03417,0 0.05226,-0.01742 0.05226,-0.05049c0,-0.02775 0.02288,-0.05779 0.05085,-0.06665c0.02805,-0.00893 0.05824,-0.03912 0.06709,-0.06709c0.02133,-0.06709 0.45681,-0.07912 0.45681,-0.01262c0,0.02104 0.02598,0.05218 0.05772,0.06916c0.03174,0.01698 0.0758,0.05322 0.09802,0.0806c0.06266,0.07743 0.40241,0.05927 0.414,-0.02207c0.00443,-0.03093 0.03085,-0.06215 0.05883,-0.06945c0.0279,-0.00731 0.05078,-0.03255 0.05078,-0.05617c0,-0.02355 0.02938,-0.07012 0.06532,-0.10341c0.03587,-0.03329 0.06532,-0.07839 0.06532,-0.10023c0,-0.02177 0.02347,-0.04576 0.05226,-0.05329c0.03122,-0.00819 0.05226,-0.03565 0.05226,-0.06835c0,-0.03735 0.01661,-0.05477 0.05226,-0.05477c0.03373,0 0.05226,-0.01742 0.05226,-0.04916c0,-0.02709 0.02318,-0.05528 0.05152,-0.06266c0.03654,-0.0096 0.05646,-0.04458 0.06864,-0.12068c0.01299,-0.08119 0.02893,-0.1071 0.06606,-0.1071c0.04392,0 0.04886,-0.02251 0.04886,-0.22209c0,-0.20467 -0.00406,-0.22209 -0.05226,-0.22209c-0.03484,0 -0.05226,-0.01742 -0.05226,-0.05226c0,-0.03794 -0.01742,-0.05226 -0.06348,-0.05226c-0.04598,0 -0.06584,-0.01624 -0.07182,-0.05875c-0.00672,-0.04687 -0.02768,-0.06045 -0.1037,-0.0668c-0.06842,-0.00568 -0.09905,-0.02222 -0.10857,-0.05875c-0.01041,-0.03993 -0.03624,-0.05085 -0.12024,-0.05085c-0.08953,0 -0.10695,-0.00849 -0.10695,-0.05226c0,-0.05078 -0.01742,-0.05226 -0.61646,-0.05226c-0.59446,0 -0.6169,0.00185 -0.63011,0.05226c-0.0107,0.04096 -0.03565,0.05226 -0.11514,0.05226c-0.08687,0 -0.10186,0.00841 -0.10444,0.05883c-0.00221,0.04222 -0.00635,0.04628 -0.01476,0.01425c-0.00642,-0.02443 -0.03447,-0.05167 -0.0623,-0.06052c-0.0372,-0.01181 -0.05056,-0.04 -0.05056,-0.10658c0,-0.05831 -0.01469,-0.0961 -0.04119,-0.10629c-0.02266,-0.00871 -0.05174,-0.04362 -0.06466,-0.07757c-0.03336,-0.08761 -0.41267,-0.09588 -0.43526,-0.00952zM23.2503,27.25467c-0.02517,0.01484 -0.04576,0.04399 -0.04576,0.0648c0,0.02716 -0.03144,0.03786 -0.11123,0.03786c-0.08304,0 -0.11957,0.01329 -0.14393,0.05226c-0.02081,0.03336 -0.06097,0.05226 -0.11079,0.05226c-0.06075,0 -0.07816,0.01166 -0.07816,0.05226c0,0.03521 -0.01742,0.05226 -0.05344,0.05226c-0.02938,0 -0.08193,0.02849 -0.11677,0.06333c-0.03476,0.03476 -0.08717,0.07086 -0.1164,0.08008c-0.02915,0.0093 -0.05307,0.03528 -0.05307,0.05787c0,0.02251 -0.02938,0.0682 -0.06532,0.10149c-0.03595,0.03329 -0.06532,0.08459 -0.06532,0.11404c0,0.03609 -0.01698,0.05351 -0.05226,0.05351c-0.04451,0 -0.05226,0.01742 -0.05226,0.11758c0,0.10016 -0.00775,0.11758 -0.05226,0.11758c-0.04451,0 -0.05226,0.01742 -0.05226,0.11758c0,0.09972 -0.00782,0.1175 -0.05174,0.1175c-0.07728,0 -0.08112,0.04665 -0.07315,0.88837l0.00731,0.77072l0.05883,0.00834c0.05085,0.00723 0.05875,0.02399 0.05875,0.12415c0,0.0809 0.01572,0.13145 0.05226,0.16799c0.02879,0.02879 0.05226,0.07691 0.05226,0.10695c0,0.03174 0.02081,0.06015 0.04945,0.06768c0.0293,0.0076 0.05587,0.04495 0.06517,0.09138c0.00967,0.04842 0.03572,0.0837 0.06813,0.09219c0.03019,0.0079 0.0524,0.03558 0.0524,0.06532c0,0.02967 0.02222,0.0575 0.05226,0.06532c0.02871,0.00753 0.05226,0.02952 0.05226,0.04894c0,0.04539 0.08259,0.08931 0.16814,0.08931c0.0496,0 0.06702,0.01358 0.06702,0.05226c0,0.03484 0.01742,0.05226 0.05226,0.05226c0.0338,0 0.05226,0.01742 0.05226,0.04945c0,0.05632 0.04864,0.08119 0.15891,0.08119c0.05883,0 0.07625,0.01188 0.07625,0.05226c0,0.0437 0.01742,0.05218 0.10695,0.05218c0.08495,0 0.10975,0.01078 0.1206,0.05226c0.01188,0.04539 0.03565,0.05226 0.18046,0.05226c0.14563,0 0.16674,0.0062 0.16674,0.04901c0,0.06436 0.0913,0.08163 0.43031,0.08163c0.23383,0 0.27295,0.0065 0.31436,0.05226c0.04303,0.04761 0.08045,0.05226 0.41857,0.05226c0.44913,0 0.50892,-0.02628 0.50892,-0.22394c0,-0.0961 0.00841,-0.11573 0.04945,-0.11573c0.07233,0 0.08119,-0.0465 0.08119,-0.42691c0,-0.31886 0.00399,-0.34676 0.05359,-0.37776c0.04488,-0.02805 0.05233,-0.05565 0.04569,-0.16961l-0.00782,-0.1361l-0.20903,-0.01306c-0.13647,-0.00849 -0.23191,-0.02864 -0.27501,-0.05794c-0.04746,-0.03225 -0.14762,-0.0499 -0.35584,-0.06252c-0.2652,-0.01609 -0.28874,-0.0217 -0.27716,-0.06613c0.0093,-0.03558 0.03698,-0.04857 0.10355,-0.04857c0.06702,0 0.09425,-0.01292 0.1037,-0.04923c0.00878,-0.03336 0.04532,-0.05447 0.11337,-0.0654c0.06886,-0.011 0.10577,-0.03248 0.11706,-0.06827c0.00915,-0.02871 0.03654,-0.05218 0.06082,-0.05218c0.02428,0 0.05838,-0.02281 0.0758,-0.05056c0.0183,-0.0293 0.06754,-0.05403 0.11728,-0.05883c0.06599,-0.00635 0.08769,-0.02177 0.09411,-0.06702c0.00709,-0.04982 0.02436,-0.05875 0.11352,-0.05875c0.08318,0 0.10798,-0.01092 0.11876,-0.05226c0.00871,-0.03321 0.03565,-0.05226 0.07381,-0.05226c0.1288,0 0.14282,-0.02067 0.14282,-0.21124c0,-0.1626 0.00613,-0.18349 0.06532,-0.22224c0.05757,-0.03779 0.06532,-0.06126 0.06532,-0.19899c0,-0.11662 0.01321,-0.17301 0.05226,-0.22261c0.07189,-0.09145 0.07292,-0.26837 0.00148,-0.26837c-0.04104,0 -0.05226,-0.02133 -0.05875,-0.11108c-0.00672,-0.09226 -0.01801,-0.11241 -0.06687,-0.11935c-0.04953,-0.00709 -0.05875,-0.02443 -0.05875,-0.11108c0,-0.08525 -0.00886,-0.10267 -0.05226,-0.10267c-0.03565,0 -0.05226,-0.01742 -0.05226,-0.05469c0,-0.0324 -0.02096,-0.06023 -0.05137,-0.06813c-0.02827,-0.00745 -0.05846,-0.03572 -0.06709,-0.06289c-0.00864,-0.02724 -0.03705,-0.04945 -0.06318,-0.04945c-0.02605,0 -0.05336,-0.02273 -0.0606,-0.05056c-0.00864,-0.03292 -0.04532,-0.05654 -0.10518,-0.06776c-0.05934,-0.01115 -0.09654,-0.03491 -0.10496,-0.06702c-0.00716,-0.02738 -0.03506,-0.04982 -0.06193,-0.04982c-0.02687,0 -0.06901,-0.02347 -0.09366,-0.05226c-0.03351,-0.03912 -0.07706,-0.05226 -0.17375,-0.05226c-0.11404,0 -0.13005,-0.00686 -0.13743,-0.05875l-0.00834,-0.05883l-0.67934,-0.00598c-0.42935,-0.00376 -0.69617,0.00391 -0.72503,0.02089zM32.30445,27.4096c-0.01092,0.04185 -0.03565,0.05226 -0.12415,0.05226c-0.07625,0 -0.12474,0.01572 -0.1564,0.05078c-0.02532,0.02797 -0.07713,0.0544 -0.11514,0.05883c-0.04871,0.00561 -0.0716,0.02532 -0.07743,0.0668c-0.00686,0.0482 -0.02487,0.05875 -0.10045,0.05875c-0.07012,0 -0.09536,0.01247 -0.10577,0.05226c-0.00745,0.02871 -0.03019,0.05226 -0.05034,0.05226c-0.02022,0 -0.04967,0.02842 -0.06547,0.06311c-0.0158,0.03469 -0.05085,0.06886 -0.0778,0.07595c-0.03654,0.00952 -0.04908,0.03683 -0.04908,0.10673c0,0.07647 -0.00967,0.09389 -0.05226,0.09389c-0.03831,0 -0.05226,0.01742 -0.05226,0.06532c0,0.04111 -0.01476,0.06532 -0.03986,0.06532c-0.05063,0 -0.09079,0.10459 -0.09079,0.23686c0,0.08532 -0.00886,0.10274 -0.05226,0.10274c-0.05122,0 -0.05226,0.01742 -0.05226,0.8866c0,0.86365 0.0014,0.88697 0.05226,0.90313c0.04074,0.01292 0.05226,0.03956 0.05226,0.12053c0,0.07602 0.01757,0.12149 0.06532,0.16925c0.03595,0.03595 0.06532,0.08828 0.06532,0.1164c0,0.03366 0.01786,0.05108 0.05226,0.05108c0.042,0 0.05226,0.01742 0.05226,0.08842c0,0.06554 0.0169,0.09957 0.06532,0.13123c0.03595,0.02355 0.06532,0.06015 0.06532,0.08141c0,0.02118 0.02214,0.0386 0.04923,0.0386c0.02701,0 0.05514,0.02273 0.06237,0.05049c0.00864,0.03292 0.04525,0.05654 0.10518,0.06776c0.05934,0.01115 0.09654,0.03499 0.10496,0.06709c0.00834,0.03181 0.03602,0.04975 0.07676,0.04975c0.03499,0 0.08495,0.02355 0.11101,0.05226c0.03344,0.03698 0.08045,0.05226 0.16076,0.05226c0.08436,0 0.11352,0.01026 0.11352,0.03986c0,0.07676 0.13522,0.09079 0.87487,0.09079c0.7857,0 0.82342,-0.00369 0.82342,-0.08112c0,-0.04266 0.02015,-0.04953 0.14614,-0.04953c0.12422,0 0.14821,-0.00782 0.1598,-0.05226c0.00886,-0.0338 0.03565,-0.05226 0.07595,-0.05226c0.04488,0 0.0623,-0.01461 0.0623,-0.05218c0,-0.03528 0.01742,-0.05226 0.05344,-0.05226c0.02938,0 0.08075,-0.0265 0.11411,-0.05883c0.03336,-0.03233 0.08274,-0.07174 0.10983,-0.08754c0.02709,-0.01587 0.053,-0.05455 0.05772,-0.08591c0.00465,-0.03144 0.03107,-0.0713 0.05875,-0.08857c0.02768,-0.01727 0.05034,-0.05713 0.05034,-0.08865c0,-0.03941 0.01823,-0.05979 0.05875,-0.06554c0.04687,-0.00664 0.06038,-0.02768 0.06672,-0.10363c0.00576,-0.0685 0.02229,-0.09905 0.05883,-0.10865c0.03993,-0.01041 0.05078,-0.03624 0.05078,-0.12024c0,-0.07211 0.01705,-0.12393 0.05226,-0.15921c0.0927,-0.09263 0.07772,-1.75054 -0.0158,-1.75054c-0.02576,0 -0.03646,-0.03447 -0.03646,-0.11758c0,-0.10009 -0.00768,-0.1175 -0.05226,-0.1175c-0.0403,0 -0.05226,-0.01742 -0.05226,-0.07625c0,-0.11027 -0.0248,-0.15891 -0.08112,-0.15891c-0.03203,0 -0.04945,-0.01845 -0.04945,-0.05226c0,-0.02879 -0.02355,-0.0758 -0.05226,-0.10451c-0.02879,-0.02879 -0.05226,-0.0696 -0.05226,-0.09079c0,-0.02118 -0.03528,-0.05676 -0.07839,-0.07905c-0.0431,-0.02229 -0.07839,-0.05145 -0.07839,-0.0648c0,-0.01336 -0.04052,-0.03189 -0.08997,-0.04119c-0.06532,-0.01225 -0.09219,-0.03218 -0.09802,-0.0727c-0.00443,-0.03107 -0.03093,-0.0603 -0.05956,-0.06576c-0.02842,-0.00539 -0.06466,-0.02768 -0.08053,-0.04938c-0.01661,-0.02266 -0.08636,-0.0451 -0.16327,-0.05248c-0.10141,-0.00974 -0.1381,-0.02495 -0.14983,-0.06193c-0.0251,-0.07905 -1.65592,-0.07588 -1.67659,0.00325zM24.17779,28.60376c-0.03676,0.00709 -0.05875,0.03026 -0.05875,0.06178c0,0.04008 -0.01853,0.05041 -0.08997,0.05041c-0.05698,0 -0.10245,0.01742 -0.12407,0.04746c-0.01882,0.02613 -0.05477,0.05514 -0.07986,0.06451c-0.02517,0.00937 -0.04576,0.03978 -0.04576,0.06746c0,0.04104 -0.02207,0.05226 -0.11758,0.05986c-0.11721,0.0093 -0.11758,0.00908 -0.11758,-0.0758c0,-0.05646 0.01262,-0.0851 0.03742,-0.0851c0.02059,0 0.04451,-0.02222 0.05314,-0.04938c0.00864,-0.02724 0.03882,-0.0555 0.06709,-0.06289c0.02827,-0.00738 0.05137,-0.03218 0.05137,-0.05506c0,-0.03535 0.03646,-0.04111 0.24165,-0.03809c0.13293,0.00192 0.21523,0.00864 0.1829,0.01484zM28.20248,28.87273c0.00812,0.0313 0.03565,0.05226 0.06835,0.05226c0.04657,0 0.05469,0.01587 0.05469,0.10695c0,0.08503 0.0107,0.10975 0.05226,0.1206c0.04894,0.01284 0.05226,0.03565 0.05226,0.36159c0,0.32498 -0.00347,0.34905 -0.05226,0.36455c-0.0389,0.01233 -0.05226,0.03949 -0.05226,0.10621c0,0.07824 -0.00834,0.08968 -0.06532,0.08968c-0.03838,0 -0.06532,0.01506 -0.06532,0.03646c0,0.0493 -0.05824,0.06805 -0.21117,0.06805c-0.10016,0 -0.1285,-0.00915 -0.1285,-0.04163c0,-0.02288 -0.02244,-0.04746 -0.04982,-0.05462c-0.02738,-0.00723 -0.05573,-0.0355 -0.06289,-0.06289c-0.00731,-0.02805 -0.0358,-0.0499 -0.0651,-0.0499c-0.04753,0 -0.05292,-0.02067 -0.06126,-0.23508c-0.01786,-0.46013 0.00258,-0.70547 0.05883,-0.70547c0.03011,0 0.0496,-0.01823 0.0496,-0.04643c0,-0.15662 0.43924,-0.25804 0.47792,-0.11035zM33.48444,28.99149c0.03661,0.03661 0.0665,0.08473 0.0665,0.10695c0,0.02229 0.02355,0.04665 0.05226,0.0541c0.08584,0.02244 0.08355,0.71898 -0.00251,0.7936c-0.02731,0.02377 -0.04975,0.06237 -0.04975,0.08577c0,0.07226 -0.56339,0.06303 -0.58236,-0.0096c-0.00812,-0.03122 -0.03565,-0.05226 -0.06835,-0.05226c-0.03809,0 -0.05469,-0.01653 -0.05469,-0.05469c0,-0.03189 -0.02081,-0.06015 -0.05004,-0.06776c-0.09167,-0.02399 -0.09108,-0.67182 0.00059,-0.6958c0.02864,-0.00745 0.04945,-0.03587 0.04945,-0.06761c0,-0.03617 0.01668,-0.05469 0.04923,-0.05469c0.02724,0 0.05528,-0.02332 0.06281,-0.05226c0.02318,-0.0885 0.43533,-0.07735 0.52685,0.01425zM30.81519,16.61908l-0.33967,0.05218zM27.52365,18.86791l0.06835,0.06842zM32.1803,27.46186l0.12415,-0.05226c-0.02517,0.01484 -0.03565,0.05226 -0.12415,0.05226zM24.11903,28.66554l0.05875,-0.06178zM28.20248,28.87273l0.06835,0.05226z"
      id="path0 1 1" fill="none" fill-rule="evenodd" stroke-width="0"></path>
    <path
      d="M17.09834,16.2794c0.01351,-0.05145 0.03565,-0.05226 1.46615,-0.05226h1.45257v0.47135c0,0.43526 0.00399,0.4757 0.05226,0.52752c0.07595,0.08156 0.07846,0.46426 0.00303,0.46426c-0.02724,0 -0.05528,0.02332 -0.06289,0.05226c-0.01225,0.0468 -0.03565,0.05226 -0.22512,0.05226h-0.21146v1.55126c0,1.62839 -0.00406,1.71379 -0.08237,1.73423c-0.03772,0.00989 -0.04827,0.03772 -0.04827,0.12717c0,0.09706 -0.00797,0.11448 -0.05226,0.11448c-0.0403,0 -0.05226,0.01742 -0.05226,0.07625c0,0.10045 -0.02391,0.15891 -0.06503,0.15891c-0.01838,0 -0.03956,0.02355 -0.04702,0.05226c-0.00819,0.0313 -0.03565,0.05226 -0.06842,0.05226c-0.03727,0 -0.05469,0.01668 -0.05469,0.05226c0,0.03484 -0.01742,0.05226 -0.05226,0.05226c-0.03831,0 -0.05226,0.01742 -0.05226,0.06532c0,0.04716 -0.01402,0.06532 -0.05049,0.06532c-0.02775,0 -0.05794,0.02355 -0.06709,0.05226c-0.01277,0.04037 -0.03949,0.05226 -0.1175,0.05226c-0.08473,0 -0.10223,0.00937 -0.10924,0.05875c-0.00694,0.04886 -0.02709,0.06015 -0.11942,0.06687c-0.07115,0.00509 -0.11101,0.02052 -0.11101,0.04288c0,0.06119 -0.06776,0.06665 -0.82519,0.06665c-0.72503,0 -0.74245,-0.00125 -0.74245,-0.05226c0,-0.04347 -0.01742,-0.05226 -0.10326,-0.05226c-0.12193,0 -0.23641,-0.04635 -0.23641,-0.09566c0,-0.01985 -0.02812,-0.03499 -0.0651,-0.03499c-0.03683,0 -0.07927,-0.02273 -0.09772,-0.05226c-0.01985,-0.03174 -0.06097,-0.05226 -0.10474,-0.05226c-0.05949,0 -0.07211,-0.01144 -0.07211,-0.06532c0,-0.05226 -0.01306,-0.06532 -0.06532,-0.06532c-0.0479,0 -0.06532,-0.01395 -0.06532,-0.05226c0,-0.03484 -0.01742,-0.05226 -0.05226,-0.05226c-0.03484,0 -0.05226,-0.01742 -0.05226,-0.05226c0,-0.03484 -0.01742,-0.05226 -0.05226,-0.05226c-0.03831,0 -0.05226,-0.01742 -0.05226,-0.06532c0,-0.05226 -0.01306,-0.06532 -0.06525,-0.06532c-0.0479,0 -0.06532,-0.01395 -0.06532,-0.05226c0,-0.03484 -0.01742,-0.05226 -0.05226,-0.05226c-0.04451,0 -0.05226,-0.01742 -0.05226,-0.11758c0,-0.09876 -0.00812,-0.1175 -0.05049,-0.1175c-0.05765,0 -0.09167,-0.07949 -0.06709,-0.15677c0.00908,-0.02879 0.03927,-0.05226 0.06709,-0.05226c0.03307,0 0.05049,-0.01808 0.05049,-0.05226c0,-0.03425 0.01742,-0.05226 0.05041,-0.05226c0.0324,0 0.05344,-0.02104 0.05875,-0.05883c0.00539,-0.03779 0.02938,-0.06178 0.06717,-0.06709c0.03779,-0.00539 0.05875,-0.02642 0.05875,-0.05883c0,-0.03299 0.01808,-0.05041 0.05226,-0.05041c0.03484,0 0.05226,-0.01742 0.05226,-0.05226c0,-0.03425 0.01742,-0.05226 0.05049,-0.05226c0.0324,0 0.05344,-0.02104 0.05875,-0.05883c0.00539,-0.03772 0.02938,-0.0617 0.06717,-0.06709c0.03233,-0.00458 0.05875,-0.02554 0.05875,-0.04657c0,-0.02096 0.02059,-0.04554 0.04576,-0.05462c0.0251,-0.009 0.06672,-0.03801 0.09241,-0.06451c0.02576,-0.02642 0.08075,-0.04805 0.1223,-0.04805c0.05846,0 0.07743,-0.01329 0.08392,-0.05875c0.00686,-0.0482 0.02487,-0.05883 0.09979,-0.05883c0.07492,0 0.09293,0.01063 0.09979,0.05883c0.00539,0.03779 0.02635,0.05875 0.05875,0.05875c0.03307,0 0.05049,0.01808 0.05049,0.05226c0,0.03831 0.01742,0.05226 0.06532,0.05226c0.0479,0 0.06532,0.01395 0.06532,0.05226c0,0.03484 0.01742,0.05226 0.05226,0.05226c0.03831,0 0.05226,0.01742 0.05226,0.06532c0,0.0479 0.01388,0.06532 0.05226,0.06532c0.03484,0 0.05226,0.01742 0.05226,0.05226c0,0.04835 0.01742,0.05226 0.23206,0.05226c0.21014,0 0.23339,-0.00495 0.24579,-0.05226c0.00753,-0.02871 0.03093,-0.05226 0.05196,-0.05226c0.02709,0 0.04215,-0.03986 0.05137,-0.1361c0.00967,-0.1006 0.0276,-0.14577 0.06864,-0.17301c0.05528,-0.03668 0.05558,-0.04318 0.05558,-1.18332v-1.14641h-0.46817c-0.25745,0 -0.4867,-0.00716 -0.50943,-0.01587c-0.03631,-0.01395 -0.04133,-0.10304 -0.04133,-0.7316v-0.71566h0.11448c0.09256,0 0.11721,-0.01004 0.12821,-0.05226zM30.81519,16.61908c0.01284,-0.0493 0.03565,-0.05226 0.39496,-0.05226h0.3813v1.2541h1.01894v1.33248h-1.12346v0.29465c0,0.26232 0.00576,0.29959 0.05226,0.33938c0.0451,0.0386 0.05226,0.07706 0.05226,0.28018v0.23538h0.1829c0.16548,0 0.1829,-0.00495 0.1829,-0.05226c0,-0.04347 0.01742,-0.05226 0.10355,-0.05226c0.07787,0 0.11071,-0.01336 0.13241,-0.05381c0.04967,-0.09293 0.16386,-0.05831 0.19272,0.05838c0.01439,0.05816 0.04266,0.10097 0.07182,0.10857c0.0369,0.00967 0.04812,0.03764 0.04812,0.11957c0,0.08953 0.00849,0.10695 0.05226,0.10695c0.04443,0 0.05226,0.01742 0.05226,0.11573c0,0.10016 0.0079,0.11691 0.05883,0.12415c0.04753,0.00672 0.0603,0.02753 0.06702,0.10916c0.00605,0.07359 0.022,0.10451 0.05883,0.11411c0.03897,0.01019 0.05049,0.03639 0.05049,0.1147c0,0.07167 0.01122,0.10141 0.03823,0.10141c0.13965,0 0.0989,0.2886 -0.04584,0.32469c-0.06754,0.0169 -0.09691,0.03868 -0.09691,0.07189c0,0.03336 -0.01949,0.04761 -0.06532,0.04761c-0.0479,0 -0.06532,0.01395 -0.06532,0.05226c0,0.04355 -0.01742,0.05226 -0.10451,0.05226c-0.09403,0 -0.10451,0.00657 -0.10451,0.06532c0,0.0544 -0.01247,0.06532 -0.07433,0.06532c-0.04111,0 -0.09544,0.02332 -0.12164,0.05226c-0.03344,0.03698 -0.08045,0.05226 -0.16076,0.05226c-0.09396,0 -0.11352,0.00849 -0.11352,0.04945c0,0.0761 -0.04148,0.08119 -0.66628,0.08119c-0.6248,0 -0.66628,-0.00509 -0.66628,-0.08119c0,-0.03698 -0.01882,-0.04945 -0.07455,-0.04945c-0.04333,0 -0.10407,-0.02738 -0.14504,-0.06532c-0.03875,-0.03595 -0.0806,-0.06532 -0.09293,-0.06532c-0.0124,0 -0.03048,-0.04702 -0.04015,-0.10451c-0.01343,-0.07935 -0.02975,-0.10451 -0.06761,-0.10451c-0.03565,0 -0.04997,-0.01838 -0.04997,-0.06399c0,-0.03521 -0.0203,-0.07543 -0.0451,-0.08931c-0.03491,-0.01949 -0.04739,-0.06975 -0.05506,-0.22187c-0.00893,-0.17751 -0.01543,-0.19751 -0.06591,-0.20467c-0.05595,-0.00797 -0.05602,-0.00893 -0.06289,-0.96816l-0.00686,-0.96019h-0.27398c-0.22615,0 -0.27406,-0.00686 -0.27406,-0.03919c0,-0.02155 -0.02458,-0.06385 -0.05469,-0.09389c-0.06119,-0.06119 -0.05204,-0.20925 0.01771,-0.28705c0.02879,-0.03203 0.03698,-0.13802 0.03698,-0.47681v-0.43555h0.10333c0.07536,0 0.12097,-0.01771 0.16865,-0.06532c0.04812,-0.0482 0.09307,-0.06532 0.17102,-0.06532h0.1057v-0.34432c0,-0.34823 0.03166,-0.51792 0.09669,-0.51792c0.01867,0 0.03395,-0.01174 0.03395,-0.02613c0,-0.01432 0.02214,-0.02613 0.04923,-0.02613c0.02724,0 0.05528,-0.02332 0.06281,-0.05226c0.01277,-0.04871 0.03565,-0.05226 0.33967,-0.05226c0.30402,0 0.3269,-0.00347 0.33967,-0.05218zM27.82907,17.54657c0.01794,-0.02155 0.07086,-0.03919 0.11758,-0.03919c0.0468,0 0.09972,0.01764 0.11758,0.03919c0.02657,0.03196 0.11345,0.03919 0.47349,0.03919h0.44101v0.75249c0,0.5504 -0.00841,0.76083 -0.03137,0.78378c-0.02229,0.02229 -0.20541,0.0327 -0.63358,0.03595c-0.33126,0.00251 -0.55099,0.00908 -0.48832,0.01469c0.08569,0.0076 0.11721,0.02266 0.12717,0.06075c0.00974,0.03742 0.03609,0.05063 0.10134,0.05063c0.05993,0 0.09868,0.01675 0.12083,0.05226c0.01794,0.02871 0.05336,0.05226 0.07861,0.05226c0.03166,0 0.04598,0.02037 0.04598,0.06532c0,0.05705 0.01137,0.06532 0.09056,0.06532c0.06266,0 0.09876,0.0155 0.1175,0.05049c0.01484,0.02775 0.05056,0.05794 0.07927,0.06702c0.02879,0.00915 0.05233,0.03794 0.05233,0.06407c0,0.02613 0.02273,0.05336 0.05049,0.06067c0.03329,0.00871 0.05661,0.04547 0.06827,0.10754c0.01292,0.06886 0.031,0.09433 0.06702,0.09433c0.04104,0 0.04938,0.01978 0.04938,0.11758c0,0.10016 0.00775,0.11758 0.05226,0.11758c0.05063,0 0.05226,0.01742 0.05226,0.56176c0,0.54427 -0.00162,0.56169 -0.05226,0.56169c-0.04377,0 -0.05226,0.01742 -0.05226,0.10695c0,0.08326 -0.01107,0.1099 -0.0499,0.12001c-0.02738,0.00716 -0.05565,0.03543 -0.06281,0.06289c-0.0076,0.02901 -0.03595,0.04982 -0.06776,0.04982c-0.03727,0 -0.05469,0.01668 -0.05469,0.05226c0,0.03484 -0.01742,0.05226 -0.05226,0.05226c-0.02879,0 -0.05226,0.01092 -0.05226,0.02428c0,0.04967 -0.08459,0.10636 -0.15862,0.10636c-0.04798,0 -0.07654,0.01358 -0.07654,0.03639c0,0.09344 -1.53568,0.10909 -1.56004,0.01587c-0.00886,-0.0338 -0.03565,-0.05226 -0.07595,-0.05226c-0.04488,0 -0.0623,0.01461 -0.0623,0.05226c0,0.05078 -0.01742,0.05226 -0.61395,0.05226h-0.61402v-0.85361c0,-1.05887 -0.0648,-0.94867 0.55926,-0.95082c0.30934,-0.00111 0.45245,-0.00982 0.414,-0.02532c-0.03233,-0.01299 -0.05883,-0.04163 -0.05883,-0.06362c0,-0.02421 -0.0234,-0.04008 -0.05897,-0.04008c-0.03248,0 -0.07374,-0.02347 -0.09167,-0.05226c-0.02059,-0.03292 -0.06097,-0.05226 -0.10909,-0.05226c-0.05196,0 -0.08141,-0.0158 -0.09204,-0.04938c-0.00864,-0.02724 -0.03882,-0.0555 -0.06709,-0.06289c-0.03048,-0.00797 -0.05137,-0.03572 -0.05137,-0.06813c0,-0.03735 -0.01668,-0.05477 -0.05226,-0.05477c-0.03484,0 -0.05226,-0.01742 -0.05226,-0.05226c0,-0.02871 -0.01727,-0.05226 -0.03831,-0.05226c-0.04746,0 -0.09234,-0.08016 -0.09234,-0.16504c0,-0.042 -0.01794,-0.06864 -0.05226,-0.07765c-0.07868,-0.02059 -0.08163,-1.14464 -0.0031,-1.19963c0.02701,-0.0189 0.05359,-0.05779 0.05905,-0.08636c0.00568,-0.02989 0.03476,-0.0555 0.06842,-0.06038c0.0375,-0.00531 0.05853,-0.02642 0.05853,-0.05875c0,-0.03299 0.01801,-0.05041 0.05226,-0.05041c0.03484,0 0.05226,-0.01742 0.05226,-0.05226c0,-0.03831 0.01742,-0.05226 0.06532,-0.05226c0.04111,0 0.06532,-0.01476 0.06532,-0.03986c0,-0.04451 0.10068,-0.09079 0.19744,-0.09079c0.03506,0 0.07794,-0.02332 0.09603,-0.05226c0.03137,-0.05034 0.06089,-0.05226 0.7939,-0.05226c0.6448,0 0.76622,-0.00598 0.79375,-0.03919zM20.1669,17.70592c0.01055,-0.01055 0.42588,-0.0155 0.92292,-0.01092l0.9038,0.00834l0.19161,0.13064l0.00022,0.92461c0.00015,0.85036 0.00384,0.92734 0.04591,0.95805c0.03587,0.02628 0.04768,0.08149 0.05491,0.25767c0.00819,0.19951 0.01469,0.22416 0.05875,0.22416c0.03137,0 0.0496,0.0183 0.0496,0.04975c0,0.04067 0.02266,0.05137 0.12407,0.05875c0.23501,0.0172 0.34624,-0.0014 0.34624,-0.05772c0,-0.0279 0.02177,-0.07255 0.04835,-0.09913c0.03358,-0.03358 0.0527,-0.102 0.06244,-0.22386c0.01041,-0.12924 0.02864,-0.19102 0.06923,-0.2342c0.04465,-0.04753 0.05514,-0.09167 0.05514,-0.2325v-0.17375l-0.28092,-0.00745l-0.28085,-0.00738l-0.01388,-1.45006h0.27708c0.25582,0 0.28077,-0.0045 0.32469,-0.05883c0.0468,-0.05787 0.05779,-0.0589 0.74223,-0.0665l0.69477,-0.00775v2.74579h0.10695c0.08414,0 0.10975,0.01085 0.12031,0.05108c0.01107,0.04251 0.04015,0.05233 0.1739,0.05875l0.16054,0.00775l0.01388,1.45006h-1.6991v-0.11758c0,-0.10798 -0.00531,-0.11758 -0.06532,-0.11758c-0.03993,0 -0.06532,0.01484 -0.06532,0.03831c0,0.04812 -0.08045,0.09234 -0.16806,0.09234c-0.0369,0 -0.09056,0.02355 -0.11928,0.05226c-0.0496,0.0496 -0.0871,0.05226 -0.7316,0.05226c-0.66185,0 -0.67927,-0.00133 -0.67927,-0.05226c0,-0.04436 -0.01742,-0.05226 -0.11573,-0.05226c-0.09226,0 -0.12607,-0.01321 -0.16703,-0.06532c-0.02827,-0.03595 -0.07617,-0.06532 -0.10643,-0.06532c-0.03757,0 -0.05499,-0.01653 -0.05499,-0.05226c0,-0.03558 -0.01742,-0.05226 -0.05469,-0.05226c-0.03189,0 -0.06015,-0.02081 -0.06776,-0.04982c-0.00716,-0.02746 -0.03543,-0.05573 -0.06289,-0.06289c-0.02783,-0.00731 -0.04982,-0.03587 -0.04982,-0.06466c0,-0.02967 -0.02222,-0.0575 -0.05226,-0.06532c-0.04,-0.01048 -0.05226,-0.03565 -0.05226,-0.10761c0,-0.05159 -0.01092,-0.09389 -0.02428,-0.09389c-0.06148,0 -0.10636,-0.0882 -0.10636,-0.2091c0,-0.10407 -0.00945,-0.12998 -0.05226,-0.14356c-0.05085,-0.01616 -0.05226,-0.03956 -0.05226,-0.86276v-0.84608l-0.16327,-0.00782l-0.16334,-0.00775l-0.0079,-0.09529c-0.00576,-0.0685 -0.02229,-0.09905 -0.05883,-0.10865c-0.0527,-0.01373 -0.08267,-1.17948 -0.03159,-1.23048zM27.52365,18.86791c-0.0234,-0.08946 -0.2432,-0.07942 -0.2432,0.01115c0,0.04886 0.01373,0.06532 0.05469,0.06532c0.03181,0 0.06015,0.02081 0.06768,0.04982c0.02067,0.07898 0.24335,0.09012 0.24335,0.01218c0,-0.03462 -0.02059,-0.06134 -0.05418,-0.07005c-0.02982,-0.00782 -0.06052,-0.0386 -0.06835,-0.06842zM26.59505,20.25073c-0.01794,-0.02871 -0.04746,-0.05226 -0.06554,-0.05226c-0.01808,0 -0.03292,0.02355 -0.03292,0.05226c0,0.03484 0.01742,0.05226 0.05226,0.05226c0.04451,0 0.05226,0.01742 0.05226,0.11758c0,0.10016 0.00775,0.11758 0.05226,0.11758c0.03395,0 0.05226,0.01742 0.05226,0.0496c0,0.05167 0.16991,0.08466 0.30697,0.05956c0.12909,-0.02362 0.02901,-0.23981 -0.11101,-0.23981c-0.0479,0 -0.06532,-0.01395 -0.06532,-0.05226c0,-0.04355 -0.01742,-0.05226 -0.10429,-0.05226c-0.07595,0 -0.11315,-0.01417 -0.13692,-0.05226zM15.95702,25.8049c0.0276,-0.07182 1.18568,-0.06126 1.20457,0.01092c0.01107,0.04222 0.03565,0.05226 0.12821,0.05226c0.10474,0 0.11448,0.00561 0.11448,0.06532c0,0.0479 0.01395,0.06532 0.05226,0.06532c0.05078,0 0.05226,0.01742 0.05226,0.60339c0,0.5814 -0.00185,0.60384 -0.05226,0.61705c-0.04967,0.01299 -0.05226,0.03565 -0.05226,0.46781v0.45422h-0.1175c-0.10016,0 -0.11758,0.00775 -0.11758,0.05226c0,0.05019 -0.01742,0.05226 -0.44116,0.05226c-0.41407,0 -0.4419,0.0031 -0.4543,0.05049c-0.03727,0.14253 -0.33259,0.09721 -0.33259,-0.051c0,-0.08658 -0.00871,-0.104 -0.05226,-0.104c-0.04451,0 -0.05226,-0.01742 -0.05226,-0.11758c0,-0.10798 -0.00531,-0.11758 -0.06525,-0.11758c-0.04716,0 -0.06532,-0.01402 -0.06532,-0.05049c0,-0.02775 -0.02355,-0.05794 -0.05226,-0.06709c-0.02879,-0.00915 -0.05226,-0.03203 -0.05226,-0.051c0,-0.0189 -0.02443,-0.04074 -0.05425,-0.04849c-0.02975,-0.00782 -0.06052,-0.0386 -0.06835,-0.06842c-0.02207,-0.08444 -0.58287,-0.084 -0.58287,0.00052c0,0.03277 -0.02096,0.06023 -0.05226,0.06835c-0.02893,0.0076 -0.05226,0.03565 -0.05226,0.06289c0,0.0313 -0.01845,0.04923 -0.05071,0.04923c-0.04104,0 -0.05233,0.02126 -0.05883,0.11101c-0.00657,0.09101 -0.01823,0.11256 -0.06473,0.11913c-0.10392,0.01484 -0.10378,1.22782 0.00007,1.27344c0.0375,0.01646 0.05934,0.05263 0.06466,0.1071c0.00531,0.05536 0.02458,0.08658 0.05875,0.09558c0.02989,0.00775 0.05078,0.03572 0.05078,0.06798c0,0.03727 0.01668,0.05469 0.05226,0.05469c0.03484,0 0.05226,0.01742 0.05226,0.05226c0,0.03558 0.01742,0.05226 0.05469,0.05226c0.03277,0 0.06023,0.02096 0.06835,0.05226c0.0234,0.08924 0.64473,0.0868 0.70754,-0.00288c0.02251,-0.03218 0.06591,-0.04938 0.12459,-0.04938c0.07248,0 0.0899,-0.01011 0.0899,-0.05226c0,-0.03425 0.01742,-0.05226 0.05049,-0.05226c0.0324,0 0.05344,-0.02104 0.05875,-0.05883c0.00539,-0.03779 0.02938,-0.06178 0.06717,-0.06709c0.03779,-0.00539 0.05875,-0.02642 0.05875,-0.05883c0,-0.04421 0.01934,-0.05041 0.15677,-0.05041c0.13751,0 0.15677,0.0062 0.15677,0.05041c0,0.0324 0.02104,0.05344 0.05883,0.05883c0.03772,0.00531 0.0617,0.0293 0.06709,0.06709c0.00539,0.03779 0.02635,0.05883 0.05883,0.05883c0.03299,0 0.05041,0.01801 0.05041,0.05226c0,0.03484 0.01742,0.05226 0.05226,0.05226c0.03417,0 0.05226,0.01742 0.05226,0.05041c0,0.0324 0.02096,0.05344 0.05875,0.05875c0.03779,0.00539 0.06178,0.02938 0.06717,0.06717c0.00539,0.03779 0.02635,0.05875 0.05875,0.05875c0.03307,0 0.05049,0.01808 0.05049,0.05226c0,0.03041 0.01742,0.05226 0.04155,0.05226c0.04333,0 0.14009,0.06695 0.27376,0.18947c0.0431,0.03949 0.08975,0.07182 0.10363,0.07182c0.04982,0 0.02775,0.20733 -0.02709,0.25427c-0.02871,0.02465 -0.05226,0.07152 -0.05226,0.10429c0,0.04207 -0.01528,0.05949 -0.05226,0.05949c-0.03093,0 -0.05226,0.01742 -0.05226,0.04274c0,0.02347 -0.02938,0.06997 -0.06525,0.10326c-0.03595,0.03329 -0.06532,0.0758 -0.06532,0.0944c0,0.0468 -0.18032,0.18777 -0.26077,0.20394c-0.0431,0.00864 -0.06872,0.03344 -0.07418,0.07182c-0.00517,0.03617 -0.02657,0.05868 -0.05573,0.05868c-0.02613,0 -0.05359,0.02347 -0.06111,0.05226c-0.01085,0.04148 -0.03565,0.05218 -0.1206,0.05218c-0.08953,0 -0.10695,0.00856 -0.10695,0.05226c0,0.04443 -0.01742,0.05226 -0.11625,0.05226c-0.08776,0 -0.13345,0.01602 -0.18666,0.06532l-0.07049,0.06532h-0.72562c-0.7702,0 -0.80829,-0.00376 -0.80829,-0.08112c0,-0.04347 -0.02059,-0.04953 -0.16984,-0.04953c-0.15234,0 -0.16976,-0.00531 -0.16976,-0.05226c0,-0.04222 -0.01742,-0.05226 -0.09123,-0.05226c-0.06296,0 -0.10134,-0.01616 -0.12385,-0.05218c-0.01801,-0.02879 -0.05336,-0.05226 -0.07861,-0.05226c-0.03166,0 -0.04598,-0.02045 -0.04598,-0.06532c0,-0.05905 -0.01033,-0.06532 -0.10695,-0.06532c-0.08326,0 -0.10983,-0.01107 -0.12001,-0.0499c-0.00716,-0.02738 -0.03543,-0.05565 -0.06289,-0.06281c-0.02738,-0.00723 -0.04982,-0.031 -0.04982,-0.05292c0,-0.02192 -0.02288,-0.04716 -0.05093,-0.05602c-0.02797,-0.00893 -0.05779,-0.03786 -0.06621,-0.06429c-0.00834,-0.02642 -0.03838,-0.05418 -0.06665,-0.06156c-0.03432,-0.009 -0.05137,-0.0358 -0.05137,-0.08097c0,-0.03927 -0.02185,-0.08119 -0.05226,-0.10016c-0.02871,-0.01794 -0.05226,-0.05838 -0.05226,-0.08983c0,-0.03949 -0.01823,-0.05986 -0.05875,-0.06562c-0.04687,-0.00664 -0.06045,-0.02768 -0.06672,-0.10363c-0.00576,-0.06842 -0.02229,-0.09905 -0.05883,-0.10857c-0.03964,-0.01041 -0.05085,-0.03624 -0.05085,-0.11721c0,-0.08193 -0.011,-0.1068 -0.05226,-0.11758c-0.04473,-0.01174 -0.05226,-0.03565 -0.05226,-0.16666c0,-0.13367 -0.00738,-0.15633 -0.05875,-0.17884l-0.05875,-0.02576v-1.9857l0.05875,-0.00834c0.05491,-0.00782 0.05875,-0.02104 0.05875,-0.20224c0,-0.16563 0.00768,-0.1987 0.05226,-0.2266c0.03757,-0.02347 0.05226,-0.06089 0.05226,-0.1333c0,-0.07868 0.01144,-0.10363 0.05226,-0.11433c0.03668,-0.0096 0.05226,-0.03565 0.05226,-0.0871c0,-0.07152 0.0575,-0.15559 0.10643,-0.15559c0.01329,0 0.02421,-0.02355 0.02421,-0.05226c0,-0.03484 0.01742,-0.05226 0.05226,-0.05226c0.03831,0 0.05226,-0.01742 0.05226,-0.06532c0,-0.04657 0.01417,-0.06532 0.04923,-0.06532c0.02724,0 0.05528,-0.02332 0.06289,-0.05226c0.00812,-0.0313 0.03565,-0.05226 0.06835,-0.05226c0.03727,0 0.05469,-0.01668 0.05469,-0.05226c0,-0.03425 0.01742,-0.05226 0.05041,-0.05226c0.03248,0 0.05344,-0.02104 0.05883,-0.05883c0.00524,-0.03676 0.0293,-0.06178 0.06444,-0.06672c0.03093,-0.00443 0.06215,-0.03085 0.06945,-0.05883c0.00989,-0.03801 0.03609,-0.05078 0.10407,-0.05078c0.06886,0 0.09418,-0.01262 0.10451,-0.05226c0.01122,-0.04288 0.03565,-0.05226 0.13647,-0.05226c0.10009,0 0.13234,-0.01218 0.17449,-0.06576l0.05174,-0.06576l0.6575,0.00701l0.6575,0.00694l0.00834,0.05883c0.01461,0.10296 0.23981,0.08658 0.23981,-0.01749c0,-0.04192 0.00716,-0.09485 0.01587,-0.11758zM27.98585,26.8871v-1.12353h2.24699v4.41396l0.66621,0.01461l0.00701,0.67277l0.00694,0.67277h-0.0575c-0.03166,0 -0.08569,0.0265 -0.12009,0.05883c-0.06237,0.0586 -0.06547,0.05875 -0.95539,0.05875h-0.89273l-0.00805,-0.0561c-0.01365,-0.09573 -0.34469,-0.10466 -0.34469,-0.00937c0,0.07278 -0.04606,0.07853 -0.62591,0.07853c-0.60738,0 -0.69802,-0.01026 -0.72068,-0.08149c-0.01218,-0.03838 -0.04096,-0.04916 -0.13138,-0.04916c-0.09839,0 -0.11581,-0.00782 -0.11581,-0.05226c0,-0.04355 -0.01742,-0.05226 -0.10451,-0.05226c-0.0871,0 -0.10451,-0.00864 -0.10451,-0.05218c0,-0.03454 -0.01742,-0.05226 -0.0513,-0.05226c-0.02827,0 -0.06392,-0.0234 -0.0792,-0.05204c-0.01528,-0.02856 -0.06311,-0.07019 -0.10629,-0.09256c-0.05085,-0.02628 -0.08385,-0.06731 -0.09366,-0.1164c-0.01026,-0.05137 -0.03314,-0.07839 -0.071,-0.08377c-0.03476,-0.00502 -0.0589,-0.03011 -0.06414,-0.0668c-0.00531,-0.03772 -0.02635,-0.05875 -0.05875,-0.05875c-0.04119,0 -0.05049,-0.01867 -0.05049,-0.10149c0,-0.07949 -0.01129,-0.10437 -0.05218,-0.11514c-0.04178,-0.01085 -0.05226,-0.03558 -0.05226,-0.12304c0,-0.08532 -0.01092,-0.11226 -0.04945,-0.1223c-0.07433,-0.01941 -0.08119,-0.10023 -0.08119,-0.9489c0,-0.85523 0.00738,-0.94063 0.08163,-0.94063c0.0406,0 0.04901,-0.02 0.04901,-0.1175c0,-0.08274 0.01543,-0.13308 0.05226,-0.16984c0.02871,-0.02879 0.05218,-0.08171 0.05218,-0.11758c0,-0.04694 0.0141,-0.06532 0.04997,-0.06532c0.03786,0 0.05425,-0.0251 0.06746,-0.10341c0.01122,-0.06665 0.03432,-0.1088 0.0648,-0.11846c0.02598,-0.00827 0.05336,-0.03816 0.06075,-0.06643c0.00797,-0.03041 0.03572,-0.05137 0.06813,-0.05137c0.03011,0 0.05469,-0.01572 0.05469,-0.03499c0,-0.03661 0.1057,-0.09566 0.17109,-0.09566c0.02089,0 0.03794,-0.02347 0.03794,-0.05226c0,-0.04429 0.01742,-0.05226 0.11455,-0.05226c0.09256,0 0.11714,-0.01004 0.12821,-0.05226c0.02045,-0.07831 1.43161,-0.082 1.48667,-0.00384c0.01882,0.02665 0.07241,0.05403 0.11905,0.06082l0.08495,0.0124v-0.48736h-0.16984c-0.15242,0 -0.16984,-0.00539 -0.16984,-0.05226c0,-0.04694 -0.01742,-0.05226 -0.16984,-0.05226zM19.1363,27.17444c0.02259,-0.08636 0.40189,-0.07809 0.43526,0.00952c0.01292,0.03395 0.042,0.06886 0.06466,0.07757c0.0265,0.01019 0.04119,0.04798 0.04119,0.10629c0,0.06658 0.01336,0.09477 0.05056,0.10658c0.02783,0.00886 0.05587,0.03609 0.0623,0.06052c0.00841,0.03203 0.01255,0.02797 0.01476,-0.01425c0.00258,-0.05041 0.01757,-0.05883 0.10444,-0.05883c0.07949,0 0.10444,-0.01129 0.11514,-0.05226c0.01321,-0.05041 0.03565,-0.05226 0.63011,-0.05226c0.59904,0 0.61646,0.00148 0.61646,0.05226c0,0.04377 0.01742,0.05226 0.10695,0.05226c0.084,0 0.10983,0.01092 0.12024,0.05085c0.00952,0.03654 0.04015,0.05307 0.10857,0.05875c0.07602,0.00635 0.09699,0.01993 0.1037,0.0668c0.00598,0.04251 0.02583,0.05875 0.07182,0.05875c0.04606,0 0.06348,0.01432 0.06348,0.05226c0,0.03484 0.01742,0.05226 0.05226,0.05226c0.0482,0 0.05226,0.01742 0.05226,0.22209c0,0.19958 -0.00495,0.22209 -0.04886,0.22209c-0.03713,0 -0.05307,0.02591 -0.06606,0.1071c-0.01218,0.0761 -0.03211,0.11108 -0.06864,0.12068c-0.02834,0.00738 -0.05152,0.03558 -0.05152,0.06266c0,0.03174 -0.01853,0.04916 -0.05226,0.04916c-0.03565,0 -0.05226,0.01742 -0.05226,0.05477c0,0.0327 -0.02104,0.06015 -0.05226,0.06835c-0.02879,0.00753 -0.05226,0.03152 -0.05226,0.05329c0,0.02185 -0.02945,0.06695 -0.06532,0.10023c-0.03595,0.03329 -0.06532,0.07986 -0.06532,0.10341c0,0.02362 -0.02288,0.04886 -0.05078,0.05617c-0.02797,0.00731 -0.0544,0.03853 -0.05883,0.06945c-0.01159,0.08134 -0.35133,0.0995 -0.414,0.02207c-0.02222,-0.02738 -0.06628,-0.06362 -0.09802,-0.0806c-0.03174,-0.01698 -0.05772,-0.04812 -0.05772,-0.06916c0,-0.0665 -0.43548,-0.05447 -0.45681,0.01262c-0.00886,0.02797 -0.03905,0.05816 -0.06709,0.06709c-0.02797,0.00886 -0.05085,0.0389 -0.05085,0.06665c0,0.03307 -0.01808,0.05049 -0.05226,0.05049c-0.04731,0 -0.05226,0.01742 -0.05226,0.1829c0,0.14459 -0.01041,0.19323 -0.04945,0.23235c-0.04591,0.04584 -0.04635,0.05255 -0.00657,0.09234c0.03218,0.03211 0.04517,0.10429 0.05189,0.28778c0.0079,0.21471 0.01513,0.24652 0.05883,0.25796c0.02738,0.00716 0.04982,0.03174 0.04982,0.05462c0,0.03558 0.04185,0.04163 0.28734,0.04163h0.28741v1.22797h-2.82174v-1.22797h0.5487v-1.72441h-0.5487v-0.35613c0,-0.33296 -0.00369,-0.35945 -0.05669,-0.40536c-0.09278,-0.08053 -0.10031,-0.31185 -0.01292,-0.39924c0.06185,-0.06185 0.08532,-0.06724 0.29325,-0.06724c0.20298,0 0.23398,-0.00664 0.30365,-0.06532c0.07359,-0.06193 0.09433,-0.06532 0.39916,-0.06532c0.29959,0 0.32247,-0.00354 0.33524,-0.05226zM23.2503,27.25467c0.02886,-0.01698 0.29568,-0.02465 0.72503,-0.02089l0.67934,0.00598l0.00834,0.05883c0.00738,0.05189 0.0234,0.05875 0.13743,0.05875c0.09669,0 0.14024,0.01314 0.17375,0.05226c0.02465,0.02879 0.0668,0.05226 0.09366,0.05226c0.02687,0 0.05477,0.02244 0.06193,0.04982c0.00841,0.03211 0.04561,0.05587 0.10496,0.06702c0.05986,0.01122 0.09654,0.03484 0.10518,0.06776c0.00723,0.02783 0.03454,0.05056 0.0606,0.05056c0.02613,0 0.05455,0.02222 0.06318,0.04945c0.00864,0.02716 0.03882,0.05543 0.06709,0.06289c0.03041,0.0079 0.05137,0.03572 0.05137,0.06813c0,0.03727 0.01661,0.05469 0.05226,0.05469c0.0434,0 0.05226,0.01742 0.05226,0.10267c0,0.08665 0.00923,0.104 0.05875,0.11108c0.04886,0.00694 0.06015,0.02709 0.06687,0.11935c0.0065,0.08975 0.01771,0.11108 0.05875,0.11108c0.07145,0 0.07041,0.17692 -0.00148,0.26837c-0.03905,0.0496 -0.05226,0.10599 -0.05226,0.22261c0,0.13773 -0.00775,0.1612 -0.06532,0.19899c-0.0592,0.03875 -0.06532,0.05964 -0.06532,0.22224c0,0.19058 -0.01402,0.21124 -0.14282,0.21124c-0.03816,0 -0.0651,0.01904 -0.07381,0.05226c-0.01078,0.04133 -0.03558,0.05226 -0.11876,0.05226c-0.08916,0 -0.10643,0.00893 -0.11352,0.05875c-0.00642,0.04525 -0.02812,0.06067 -0.09411,0.06702c-0.04975,0.0048 -0.09898,0.02952 -0.11728,0.05883c-0.01742,0.02775 -0.05152,0.05056 -0.0758,0.05056c-0.02428,0 -0.05167,0.02347 -0.06082,0.05218c-0.01129,0.0358 -0.0482,0.05728 -0.11706,0.06827c-0.06805,0.01092 -0.10459,0.03203 -0.11337,0.0654c-0.00945,0.03631 -0.03668,0.04923 -0.1037,0.04923c-0.06658,0 -0.09425,0.01299 -0.10355,0.04857c-0.01159,0.04443 0.01196,0.05004 0.27716,0.06613c0.20822,0.01262 0.30838,0.03026 0.35584,0.06252c0.0431,0.0293 0.13854,0.04945 0.27501,0.05794l0.20903,0.01306l0.00782,0.1361c0.00664,0.11396 -0.00081,0.14157 -0.04569,0.16961c-0.0496,0.031 -0.05359,0.0589 -0.05359,0.37776c0,0.38041 -0.00886,0.42691 -0.08119,0.42691c-0.04104,0 -0.04945,0.01963 -0.04945,0.11573c0,0.19766 -0.05979,0.22394 -0.50892,0.22394c-0.33812,0 -0.37554,-0.00465 -0.41857,-0.05226c-0.04141,-0.04576 -0.08053,-0.05226 -0.31436,-0.05226c-0.33901,0 -0.43031,-0.01727 -0.43031,-0.08163c0,-0.04281 -0.02111,-0.04901 -0.16674,-0.04901c-0.14481,0 -0.16858,-0.00686 -0.18046,-0.05226c-0.01085,-0.04148 -0.03565,-0.05226 -0.1206,-0.05226c-0.08953,0 -0.10695,-0.00849 -0.10695,-0.05218c0,-0.04037 -0.01742,-0.05226 -0.07625,-0.05226c-0.11027,0 -0.15891,-0.02487 -0.15891,-0.08119c0,-0.03203 -0.01845,-0.04945 -0.05226,-0.04945c-0.03484,0 -0.05226,-0.01742 -0.05226,-0.05226c0,-0.03868 -0.01742,-0.05226 -0.06702,-0.05226c-0.08555,0 -0.16814,-0.04392 -0.16814,-0.08931c0,-0.01941 -0.02355,-0.04141 -0.05226,-0.04894c-0.03004,-0.00782 -0.05226,-0.03565 -0.05226,-0.06532c0,-0.02975 -0.02222,-0.05742 -0.0524,-0.06532c-0.0324,-0.00849 -0.05846,-0.04377 -0.06813,-0.09219c-0.0093,-0.04643 -0.03587,-0.08377 -0.06517,-0.09138c-0.02864,-0.00753 -0.04945,-0.03595 -0.04945,-0.06768c0,-0.03004 -0.02347,-0.07816 -0.05226,-0.10695c-0.03654,-0.03654 -0.05226,-0.0871 -0.05226,-0.16799c0,-0.10016 -0.0079,-0.11691 -0.05875,-0.12415l-0.05883,-0.00834l-0.00731,-0.77072c-0.00797,-0.84172 -0.00413,-0.88837 0.07315,-0.88837c0.04392,0 0.05174,-0.01779 0.05174,-0.1175c0,-0.10016 0.00775,-0.11758 0.05226,-0.11758c0.04451,0 0.05226,-0.01742 0.05226,-0.11758c0,-0.10016 0.00775,-0.11758 0.05226,-0.11758c0.03528,0 0.05226,-0.01742 0.05226,-0.05351c0,-0.02945 0.02938,-0.08075 0.06532,-0.11404c0.03595,-0.03329 0.06532,-0.07898 0.06532,-0.10149c0,-0.02259 0.02391,-0.04857 0.05307,-0.05787c0.02923,-0.00923 0.08163,-0.04532 0.1164,-0.08008c0.03484,-0.03484 0.08739,-0.06333 0.11677,-0.06333c0.03602,0 0.05344,-0.01705 0.05344,-0.05226c0,-0.0406 0.01742,-0.05226 0.07816,-0.05226c0.04982,0 0.08997,-0.0189 0.11079,-0.05226c0.02436,-0.03897 0.06089,-0.05226 0.14393,-0.05226c0.07979,0 0.11123,-0.0107 0.11123,-0.03786c0,-0.02081 0.02059,-0.04997 0.04576,-0.0648zM32.30445,27.4096c0.02067,-0.07912 1.65149,-0.0823 1.67659,-0.00325c0.01174,0.03698 0.04842,0.05218 0.14983,0.06193c0.07691,0.00738 0.14666,0.02982 0.16327,0.05248c0.01587,0.0217 0.05211,0.04399 0.08053,0.04938c0.02864,0.00546 0.05514,0.03469 0.05956,0.06576c0.00583,0.04052 0.0327,0.06045 0.09802,0.0727c0.04945,0.0093 0.08997,0.02783 0.08997,0.04119c0,0.01336 0.03528,0.04251 0.07839,0.0648c0.0431,0.02229 0.07839,0.05787 0.07839,0.07905c0,0.02118 0.02347,0.062 0.05226,0.09079c0.02871,0.02871 0.05226,0.07573 0.05226,0.10451c0,0.0338 0.01742,0.05226 0.04945,0.05226c0.05632,0 0.08112,0.04864 0.08112,0.15891c0,0.05883 0.01196,0.07625 0.05226,0.07625c0.04458,0 0.05226,0.01742 0.05226,0.1175c0,0.08311 0.0107,0.11758 0.03646,0.11758c0.09352,0 0.1085,1.65791 0.0158,1.75054c-0.03521,0.03528 -0.05226,0.0871 -0.05226,0.15921c0,0.084 -0.01085,0.10983 -0.05078,0.12024c-0.03654,0.0096 -0.05307,0.04015 -0.05883,0.10865c-0.00635,0.07595 -0.01985,0.09699 -0.06672,0.10363c-0.04052,0.00576 -0.05875,0.02613 -0.05875,0.06554c0,0.03152 -0.02266,0.07137 -0.05034,0.08865c-0.02768,0.01727 -0.0541,0.05713 -0.05875,0.08857c-0.00472,0.03137 -0.03063,0.07005 -0.05772,0.08591c-0.02709,0.0158 -0.07647,0.05521 -0.10983,0.08754c-0.03336,0.03233 -0.08473,0.05883 -0.11411,0.05883c-0.03602,0 -0.05344,0.01698 -0.05344,0.05226c0,0.03757 -0.01742,0.05218 -0.0623,0.05218c-0.0403,0 -0.06709,0.01845 -0.07595,0.05226c-0.01159,0.04443 -0.03558,0.05226 -0.1598,0.05226c-0.12599,0 -0.14614,0.00686 -0.14614,0.04953c0,0.07743 -0.03772,0.08112 -0.82342,0.08112c-0.73965,0 -0.87487,-0.01402 -0.87487,-0.09079c0,-0.0296 -0.02915,-0.03986 -0.11352,-0.03986c-0.0803,0 -0.12732,-0.01528 -0.16076,-0.05226c-0.02605,-0.02871 -0.07602,-0.05226 -0.11101,-0.05226c-0.04074,0 -0.06842,-0.01794 -0.07676,-0.04975c-0.00841,-0.03211 -0.04561,-0.05595 -0.10496,-0.06709c-0.05993,-0.01122 -0.09654,-0.03484 -0.10518,-0.06776c-0.00723,-0.02775 -0.03535,-0.05049 -0.06237,-0.05049c-0.02709,0 -0.04923,-0.01742 -0.04923,-0.0386c0,-0.02126 -0.02938,-0.05787 -0.06532,-0.08141c-0.04842,-0.03166 -0.06532,-0.06569 -0.06532,-0.13123c0,-0.071 -0.01026,-0.08842 -0.05226,-0.08842c-0.0344,0 -0.05226,-0.01742 -0.05226,-0.05108c0,-0.02812 -0.02938,-0.08045 -0.06532,-0.1164c-0.04775,-0.04775 -0.06532,-0.09322 -0.06532,-0.16925c0,-0.08097 -0.01151,-0.10761 -0.05226,-0.12053c-0.05085,-0.01616 -0.05226,-0.03949 -0.05226,-0.90313c0,-0.86918 0.00103,-0.8866 0.05226,-0.8866c0.0434,0 0.05226,-0.01742 0.05226,-0.10274c0,-0.13227 0.04015,-0.23686 0.09079,-0.23686c0.0251,0 0.03986,-0.02421 0.03986,-0.06532c0,-0.0479 0.01395,-0.06532 0.05226,-0.06532c0.04259,0 0.05226,-0.01742 0.05226,-0.09389c0,-0.0699 0.01255,-0.09721 0.04908,-0.10673c0.02694,-0.00709 0.062,-0.04126 0.0778,-0.07595c0.0158,-0.03469 0.04525,-0.06311 0.06547,-0.06311c0.02015,0 0.04288,-0.02355 0.05034,-0.05226c0.01041,-0.03978 0.03565,-0.05226 0.10577,-0.05226c0.07558,0 0.09359,-0.01055 0.10045,-0.05875c0.00583,-0.04148 0.02871,-0.06119 0.07743,-0.0668c0.03801,-0.00443 0.08983,-0.03085 0.11514,-0.05883c0.03166,-0.03506 0.08016,-0.05078 0.1564,-0.05078c0.0885,0 0.11322,-0.01041 0.12415,-0.05226zM24.17779,28.60376c0.03233,-0.0062 -0.04997,-0.01292 -0.1829,-0.01484c-0.20519,-0.00303 -0.24165,0.00273 -0.24165,0.03809c0,0.02288 -0.0231,0.04768 -0.05137,0.05506c-0.02827,0.00738 -0.05846,0.03565 -0.06709,0.06289c-0.00864,0.02716 -0.03255,0.04938 -0.05314,0.04938c-0.0248,0 -0.03742,0.02864 -0.03742,0.0851c0,0.08488 0.00037,0.0851 0.11758,0.0758c0.09551,-0.0076 0.11758,-0.01882 0.11758,-0.05986c0,-0.02768 0.02059,-0.05809 0.04576,-0.06746c0.0251,-0.00937 0.06104,-0.03838 0.07986,-0.06451c0.02163,-0.03004 0.06709,-0.04746 0.12407,-0.04746c0.07145,0 0.08997,-0.01033 0.08997,-0.05041c0,-0.03152 0.022,-0.05469 0.05875,-0.06178zM28.20248,28.87273c-0.03868,-0.14769 -0.47792,-0.04628 -0.47792,0.11035c0,0.0282 -0.01949,0.04643 -0.0496,0.04643c-0.05624,0 -0.07669,0.24534 -0.05883,0.70547c0.00834,0.21442 0.01373,0.23508 0.06126,0.23508c0.0293,0 0.05779,0.02185 0.0651,0.0499c0.00716,0.02738 0.0355,0.05565 0.06289,0.06289c0.02738,0.00716 0.04982,0.03174 0.04982,0.05462c0,0.03248 0.02834,0.04163 0.1285,0.04163c0.15293,0 0.21117,-0.01875 0.21117,-0.06805c0,-0.0214 0.02694,-0.03646 0.06532,-0.03646c0.05698,0 0.06532,-0.01144 0.06532,-0.08968c0,-0.06672 0.01336,-0.09389 0.05226,-0.10621c0.04879,-0.0155 0.05226,-0.03956 0.05226,-0.36455c0,-0.32594 -0.00332,-0.34875 -0.05226,-0.36159c-0.04155,-0.01085 -0.05226,-0.03558 -0.05226,-0.1206c0,-0.09108 -0.00812,-0.10695 -0.05469,-0.10695c-0.0327,0 -0.06023,-0.02096 -0.06835,-0.05226zM33.48444,28.99149c-0.09152,-0.0916 -0.50368,-0.10274 -0.52685,-0.01425c-0.00753,0.02893 -0.03558,0.05226 -0.06281,0.05226c-0.03255,0 -0.04923,0.01853 -0.04923,0.05469c0,0.03174 -0.02081,0.06015 -0.04945,0.06761c-0.09167,0.02399 -0.09226,0.67182 -0.00059,0.6958c0.02923,0.0076 0.05004,0.03587 0.05004,0.06776c0,0.03816 0.01661,0.05469 0.05469,0.05469c0.0327,0 0.06023,0.02104 0.06835,0.05226c0.01897,0.07263 0.58236,0.08185 0.58236,0.0096c0,-0.0234 0.02244,-0.062 0.04975,-0.08577c0.08606,-0.07462 0.08835,-0.77116 0.00251,-0.7936c-0.02871,-0.00745 -0.05226,-0.03181 -0.05226,-0.0541c0,-0.02222 -0.02989,-0.07034 -0.0665,-0.10695zM32.1803,27.46186l0.12415,-0.05226c-0.02517,0.01484 -0.03565,0.05226 -0.12415,0.05226z"
      id="path0 1 1" fill="#ffffff" fill-rule="evenodd" stroke-width="0"></path>
    <path
      d="M2,24c0,-12.15026 9.84974,-22 22,-22c12.15026,0 22,9.84974 22,22c0,12.15026 -9.84974,22 -22,22c-12.15026,0 -22,-9.84974 -22,-22z"
      id="base 1 1 1" fill="none" fill-rule="nonzero" stroke-width="1"></path>
    <g id="svg 1 1" fill="#000000" fill-rule="nonzero" stroke-width="1" font-family="Roboto, sans-serif"
       font-weight="normal" font-size="14" text-anchor="start">
      <g id="svgg 1 1"></g>
    </g>
    <rect x="2" y="2" width="44" height="22" fill="none" fill-rule="nonzero" stroke-width="1"></rect>
    <path d="M2,24v-22h44v22z" fill="none" fill-rule="nonzero" stroke-width="1"></path>
    <path d="M2,24v-22h44v22z" fill="none" fill-rule="nonzero" stroke-width="1"></path>
    <path d="M2,24v-22h44v22z" fill="none" fill-rule="nonzero" stroke-width="1"></path>
    <path d="M2,24v-22h44v22z" fill="none" fill-rule="nonzero" stroke-width="1"></path>
  </g>
</svg>
