<svg xmlns="http://www.w3.org/2000/svg" viewBox="0 0 1563 1042" width="1563" height="1042">
	<defs>
		<clipPath clipPathUnits="userSpaceOnUse" id="cp1">
			<path d="M0 0L1563 0L1563 1042L0 1042Z" />
		</clipPath>
	</defs>
	<style>
		tspan { white-space:pre }
		.shp0 { fill: #ffffff } 
		.shp1 { fill: #d1f0fb } 
		.shp2 { fill: #b0d6ec } 
		.shp3 { fill: #abd8f1 } 
		.shp4 { fill: #a5d6f0 } 
		.shp5 { fill: #b9e2f5 } 
		.shp6 { fill: #d7eefa } 
		.shp7 { fill: #12151b } 
		.shp8 { fill: #369bd5 } 
		.shp9 { fill: #7cc9ec } 
		.shp10 { fill: #142140 } 
		.shp11 { fill: #ffb443 } 
		.shp12 { fill: #ffc555 } 
		.shp13 { fill: #ffd998 } 
		.shp14 { fill: #131a31 } 
		.shp15 { fill: #ffad85 } 
		.shp16 { fill: #fe9272 } 
		.shp17 { fill: #fa6355 } 
		.shp18 { fill: #308fce } 
		.shp19 { fill: #2171b4 } 
		.shp20 { fill: #18285b } 
		.shp21 { fill: #1e2682 } 
		.shp22 { fill: #fd8066 } 
		.shp23 { fill: #1b252b } 
	</style>
	<g id="Page 1" clip-path="url(#cp1)">
		<path id="Path 1" class="shp0" d="M0 1042L1562.5 1042L1562.5 0.33L0 0.33L0 1042Z" />
		<path id="Path 2" class="shp1" d="M1251.1 870.82C1251.1 870.82 1356.35 745.31 1233.56 636.63C1233.56 636.63 1343.82 513.76 1273.65 374.36C1203.49 234.95 1068.16 246.77 960.41 275.12C852.65 303.47 712.32 289.3 604.56 178.25C496.8 67.19 371.5 90.82 323.89 142.8C276.27 194.78 263.75 301.11 316.37 407.44C369 513.76 338.93 582.28 293.82 634.26C248.71 686.24 243.7 830.94 351.46 870.82L1251.1 870.82Z" />
		<path id="Path 3" class="shp2" d="M1088.71 870.82C1130.4 802.36 1142.77 741.56 1105.94 706.79C1065.02 668.18 970.84 726.68 876.9 870.82L1088.71 870.82Z" />
		<path id="Path 4" fill-rule="evenodd" class="shp1" d="M933.7 826.25C933.87 825.16 933.11 824.13 932.02 823.97C930.92 823.8 929.89 824.55 929.73 825.65L923.01 870.82L927.07 870.82L933.7 826.25ZM935.42 870.82C939.43 865.71 943.4 860.76 947.33 856C955.54 857.06 986.9 861.47 1022.11 870.82L1036.95 870.82C999.17 859.61 962.93 854.06 950.36 852.35C965.16 834.62 979.37 819.27 992.66 806.07C1002.81 806.41 1048.77 808.6 1085.45 821.07C1086.5 821.42 1087.64 820.86 1087.99 819.82C1088.35 818.76 1087.79 817.62 1086.74 817.27C1053.02 805.8 1011.69 802.91 996.59 802.21C1002.11 796.83 1007.45 791.84 1012.6 787.19C1020.59 786.42 1050.44 784.34 1090.94 791.22C1092.04 791.41 1093.08 790.68 1093.27 789.58C1093.46 788.49 1092.72 787.45 1091.63 787.26C1057.05 781.38 1030.03 781.97 1017.55 782.78C1059.28 746.07 1087.2 733.26 1087.43 733.16C1088.93 732.44 1089.57 730.64 1088.85 729.14C1088.14 727.64 1086.34 727 1084.84 727.72C1084.69 727.79 1072.4 733.42 1052.01 747.81C1056.59 738.85 1063.14 726.44 1065.16 724.56C1065.98 723.81 1066.02 722.54 1065.27 721.73C1064.52 720.91 1063.25 720.86 1062.44 721.62C1059.32 724.51 1048.57 745.65 1044.91 752.95C1036.68 759.03 1027.41 766.35 1017.27 775.12L1028.97 732.56C1029.26 731.49 1028.64 730.39 1027.57 730.09C1026.51 729.8 1025.4 730.42 1025.1 731.49L1011.79 779.92C1004.86 786.08 997.58 792.89 989.99 800.37L1001.78 750.34C1002.03 749.25 1001.37 748.17 1000.29 747.92C999.21 747.66 998.13 748.33 997.87 749.41L984.6 805.76C973.29 817.18 961.38 830.09 949.04 844.67L957.68 793.54C957.87 792.45 957.14 791.41 956.04 791.22C954.95 791.03 953.91 791.77 953.72 792.86L943.92 850.8C938.64 857.18 933.29 863.84 927.89 870.82L935.42 870.82Z" />
		<path id="Path 5" class="shp3" d="M731.46 614.34C719.73 582.74 692.2 528.14 629.17 464.76C529.47 364.52 464.07 248.58 517.22 203.27C569.37 158.8 715 307.14 791.63 605.09C767.82 610.76 747.98 613.63 731.46 614.34Z" />
		<path id="Path 6" class="shp0" d="M760.49 596.24C757.28 595.26 748.65 593.07 736.5 593.54C735.65 593.57 734.93 592.91 734.9 592.06C734.86 591.21 735.53 590.49 736.37 590.46C747.02 590.05 755.15 591.63 759.48 592.77C758.04 587.81 756.57 582.91 755.09 578.08C749.93 576.65 733.28 572.08 726.91 570.83C726.07 570.66 725.53 569.85 725.69 569.02C725.85 568.18 726.66 567.64 727.5 567.8C733.35 568.95 747.49 572.78 754.03 574.59C751.24 565.56 748.39 556.77 745.5 548.18C740.46 546.99 724.76 543.5 706.95 541.45C706.1 541.35 705.5 540.59 705.59 539.74C705.69 538.9 706.45 538.29 707.3 538.38C723.45 540.24 737.89 543.28 744.36 544.75C741.42 536.1 738.43 527.69 735.4 519.47C728.48 517.84 705.94 512.79 680.35 509.85C679.5 509.75 678.9 508.99 678.99 508.14C679.09 507.3 679.85 506.69 680.7 506.78C704.38 509.51 725.43 514.01 734.11 516C730.1 505.25 726.03 494.87 721.9 484.84C714.77 482.7 685.12 474.37 660.89 475.88C660.04 475.93 659.3 475.29 659.25 474.44C659.19 473.59 659.84 472.85 660.69 472.8C683.27 471.39 710.34 478.33 720.41 481.2C715.3 468.93 710.1 457.22 704.86 446.02C694.91 444.09 654.64 437.07 632.84 445.47C632.04 445.77 631.15 445.37 630.85 444.58C630.54 443.78 630.94 442.89 631.74 442.59C652.89 434.44 690.3 440.2 703.23 442.57C697.64 430.76 691.99 419.52 686.32 408.86C678.75 408.67 646.91 408.35 615.13 415.36C614.3 415.55 613.48 415.03 613.3 414.19C613.11 413.36 613.63 412.54 614.46 412.36C644.57 405.72 674.69 405.58 684.67 405.75C681.3 399.47 677.92 393.39 674.55 387.51C667.33 387.18 636.43 386.44 593.02 395.35C592.19 395.53 591.37 394.99 591.2 394.15C591.03 393.32 591.57 392.51 592.4 392.33C632.9 384.02 662.7 384.04 672.71 384.36C664.66 370.5 656.63 357.71 648.71 345.96C639.3 346.63 591.6 350.37 564.77 359.2C563.96 359.47 563.09 359.03 562.83 358.22C562.56 357.42 563 356.55 563.81 356.28C589.58 347.79 634.06 343.97 646.7 343.02C642.06 336.23 637.46 329.78 632.93 323.68C624.86 324.31 587.76 327.66 552.14 337.79C551.32 338.02 550.47 337.55 550.23 336.74C550 335.92 550.47 335.06 551.29 334.83C584.86 325.28 619.7 321.71 630.75 320.76C620.1 306.61 609.81 294.31 600.14 283.69C592.35 283.55 557.07 283.45 528.49 291.58C527.67 291.82 526.82 291.35 526.59 290.53C526.35 289.71 526.83 288.86 527.65 288.63C553.92 281.15 585.68 280.53 597.27 280.58C593.26 276.25 589.36 272.21 585.59 268.45C579.5 267.55 556.72 264.8 525.43 268.51C524.59 268.61 523.82 268.01 523.72 267.17C523.62 266.32 524.22 265.55 525.06 265.45C551.78 262.29 572.44 263.79 581.97 264.88C551.43 235.15 530.54 224.27 530.37 224.18C529.25 223.57 528.83 222.17 529.43 221.04C530.04 219.92 531.44 219.5 532.56 220.11C532.68 220.17 541.87 224.96 556.94 236.77C553.77 229.73 549.24 219.97 547.76 218.45C547.17 217.84 547.18 216.87 547.79 216.28C548.39 215.69 549.37 215.7 549.96 216.3C552.24 218.64 559.65 235.24 562.17 240.98C568.24 245.95 575.06 251.92 582.49 259.03L575.17 225.98C574.99 225.15 575.51 224.32 576.34 224.14C577.17 223.96 577.99 224.48 578.17 225.31L586.5 262.92C591.56 267.9 596.88 273.4 602.4 279.42L595.31 240.64C595.16 239.81 595.71 239.01 596.54 238.85C597.38 238.7 598.18 239.25 598.34 240.08L606.33 283.76C614.54 292.95 623.17 303.29 632.06 314.94L627.41 275.44C627.31 274.6 627.91 273.83 628.76 273.73C629.6 273.62 630.37 274.23 630.47 275.07L635.74 319.83C639.78 325.24 643.85 330.89 647.97 336.83L644.52 301.43C644.43 300.58 645.05 299.82 645.9 299.74C646.74 299.65 647.5 300.27 647.59 301.11L651.59 342.09C659.17 353.28 666.85 365.39 674.56 378.48L673.79 344.57C673.77 343.72 674.45 343.01 675.3 342.99C676.15 342.97 676.85 343.64 676.87 344.49L677.77 383.96C680.8 389.22 683.84 394.66 686.87 400.23L688.07 374.79C688.11 373.94 688.84 373.28 689.68 373.32C690.53 373.36 691.19 374.08 691.15 374.93L689.7 405.48C695.31 415.96 700.89 427.01 706.42 438.61L708.66 410.48C708.73 409.63 709.47 409 710.32 409.07C711.16 409.14 711.8 409.88 711.73 410.73L709.07 444.17C713.88 454.45 718.64 465.19 723.35 476.36L726.43 451.64C726.53 450.8 727.3 450.2 728.15 450.3C728.99 450.4 729.59 451.17 729.49 452.02L725.74 482.1C729.81 491.95 733.84 502.15 737.79 512.7L743.12 491.04C743.32 490.21 744.16 489.71 744.98 489.91C745.81 490.11 746.32 490.94 746.12 491.77L739.71 517.82C742.55 525.52 745.35 533.41 748.11 541.49L755.11 523.64C755.42 522.85 756.31 522.46 757.1 522.77C757.89 523.08 758.29 523.98 757.98 524.76L749.65 546.01C752.17 553.5 754.66 561.14 757.12 568.95L762.3 557.59C762.66 556.82 763.57 556.48 764.35 556.83C765.12 557.19 765.46 558.1 765.11 558.88L758.49 573.37C760.3 579.24 762.09 585.22 763.86 591.27L771.28 582.74C771.84 582.11 772.81 582.04 773.45 582.6C774.09 583.15 774.16 584.13 773.6 584.76L764.88 594.78C766.32 599.74 767.74 604.76 769.14 609.85C767.59 610.13 766.06 610.4 764.56 610.65C763.22 605.79 761.86 600.99 760.49 596.24Z" />
		<path id="Path 7" fill-rule="evenodd" class="shp4" d="M789.71 870.82C789.12 868.15 788.5 865.49 787.87 862.86C787.39 860.87 786.9 858.9 786.4 856.95C786.46 860.93 786.49 865.68 786.46 870.82L780.51 870.82C780.6 856.36 780.17 845.09 780.17 845.02C780.12 843.61 781.05 842.4 782.34 842.04C775.22 817.53 766.43 795.08 756.17 774.58C758.7 814.68 755.62 852.12 753.57 870.82L747.58 870.82C749.73 851.56 753.13 810.85 749.75 768.16C749.66 766.93 750.32 765.82 751.35 765.29C745.29 754.03 738.78 743.39 731.85 733.35C726.18 725.12 720.22 717.3 714 709.87C717.93 755.67 706.89 819.73 704.94 830.5C717.71 843.25 730.31 856.68 742.67 870.82L734.73 870.82C723.72 858.38 712.52 846.51 701.2 835.17C691.26 840.33 661.75 854.78 628.78 870.82L615.17 870.82C650.68 853.58 684.25 837.17 696.76 830.76C679.56 813.81 662.1 798.08 644.57 783.5L466.74 870.82L453.21 870.82L639.51 779.34C617.02 760.92 594.46 744.38 572.27 729.54C557.15 736.7 423.49 800.17 403.51 814.45C408.66 822.13 414.04 829.77 419.68 837.3C428.26 848.78 437.41 860.01 447.15 870.82L438.49 870.82C430.05 861.2 422.06 851.27 414.5 841.17C337.07 737.61 305.15 615.01 303.68 609.29L303.56 608.87C303.16 607.2 303.48 605.53 304.31 604.17C305.15 602.81 306.5 601.77 308.17 601.37L308.17 601.38C322.89 597.84 337.82 594.85 352.86 592.48C367.73 590.14 382.65 588.39 397.53 587.27C441.65 583.99 485.96 586.23 528.32 595.12C567.81 603.4 605.63 617.46 640.02 638.2C677.14 660.58 710.25 690.7 737.16 729.7C762.03 765.73 781.6 809.32 794.14 861.36C794.89 864.49 795.62 867.64 796.32 870.82L789.71 870.82ZM401.31 593.49C402.11 596.85 406.54 616.47 406.76 635.89C429.7 645.01 455.71 656.47 483.62 670.71C486.86 633.53 480.14 595.27 480.12 595.16C480.07 594.89 480.06 594.63 480.09 594.37C454.1 591.9 427.68 591.69 401.31 593.49ZM527.01 601.45C513.56 598.63 499.91 596.48 486.13 594.99C487.11 600.96 492.83 638.1 489.33 673.65C515.2 687.08 542.61 702.88 570.68 721.37C578.51 690.45 579.66 617.78 579.66 617.56C579.66 617.2 579.73 616.86 579.85 616.55C562.72 610.24 545.05 605.23 527.01 601.45ZM636.7 643.73C620.39 633.9 603.29 625.59 585.59 618.71C585.4 628.05 583.83 696.35 575.92 724.85C598.18 739.75 620.81 756.35 643.37 774.82C663.07 707.96 656.4 659.31 656.39 659.16C656.29 658.37 656.5 657.61 656.94 657.02C650.35 652.31 643.6 647.88 636.7 643.73ZM662.6 661.16C663.69 672.62 666.49 718.9 648.35 778.93C665.63 793.29 682.84 808.75 699.79 825.39C702.93 807.06 712.18 747.58 707.65 706.27C707.54 705.26 707.96 704.3 708.68 703.69C694.5 687.62 679.06 673.49 662.6 661.16ZM400.23 809.5C420.1 795.45 541.15 737.72 566.48 725.7C538.76 707.48 511.69 691.91 486.15 678.67L357.6 733.73C369.37 758.1 383.51 784 400.23 809.5ZM355.04 728.35L479.27 675.15C451.85 661.23 426.32 650.02 403.81 641.1C396.57 643.48 348.05 659.57 329.86 668.65L329.8 668.68C336.41 686.27 344.77 706.63 355.04 728.35ZM327.71 663.06C343.46 655.32 379.29 643.01 395.11 637.7C349.94 620.37 318.45 612.71 310.81 610.97C312.84 618.43 318.3 637.42 327.71 663.06ZM353.86 598.85C341.2 600.85 328.62 603.28 316.18 606.12C328.47 609.13 359.14 617.34 400.76 633.53C400.19 613.76 395.42 594.45 395.41 594.39C395.37 594.24 395.35 594.08 395.33 593.93C381.4 595.04 367.55 596.69 353.86 598.85Z" />
		<path id="Path 8" class="shp5" d="M726.13 682.28C710.48 663.75 681.24 636.3 631.51 612.42C547.11 571.9 479.69 510.75 500.92 464.33C521.38 419.61 640.99 477.12 757 652.65L726.24 682.17L726.13 682.28Z" />
		<path id="Path 9" class="shp6" d="M522.5 479.08C520.83 478.54 519.91 476.74 520.45 475.08C520.99 473.41 522.78 472.49 524.45 473.03C524.57 473.07 534.41 476.14 550.52 483.74L539.18 469.45C538.45 468.53 538.6 467.2 539.52 466.48C540.43 465.75 541.76 465.9 542.49 466.82L559.34 488.05C566.78 491.81 575.14 496.37 584.24 501.83L573.66 482.58C573.1 481.55 573.47 480.26 574.5 479.7C575.52 479.14 576.81 479.51 577.38 480.53L591.55 506.33C600.92 512.22 610.93 519.02 621.35 526.85L612.8 509.8C612.27 508.75 612.69 507.48 613.74 506.95C614.78 506.43 616.05 506.85 616.58 507.89L629.07 532.78C639.87 541.26 651.04 550.8 662.32 561.53L655.96 544.38C655.55 543.28 656.11 542.06 657.2 541.66C658.3 541.25 659.51 541.8 659.92 542.9L669.37 568.39C679.85 578.78 690.38 590.18 700.79 602.7L699.35 591.95C699.2 590.79 700.01 589.73 701.17 589.57C702.33 589.42 703.4 590.23 703.55 591.39L705.9 608.96C713.71 618.68 721.44 629.03 728.99 640.07L727.98 629.27C727.87 628.11 728.72 627.07 729.89 626.96C731.05 626.86 732.09 627.72 732.2 628.88L733.94 647.45C737.56 652.96 741.15 658.63 744.68 664.47L739.97 668.99C736.45 663.13 732.87 657.43 729.25 651.9C724.16 650.64 711.87 647.88 706 648.93C704.85 649.14 703.74 648.38 703.54 647.23C703.33 646.08 704.09 644.98 705.24 644.76C710.42 643.84 719.55 645.42 725.84 646.78C722.95 642.48 720.03 638.28 717.1 634.19C711.93 633.45 699.14 632.01 689.68 634.02C688.53 634.26 687.41 633.53 687.16 632.39C686.92 631.24 687.66 630.12 688.8 629.87C696.91 628.15 707.19 628.79 713.71 629.5C707.59 621.18 701.38 613.3 695.13 605.81C687.52 606.46 663.37 608.79 652.85 613.02C651.76 613.45 650.53 612.93 650.09 611.85C649.65 610.76 650.18 609.53 651.26 609.09C661.15 605.12 681.97 602.79 691.8 601.86C685.06 593.96 678.27 586.52 671.5 579.54C663.97 579.99 639.29 581.96 621.26 588.82C620.16 589.23 618.94 588.68 618.52 587.59C618.11 586.49 618.66 585.27 619.75 584.85C635.99 578.68 657.37 576.36 667.62 575.56C664.25 572.16 660.88 568.87 657.52 565.69C649.84 565.7 623.67 566.44 596.83 575.36C595.72 575.73 594.51 575.14 594.14 574.03C593.77 572.92 594.37 571.72 595.48 571.35C618.98 563.53 642.01 561.85 653.08 561.53C640.82 550.21 628.76 540.29 617.22 531.65C608 533.98 572.18 543.33 555.19 551.62C554.14 552.13 552.87 551.7 552.36 550.65C551.84 549.6 552.28 548.33 553.33 547.81C569.06 540.14 600.16 531.68 612.83 528.39C604.14 522.05 595.79 516.45 587.9 511.5C579.29 514.6 547.48 526.12 539.93 529.36C538.86 529.83 537.61 529.33 537.15 528.26C536.68 527.19 537.18 525.95 538.25 525.48C545.17 522.5 571.82 512.81 583.3 508.65C572.93 502.33 563.45 497.18 555.24 493.07C547.3 496.51 528.18 504.85 523.57 507.25C522.53 507.79 521.25 507.38 520.71 506.34C520.17 505.3 520.58 504.03 521.61 503.49C525.72 501.35 541.16 494.58 550.25 490.62C533.16 482.41 522.61 479.11 522.5 479.08Z" />
		<path id="Path 10" class="shp5" d="M868.03 654.68C876.93 627.74 896.71 585.17 940.28 537.54C1014.23 456.71 1060.76 360.89 1017.45 319.75C975.72 280.12 870.94 394.76 821.58 635.98L867.86 654.61L868.03 654.68Z" />
		<path id="Path 11" class="shp6" d="M1000.46 345.17C1002.03 343.86 1002.25 341.51 1000.93 339.94C999.61 338.36 997.27 338.14 995.69 339.46C995.58 339.55 986.23 347.19 972.06 362.46L978.14 342C978.53 340.69 977.78 339.31 976.47 338.92C975.16 338.53 973.78 339.28 973.39 340.59L964.36 371C957.94 378.33 950.83 386.92 943.35 396.82L946.42 371.31C946.59 369.95 945.62 368.71 944.26 368.54C942.9 368.38 941.67 369.34 941.5 370.7L937.37 404.9C929.76 415.39 921.86 427.14 913.96 440.19L915.81 417.94C915.93 416.58 914.91 415.38 913.55 415.26C912.19 415.15 910.99 416.16 910.87 417.52L908.17 450C900.14 463.91 892.18 479.14 884.61 495.72L884.03 474.32C884 472.96 882.86 471.88 881.5 471.91C880.13 471.94 879.05 473.08 879.09 474.44L879.95 506.25C873.11 522.1 866.65 539.08 860.81 557.22L857.68 544.92C857.35 543.59 855.99 542.79 854.67 543.13C853.34 543.47 852.54 544.82 852.88 546.14L857.99 566.24C853.75 580.2 849.88 594.82 846.5 610.1L842.89 597.93C842.5 596.62 841.12 595.87 839.81 596.26C838.5 596.65 837.75 598.04 838.14 599.35L844.35 620.27C842.82 627.84 841.4 635.56 840.12 643.44L847.2 646.3C848.46 638.39 849.86 630.65 851.38 623.06C856.36 619.47 868.5 611.11 875.33 609.69C876.68 609.41 877.54 608.1 877.27 606.76C876.99 605.42 875.68 604.56 874.34 604.83C868.3 606.09 859.08 611.79 852.85 616.01C854.11 610.08 855.45 604.25 856.85 598.52C862.14 595.47 875.4 588.32 886.55 586.37C887.9 586.14 888.8 584.85 888.56 583.5C888.32 582.15 887.04 581.25 885.69 581.49C876.13 583.16 865.25 588.33 858.48 591.95C861.49 580.24 864.8 568.98 868.31 558.12C876.86 555.51 904.1 547.5 917.37 547.5C918.74 547.5 919.85 546.39 919.85 545.02C919.85 543.66 918.74 542.54 917.38 542.54C904.92 542.54 881.29 549.09 870.21 552.38C874.08 540.86 878.2 529.83 882.51 519.28C890.89 516.49 918.54 507.85 941.11 507.43C942.48 507.4 943.57 506.27 943.54 504.9C943.51 503.53 942.38 502.44 941.02 502.47C920.69 502.85 896.46 509.67 884.99 513.28C887.16 508.11 889.38 503.07 891.64 498.15C899.98 494.8 928.72 484.19 961.77 482.16C963.13 482.08 964.18 480.91 964.1 479.54C964.02 478.17 962.85 477.13 961.48 477.21C932.55 478.98 906.81 487.21 894.65 491.69C903.01 474.05 911.78 458.02 920.54 443.59C931.57 442.11 974.55 436.62 996.62 438.21C997.98 438.31 999.17 437.28 999.26 435.91C999.37 434.55 998.34 433.36 996.97 433.27C976.54 431.8 939.09 436.18 923.89 438.14C930.56 427.47 937.18 417.74 943.59 408.92C954.3 408.53 993.85 407.15 1003.47 407.38C1004.84 407.42 1005.97 406.34 1006.01 404.97C1006.05 403.61 1004.97 402.47 1003.6 402.44C994.79 402.22 961.62 403.33 947.34 403.83C955.84 392.44 963.88 382.71 971.01 374.65C981.13 374.93 1005.53 375.64 1011.59 376.22C1012.95 376.36 1014.16 375.36 1014.29 374C1014.43 372.64 1013.43 371.42 1012.06 371.29C1006.67 370.77 986.95 370.15 975.36 369.82C990.33 353.45 1000.34 345.26 1000.46 345.17Z" />
		<path id="Path 12" class="shp5" d="M803.17 870.7C824.69 841.89 865.57 798.66 937.08 758.92C1058.45 691.48 1152.87 595 1117.34 528.15C1083.1 463.74 911.09 559.44 754.85 829.56L802.99 870.54L803.17 870.7Z" />
		<path id="Path 13" class="shp6" d="M1086.7 551.88C1089.12 550.93 1090.32 548.2 1089.38 545.78C1088.43 543.35 1085.69 542.15 1083.27 543.1C1083.1 543.16 1068.79 548.59 1045.62 561.25L1061.15 539.09C1062.15 537.68 1061.8 535.72 1060.38 534.72C1058.96 533.73 1057.01 534.07 1056.01 535.49L1032.94 568.42C1022.27 574.65 1010.28 582.13 997.3 591.01L1011.25 561.58C1012 560.01 1011.33 558.14 1009.77 557.39C1008.2 556.64 1006.32 557.31 1005.57 558.88L986.87 598.33C973.51 607.88 959.3 618.83 944.56 631.33L955.72 605.34C956.4 603.74 955.67 601.9 954.08 601.21C952.49 600.53 950.64 601.26 949.95 602.85L933.65 640.8C918.41 654.3 902.73 669.4 886.96 686.3L894.87 660.34C895.37 658.69 894.44 656.93 892.79 656.42C891.14 655.91 889.38 656.84 888.87 658.5L877.13 697.07C862.54 713.38 847.95 731.19 833.65 750.65L834.83 734.6C834.96 732.87 833.65 731.37 831.92 731.24C830.19 731.12 828.69 732.42 828.56 734.15L826.64 760.36C815.93 775.44 805.4 791.45 795.2 808.46L795.75 792.39C795.81 790.65 794.45 789.2 792.71 789.14C790.98 789.08 789.52 790.44 789.47 792.18L788.53 819.82C783.64 828.3 778.84 837.02 774.13 845.98L781.5 852.25C786.19 843.26 790.98 834.51 795.85 826C803.28 823.69 821.24 818.52 830.02 819.55C831.74 819.76 833.31 818.53 833.52 816.81C833.73 815.09 832.5 813.52 830.78 813.31C823.01 812.4 809.64 815.54 800.46 818.11C804.36 811.5 808.3 805.02 812.29 798.7C819.88 797.16 838.69 793.89 852.87 796.03C854.59 796.29 856.19 795.1 856.44 793.39C856.7 791.67 855.51 790.07 853.8 789.81C841.64 787.98 826.48 789.83 816.89 791.46C825.22 778.6 833.71 766.38 842.3 754.75C853.62 755.04 889.58 756.36 905.54 761.69C907.18 762.24 908.96 761.35 909.51 759.71C910.07 758.07 909.18 756.28 907.54 755.73C892.56 750.73 861.53 749.11 846.89 748.61C856.17 736.32 865.55 724.71 874.96 713.76C886.16 713.77 922.87 714.51 950.17 723.06C951.83 723.58 953.59 722.66 954.11 721C954.63 719.35 953.7 717.59 952.05 717.07C927.46 709.36 895.61 707.82 880.36 707.54C885.05 702.21 889.75 697.04 894.44 692.03C905.81 691.36 944.62 690.15 985.16 700.99C986.83 701.44 988.56 700.45 989.01 698.78C989.46 697.11 988.47 695.38 986.8 694.93C951.31 685.44 917.07 684.99 900.65 685.48C917.79 667.63 934.77 651.89 951.1 638.07C964.95 640.72 1018.81 651.39 1044.7 662.16C1046.3 662.83 1048.14 662.07 1048.81 660.47C1049.47 658.88 1048.72 657.04 1047.12 656.37C1023.15 646.39 976.36 636.62 957.32 632.87C969.61 622.72 981.49 613.68 992.73 605.65C1005.76 609.49 1053.86 623.72 1065.33 627.87C1066.96 628.46 1068.75 627.62 1069.35 625.99C1069.94 624.36 1069.1 622.56 1067.47 621.97C1056.96 618.17 1016.66 606.18 999.28 601.04C1014.08 590.76 1027.65 582.3 1039.46 575.48C1051.52 579.88 1080.55 590.53 1087.6 593.67C1089.18 594.38 1091.04 593.67 1091.75 592.09C1092.45 590.5 1091.74 588.65 1090.16 587.94C1083.89 585.14 1060.43 576.48 1046.63 571.42C1071.2 557.76 1086.52 551.94 1086.7 551.88Z" />
		<path id="Path 14" class="shp1" d="M1225.02 915.36C1225.02 915.36 1337.49 847.69 1310.21 730.83C1310.21 730.83 1309.41 727.84 1312.02 727.35C1314.64 726.87 1370.52 816.76 1292.44 899.05L1225.02 915.36ZM337.37 904.01C337.37 904.01 219.2 825.71 247.86 690.49C247.86 690.49 248.7 687.03 245.96 686.47C243.21 685.91 184.5 789.92 266.54 885.14L337.37 904.01Z" />
		<path id="Path 15" fill-rule="evenodd" class="shp7" d="M193.33 870.82L1367.25 870.82C1374.94 870.82 1381.24 877.12 1381.24 884.82L1381.24 884.82C1381.24 892.52 1374.95 898.83 1367.25 898.83L1320.01 898.83C1315.73 898.83 1312.23 902.33 1312.23 906.6C1312.23 910.88 1315.73 914.38 1320.01 914.38L1337.29 914.38C1342.64 914.38 1347.01 918.76 1347.01 924.1C1347.01 929.45 1342.64 933.83 1337.29 933.83L224.84 933.83C219.49 933.83 215.11 929.45 215.11 924.1C215.11 918.76 219.49 914.38 224.84 914.38L238.45 914.38C242.73 914.38 246.23 910.88 246.23 906.6C246.23 902.32 242.73 898.83 238.45 898.83L193.33 898.83C185.64 898.83 179.33 892.52 179.33 884.82L179.33 884.82C179.33 877.12 185.64 870.82 193.33 870.82ZM191.29 924.49L191.29 923.71C191.29 918.58 195.49 914.38 200.63 914.38C205.76 914.38 209.96 918.58 209.96 923.71L209.96 924.49C209.96 929.63 205.76 933.83 200.63 933.83C195.49 933.83 191.29 929.63 191.29 924.49Z" />
		<path id="Path 16" class="shp8" d="M343.23 559.21C313.96 529.41 292.18 567.27 295.22 605.26C298.11 641.29 329.16 764.91 323.4 816.91L335.3 816.91C364.38 750.22 380.7 597.36 343.23 559.21Z" />
		<path id="Path 17" class="shp9" d="M330.92 816.91C359.24 711.8 323.39 566.51 323.27 566.02C323.05 565.12 322.14 564.56 321.24 564.78C320.34 565 319.79 565.91 320.01 566.81C320.13 567.3 356.01 712.76 327.48 816.91L330.92 816.91ZM271.02 624.89C240.17 608.55 232.4 644.2 244.42 673.7C254.39 698.15 298.41 770.46 315.05 816.91L330.73 816.91C332.06 752.71 307.43 644.18 271.02 624.89Z" />
		<path id="Path 18" class="shp8" d="M325 816.91C314.8 730.08 257.05 635.69 256.85 635.35C256.44 634.69 255.58 634.48 254.91 634.88C254.25 635.28 254.04 636.14 254.44 636.81C254.65 637.15 312.03 730.92 322.22 816.91L325 816.91Z" />
		<path id="Path 19" class="shp0" d="M401.38 666.1C431.27 653.04 436.01 686.82 422.73 713.46C413.74 731.49 381.36 777.65 359.55 816.91L334.66 816.91C343.17 757.51 370.48 679.6 401.38 666.1Z" />
		<path id="Path 20" class="shp1" d="M343.55 816.91C364.77 744.95 413.65 677.12 413.85 676.85C414.27 676.26 415.09 676.12 415.68 676.55C416.27 676.96 416.41 677.79 415.99 678.37C415.79 678.65 367.43 745.76 346.25 816.91L343.55 816.91Z" />
		<path id="Path 21" class="shp10" d="M296.36 793.15L383.94 793.15C386.56 793.15 388.71 795.29 388.71 797.92L388.71 819.54C388.71 822.16 386.56 824.3 383.94 824.3L296.36 824.3C293.74 824.3 291.6 822.16 291.6 819.54L291.6 797.92C291.6 795.29 293.74 793.15 296.36 793.15ZM311.38 810.74L368.92 810.74L383.94 824.3L371.67 871.58L340.15 871.58L308.63 871.58L296.36 824.3L311.38 810.74Z" />
		<path id="Path 22" class="shp7" d="M383.94 824.3L381.42 834.02L298.88 834.02L296.36 824.3L383.94 824.3Z" />
		<path id="Path 23" fill-rule="evenodd" class="shp11" d="M1208.23 817.4C1213.04 817.4 1217.61 819.29 1221 822.69C1224.4 826.08 1226.29 830.65 1226.29 835.45C1226.29 840.26 1224.4 844.83 1221 848.22C1217.61 851.62 1213.04 853.52 1208.23 853.52C1203.43 853.52 1198.86 851.62 1195.46 848.22C1192.06 844.83 1190.17 840.26 1190.17 835.45C1190.17 830.65 1192.06 826.08 1195.46 822.69C1198.86 819.29 1203.43 817.4 1208.23 817.4ZM1216.02 827.67C1213.95 825.6 1211.16 824.44 1208.23 824.44C1205.3 824.44 1202.52 825.6 1200.45 827.67C1198.37 829.74 1197.22 832.52 1197.22 835.45C1197.22 838.39 1198.37 841.17 1200.45 843.24C1202.52 845.31 1205.3 846.47 1208.23 846.47C1211.16 846.47 1213.95 845.31 1216.02 843.24C1218.09 841.17 1219.24 838.39 1219.24 835.45C1219.24 832.52 1218.09 829.74 1216.02 827.67Z" />
		<path id="Path 24" class="shp12" d="M1179.48 870.82C1195.05 870.82 1207.8 858.08 1207.8 842.5L1207.8 840.91L1207.8 815.09L1207.8 812.97C1207.8 811.59 1206.67 810.47 1205.3 810.47L1153.66 810.47C1152.28 810.47 1151.15 811.59 1151.15 812.97L1151.15 815.09L1151.15 840.91L1151.15 842.5C1151.15 858.08 1163.9 870.82 1179.48 870.82Z" />
		<path id="Path 25" class="shp11" d="M1198.1 838.95C1198.1 841.98 1197.62 844.9 1196.74 847.64C1196.23 849.19 1195.6 850.68 1194.85 852.1C1191.78 857.93 1186.73 862.57 1180.61 865.12C1177.27 866.51 1173.61 867.28 1169.78 867.28C1168.2 867.28 1166.65 867.15 1165.14 866.9C1169.35 869.39 1174.25 870.82 1179.48 870.82C1185.84 870.82 1191.73 868.7 1196.47 865.12C1199.56 862.79 1202.16 859.84 1204.1 856.47C1204.88 855.1 1205.55 853.67 1206.09 852.17C1207.2 849.15 1207.8 845.89 1207.8 842.5L1207.8 840.91L1207.8 824.54L1207.8 820.04L1207.8 815.09L1207.8 812.97C1207.8 811.59 1206.67 810.47 1205.3 810.47L1198.1 810.47L1198.1 811.55L1198.1 822.32L1198.1 827.76L1198.1 837.37L1198.1 838.95Z" />
		<path id="Path 26" class="shp12" d="M1154.93 870.82L1204.03 870.82C1206.11 870.82 1207.8 869.12 1207.8 867.05C1207.8 864.97 1206.11 863.27 1204.03 863.27L1154.93 863.27C1152.85 863.27 1151.15 864.97 1151.15 867.05C1151.15 869.12 1152.85 870.82 1154.93 870.82Z" />
		<path id="Path 27" class="shp13" d="M1160.22 815.85L1160.23 815.85C1162.85 815.85 1165 818 1165 820.62L1165 837.71C1165 840.34 1162.85 842.48 1160.23 842.48L1160.22 842.48C1157.6 842.48 1155.45 840.34 1155.45 837.71L1155.45 820.62C1155.45 818 1157.6 815.85 1160.22 815.85Z" />
		<path id="Path 28" class="shp0" d="M1155.28 775.54L1176.88 775.54C1178.52 775.54 1179.85 774.2 1179.85 772.56C1179.85 770.93 1178.52 769.59 1176.88 769.59L1147.83 769.59C1143.55 769.59 1140.05 766.09 1140.05 761.81C1140.05 757.53 1143.55 754.03 1147.83 754.03L1223.37 754.03C1227.65 754.03 1231.15 757.53 1231.15 761.81C1231.15 766.09 1227.65 769.59 1223.37 769.59L1197.02 769.59C1195.38 769.59 1194.04 770.93 1194.04 772.56C1194.04 774.2 1195.38 775.54 1197.02 775.54L1207.16 775.54C1210.46 775.54 1213.16 778.24 1213.16 781.54C1213.16 784.84 1210.46 787.54 1207.16 787.54L1190.39 787.54C1183.83 787.54 1178.46 792.91 1178.46 799.47L1178.46 804.94C1178.46 806.49 1177.19 807.76 1175.65 807.76C1174.09 807.76 1172.83 806.49 1172.83 804.94L1172.83 794.54C1172.83 790.69 1169.68 787.54 1165.83 787.54L1155.28 787.54C1151.98 787.54 1149.28 784.84 1149.28 781.54C1149.28 778.24 1151.98 775.54 1155.28 775.54ZM406.94 331.91C395.42 331.91 384.38 333.98 374.18 337.78C369.57 332.7 362.92 329.51 355.52 329.51C352.07 329.51 348.79 330.2 345.79 331.45C344.14 309.75 326.01 292.66 303.89 292.66C294.28 292.66 285.43 295.88 278.35 301.3C273.82 295.07 266.48 291.02 258.18 291.02C256.79 291.02 255.43 291.13 254.11 291.35C254.11 291.35 250.52 269.82 200.39 272.21C167.7 273.77 145.92 301.35 139.91 333.24C133.82 365.57 157.2 385.38 199.56 385.38L322.08 385.38L365.11 385.38L435.81 385.38C463.2 385.38 502.34 389.86 475.15 361.22C458.02 343.17 433.79 331.91 406.94 331.91ZM1121.67 387.85C1126.06 387.85 1130.27 388.64 1134.16 390.09C1135.92 388.15 1138.46 386.94 1141.28 386.94C1142.59 386.94 1143.84 387.2 1144.99 387.68C1145.61 379.4 1152.53 372.88 1160.96 372.88C1164.63 372.88 1168 374.11 1170.7 376.18C1172.43 373.81 1175.23 372.26 1178.39 372.26C1178.92 372.26 1179.44 372.3 1179.94 372.39C1178.87 369.89 1178.28 367.14 1178.28 364.25C1178.28 352.83 1187.54 343.57 1198.96 343.57C1201.09 343.57 1203.15 343.89 1205.08 344.49C1206.58 341.29 1209.82 339.08 1213.59 339.08L1213.86 339.08C1213.81 338.34 1213.79 337.59 1213.79 336.83C1213.79 316.3 1230.43 299.66 1250.96 299.66C1271.49 299.66 1288.13 316.3 1288.13 336.83C1288.13 337.12 1288.12 337.4 1288.12 337.69C1289.91 337.24 1291.79 336.99 1293.72 336.99C1297.57 336.99 1301.19 337.95 1304.37 339.63C1309.79 332.24 1318.53 327.44 1328.4 327.44C1344.84 327.44 1358.18 340.77 1358.18 357.21C1358.18 360.45 1357.66 363.56 1356.7 366.47C1357 366.45 1357.3 366.44 1357.6 366.44C1365.7 366.44 1372.27 373.01 1372.27 381.11C1372.27 382.06 1372.17 382.99 1372 383.89C1372.1 383.88 1372.2 383.88 1372.31 383.88C1376.88 383.88 1380.61 387.51 1380.76 392.05C1382.03 391.81 1383.34 391.68 1384.68 391.68C1389.97 391.68 1394.91 393.52 1398.48 396.89C1408 405.9 1397.6 408.24 1387.58 408.24L1374.51 408.24L1364.26 408.24L1154.03 408.24L1137.62 408.24L1110.66 408.24C1100.22 408.24 1085.29 409.95 1095.66 399.03C1102.19 392.14 1111.43 387.85 1121.67 387.85Z" />
		<path id="Path 29" class="shp1" d="M942.76 169.43C946.74 169.43 950.55 170.15 954.06 171.46C955.65 169.7 957.95 168.6 960.5 168.6C961.69 168.6 962.83 168.84 963.86 169.27C964.43 161.79 970.68 155.89 978.31 155.89C981.63 155.89 984.68 157 987.12 158.87C988.68 156.72 991.22 155.33 994.08 155.33C994.56 155.33 995.03 155.37 995.49 155.44C994.52 153.18 993.98 150.69 993.98 148.08C993.98 137.75 1002.36 129.37 1012.69 129.37C1014.62 129.37 1016.47 129.66 1018.22 130.2C1019.58 127.31 1022.52 125.31 1025.92 125.31L1026.17 125.31C1026.13 124.64 1026.1 123.96 1026.1 123.28C1026.1 104.7 1041.16 89.65 1059.73 89.65C1078.3 89.65 1093.36 104.7 1093.36 123.28C1093.36 123.53 1093.35 123.79 1093.35 124.05C1094.97 123.64 1096.67 123.42 1098.42 123.42C1101.9 123.42 1105.18 124.29 1108.05 125.81C1112.95 119.12 1120.86 114.78 1129.79 114.78C1144.67 114.78 1156.73 126.84 1156.73 141.71C1156.73 144.64 1156.26 147.45 1155.4 150.09C1155.67 150.07 1155.94 150.06 1156.21 150.06C1163.54 150.06 1169.48 156 1169.48 163.33C1169.48 164.19 1169.39 165.03 1169.24 165.84C1169.33 165.84 1169.42 165.84 1169.51 165.84C1173.65 165.84 1177.02 169.13 1177.16 173.23C1178.31 173.01 1179.49 172.9 1180.7 172.9C1185.49 172.9 1189.96 174.56 1193.18 177.61C1201.8 185.76 1192.4 187.88 1183.33 187.88L1171.51 187.88L1162.23 187.88L972.04 187.88L957.19 187.88L932.8 187.88C923.35 187.88 909.86 189.42 919.23 179.54C925.14 173.32 933.5 169.43 942.76 169.43ZM1170.93 223.61L1179.79 223.61C1181.42 223.61 1182.75 224.94 1182.75 226.56L1182.75 235.43C1182.75 237.05 1181.42 238.38 1179.79 238.38L1170.93 238.38C1169.3 238.38 1167.97 237.05 1167.97 235.43L1167.97 226.56C1167.97 224.94 1169.3 223.61 1170.93 223.61ZM1201.21 223.61L1210.08 223.61C1211.7 223.61 1213.03 224.94 1213.03 226.56L1213.03 235.43C1213.03 237.05 1211.7 238.38 1210.08 238.38L1201.21 238.38C1199.59 238.38 1198.26 237.05 1198.26 235.43L1198.26 226.56C1198.26 224.94 1199.59 223.61 1201.21 223.61ZM1231.5 223.61L1240.36 223.61C1241.99 223.61 1243.32 224.94 1243.32 226.56L1243.32 235.43C1243.32 237.05 1241.99 238.38 1240.36 238.38L1231.5 238.38C1229.87 238.38 1228.54 237.05 1228.54 235.43L1228.54 226.56C1228.54 224.94 1229.87 223.61 1231.5 223.61ZM1261.78 223.61L1270.65 223.61C1272.27 223.61 1273.6 224.94 1273.6 226.56L1273.6 235.43C1273.6 237.05 1272.27 238.38 1270.65 238.38L1261.78 238.38C1260.16 238.38 1258.83 237.05 1258.83 235.43L1258.83 226.56C1258.83 224.94 1260.16 223.61 1261.78 223.61ZM1370.69 621.46C1371.3 620.85 1372.29 620.85 1372.9 621.46C1373.51 622.08 1373.51 623.07 1372.9 623.68L1367.92 628.67C1367.31 629.28 1366.31 629.28 1365.7 628.67C1365.09 628.05 1365.09 627.06 1365.7 626.45L1370.69 621.46ZM1376.41 632.15C1377.27 632.15 1377.97 632.85 1377.97 633.71C1377.97 634.58 1377.27 635.28 1376.41 635.28L1369.36 635.28C1368.49 635.28 1367.79 634.58 1367.79 633.71C1367.79 632.85 1368.49 632.15 1369.36 632.15L1376.41 632.15ZM1372.9 643.74C1373.51 644.35 1373.51 645.35 1372.9 645.96C1372.29 646.57 1371.3 646.57 1370.69 645.96L1365.7 640.97C1365.09 640.36 1365.09 639.37 1365.7 638.76C1366.31 638.15 1367.31 638.15 1367.92 638.76L1372.9 643.74ZM1362.22 649.46C1362.22 650.33 1361.52 651.03 1360.65 651.03C1359.79 651.03 1359.09 650.33 1359.09 649.46L1359.09 642.41C1359.09 641.55 1359.79 640.85 1360.65 640.85C1361.52 640.85 1362.22 641.55 1362.22 642.41L1362.22 649.46ZM1350.62 645.96C1350.01 646.57 1349.02 646.57 1348.41 645.96C1347.79 645.35 1347.79 644.35 1348.41 643.74L1353.39 638.76C1354 638.15 1354.99 638.15 1355.61 638.76C1356.22 639.37 1356.22 640.36 1355.61 640.97L1350.62 645.96ZM1344.9 635.28C1344.04 635.28 1343.33 634.58 1343.33 633.71C1343.33 632.85 1344.04 632.15 1344.9 632.15L1351.95 632.15C1352.82 632.15 1353.52 632.85 1353.52 633.71C1353.52 634.58 1352.82 635.28 1351.95 635.28L1344.9 635.28ZM1348.41 623.68C1347.79 623.07 1347.79 622.08 1348.41 621.46C1349.02 620.85 1350.01 620.85 1350.62 621.46L1355.61 626.45C1356.22 627.06 1356.22 628.05 1355.61 628.67C1354.99 629.28 1354 629.28 1353.39 628.67L1348.41 623.68ZM1359.09 617.96C1359.09 617.09 1359.79 616.39 1360.65 616.39C1361.52 616.39 1362.22 617.09 1362.22 617.96L1362.22 625.01C1362.22 625.87 1361.52 626.57 1360.65 626.57C1359.79 626.57 1359.09 625.87 1359.09 625.01L1359.09 617.96ZM186.42 402.39L195.29 402.39C196.91 402.39 198.25 403.72 198.25 405.34L198.25 414.21C198.25 415.83 196.91 417.16 195.29 417.16L186.42 417.16C184.8 417.16 183.47 415.83 183.47 414.21L183.47 405.34C183.47 403.72 184.8 402.39 186.42 402.39ZM216.71 402.39L225.58 402.39C227.2 402.39 228.53 403.72 228.53 405.34L228.53 414.21C228.53 415.83 227.2 417.16 225.58 417.16L216.71 417.16C215.08 417.16 213.76 415.83 213.76 414.21L213.76 405.34C213.76 403.72 215.08 402.39 216.71 402.39ZM246.99 402.39L255.86 402.39C257.49 402.39 258.81 403.72 258.81 405.34L258.81 414.21C258.81 415.83 257.49 417.16 255.86 417.16L246.99 417.16C245.37 417.16 244.04 415.83 244.04 414.21L244.04 405.34C244.04 403.72 245.37 402.39 246.99 402.39ZM277.28 402.39L286.15 402.39C287.77 402.39 289.1 403.72 289.1 405.34L289.1 414.21C289.1 415.83 287.77 417.16 286.15 417.16L277.28 417.16C275.65 417.16 274.32 415.83 274.32 414.21L274.32 405.34C274.32 403.72 275.65 402.39 277.28 402.39Z" />
		<path id="Path 30" class="shp0" d="M1174.07 613.92C1174.68 613.31 1175.67 613.31 1176.28 613.92C1176.89 614.54 1176.89 615.53 1176.28 616.14L1171.3 621.13C1170.69 621.74 1169.7 621.74 1169.08 621.13C1168.47 620.52 1168.47 619.52 1169.08 618.91L1174.07 613.92ZM1179.79 624.61C1180.65 624.61 1181.35 625.31 1181.35 626.17C1181.35 627.04 1180.65 627.74 1179.79 627.74L1172.74 627.74C1171.88 627.74 1171.18 627.04 1171.18 626.17C1171.18 625.31 1171.88 624.61 1172.74 624.61L1179.79 624.61ZM1176.28 636.21C1176.89 636.82 1176.89 637.81 1176.28 638.42C1175.67 639.03 1174.68 639.03 1174.07 638.42L1169.08 633.44C1168.47 632.83 1168.47 631.83 1169.08 631.22C1169.7 630.61 1170.69 630.61 1171.3 631.22L1176.28 636.21ZM1165.6 641.93C1165.6 642.79 1164.9 643.49 1164.03 643.49C1163.17 643.49 1162.47 642.79 1162.47 641.93L1162.47 634.88C1162.47 634.01 1163.17 633.31 1164.03 633.31C1164.9 633.31 1165.6 634.01 1165.6 634.88L1165.6 641.93ZM1154.01 638.42C1153.39 639.03 1152.4 639.03 1151.79 638.42C1151.18 637.81 1151.18 636.82 1151.79 636.21L1156.77 631.22C1157.39 630.61 1158.38 630.61 1158.99 631.22C1159.6 631.83 1159.6 632.83 1158.99 633.44L1154.01 638.42ZM1148.28 627.74C1147.42 627.74 1146.71 627.04 1146.71 626.17C1146.71 625.31 1147.42 624.61 1148.28 624.61L1155.33 624.61C1156.2 624.61 1156.9 625.31 1156.9 626.17C1156.9 627.04 1156.2 627.74 1155.33 627.74L1148.28 627.74ZM1151.79 616.14C1151.18 615.53 1151.18 614.54 1151.79 613.92C1152.4 613.31 1153.39 613.31 1154.01 613.92L1158.99 618.91C1159.6 619.52 1159.6 620.52 1158.99 621.13C1158.38 621.74 1157.39 621.74 1156.77 621.13L1151.79 616.14ZM1162.47 610.42C1162.47 609.56 1163.17 608.85 1164.03 608.85C1164.9 608.85 1165.6 609.56 1165.6 610.42L1165.6 617.47C1165.6 618.34 1164.9 619.04 1164.03 619.04C1163.17 619.04 1162.47 618.34 1162.47 617.47L1162.47 610.42Z" />
		<path id="Path 31" class="shp1" d="M190.2 149.46C190.81 148.85 191.8 148.85 192.42 149.46C193.03 150.07 193.03 151.06 192.42 151.67L187.43 156.66C186.82 157.27 185.83 157.27 185.22 156.66C184.6 156.05 184.6 155.05 185.22 154.44L190.2 149.46ZM195.92 160.14C196.79 160.14 197.49 160.84 197.49 161.71C197.49 162.57 196.79 163.27 195.92 163.27L188.87 163.27C188.01 163.27 187.3 162.57 187.3 161.71C187.3 160.84 188.01 160.14 188.87 160.14L195.92 160.14ZM192.42 171.74C193.03 172.35 193.03 173.34 192.42 173.95C191.8 174.56 190.81 174.56 190.2 173.95L185.22 168.97C184.6 168.36 184.6 167.36 185.22 166.75C185.83 166.14 186.82 166.14 187.43 166.75L192.42 171.74ZM181.73 177.46C181.73 178.32 181.03 179.03 180.17 179.03C179.3 179.03 178.6 178.32 178.6 177.46L178.6 170.41C178.6 169.55 179.3 168.84 180.17 168.84C181.03 168.84 181.73 169.55 181.73 170.41L181.73 177.46ZM170.14 173.95C169.53 174.56 168.53 174.56 167.92 173.95C167.31 173.34 167.31 172.35 167.92 171.74L172.9 166.75C173.52 166.14 174.51 166.14 175.12 166.75C175.73 167.36 175.73 168.36 175.12 168.97L170.14 173.95ZM164.41 163.27C163.55 163.27 162.85 162.57 162.85 161.71C162.85 160.84 163.55 160.14 164.41 160.14L171.46 160.14C172.33 160.14 173.03 160.84 173.03 161.71C173.03 162.57 172.33 163.27 171.46 163.27L164.41 163.27ZM167.92 151.67C167.31 151.06 167.31 150.07 167.92 149.46C168.53 148.85 169.53 148.85 170.14 149.46L175.12 154.44C175.73 155.05 175.73 156.05 175.12 156.66C174.51 157.27 173.52 157.27 172.9 156.66L167.92 151.67ZM178.6 145.95C178.6 145.09 179.3 144.39 180.17 144.39C181.03 144.39 181.73 145.09 181.73 145.95L181.73 153C181.73 153.87 181.03 154.57 180.17 154.57C179.3 154.57 178.6 153.87 178.6 153L178.6 145.95Z" />
		<path id="Path 32" class="shp0" d="M418.94 224.34C419.55 223.73 420.54 223.73 421.15 224.34C421.76 224.95 421.76 225.95 421.15 226.56L416.17 231.54C415.56 232.15 414.56 232.15 413.95 231.54C413.34 230.93 413.34 229.94 413.95 229.33L418.94 224.34ZM424.66 235.02C425.52 235.02 426.22 235.72 426.22 236.59C426.22 237.45 425.52 238.15 424.66 238.15L417.61 238.15C416.75 238.15 416.04 237.45 416.04 236.59C416.04 235.72 416.75 235.02 417.61 235.02L424.66 235.02ZM421.15 246.62C421.76 247.23 421.76 248.22 421.15 248.84C420.54 249.45 419.55 249.45 418.94 248.84L413.95 243.85C413.34 243.24 413.34 242.25 413.95 241.64C414.56 241.02 415.56 241.02 416.17 241.64L421.15 246.62ZM410.47 252.34C410.47 253.2 409.77 253.91 408.9 253.91C408.04 253.91 407.34 253.2 407.34 252.34L407.34 245.29C407.34 244.43 408.04 243.73 408.9 243.73C409.77 243.73 410.47 244.43 410.47 245.29L410.47 252.34ZM398.88 248.84C398.26 249.45 397.27 249.45 396.66 248.84C396.05 248.22 396.05 247.23 396.66 246.62L401.64 241.64C402.26 241.02 403.25 241.02 403.86 241.64C404.47 242.25 404.47 243.24 403.86 243.85L398.88 248.84ZM393.15 238.15C392.29 238.15 391.59 237.45 391.59 236.59C391.59 235.72 392.29 235.02 393.15 235.02L400.2 235.02C401.07 235.02 401.77 235.72 401.77 236.59C401.77 237.45 401.07 238.15 400.2 238.15L393.15 238.15ZM396.66 226.56C396.05 225.95 396.05 224.95 396.66 224.34C397.27 223.73 398.26 223.73 398.88 224.34L403.86 229.33C404.47 229.94 404.47 230.93 403.86 231.54C403.25 232.15 402.26 232.15 401.64 231.54L396.66 226.56ZM407.34 220.84C407.34 219.97 408.04 219.27 408.9 219.27C409.77 219.27 410.47 219.97 410.47 220.84L410.47 227.88C410.47 228.75 409.77 229.45 408.9 229.45C408.04 229.45 407.34 228.75 407.34 227.88L407.34 220.84Z" />
		<path id="Path 33" class="shp14" d="M774.42 304.03C774.42 304.03 770.2 287.16 784.41 278.25C798.61 269.34 874.99 265.51 864.25 342.54C853.5 419.56 828.94 485.45 874.23 503.9C874.23 503.9 878.07 505.57 876.44 508.84C874.8 512.1 867.42 510.03 867.42 510.03C867.42 510.03 877.49 524.2 860.03 533.91C842.56 543.61 764.54 553.51 768.49 477.25C772.43 401 774.42 304.03 774.42 304.03ZM888.47 819.71C888.47 819.71 933.84 802.56 975.53 790.68C1017.22 778.81 1070.26 799.92 1084.24 812.32C1098.23 824.72 1089.26 858.49 1084.24 869.31L780.29 905.99L476.34 869.31C471.32 858.49 462.35 824.72 476.34 812.32C490.32 799.92 543.36 778.81 585.05 790.68C626.74 802.56 672.11 819.71 672.11 819.71L780.29 828.15L888.47 819.71Z" />
		<path id="Path 34" class="shp15" d="M870.24 611.01C870.24 611.01 951.69 743.81 980.9 748C1010.11 752.19 1162.15 631.17 1165.91 628.35C1169.68 625.53 1168.22 620.59 1164.24 620.88C1160.26 621.19 1139.25 632.79 1137.89 633.7C1136.53 634.61 1136.44 633.21 1136.44 633.21C1140.47 614.53 1123.53 610.03 1119.06 609.74C1114.6 609.46 1111.21 611.41 1111.24 613.76C1111.26 616.11 1114.66 617.06 1114.66 617.06C1125.14 618.17 1127.63 627.13 1123.55 633.08C1119.46 639.01 1110.6 642.07 1103.91 636.23C1097.23 630.4 1102.23 622.65 1104.27 620.37C1106.31 618.09 1108.38 615.69 1106.18 613.49C1103.98 611.28 1101.64 613.29 1101.64 613.29C1080.4 628.01 1090.96 644.9 1090.96 644.9C1090.96 644.9 1093.13 650.83 1088.04 654.21C1082.95 657.58 997.3 699.4 991.44 699.92C987.06 700.3 945.06 617.11 920.56 567.14C908.64 542.84 891.89 514.22 868.41 506.77C868.41 506.77 833.79 518.87 870.24 611.01Z" />
		<path id="Path 35" class="shp16" d="M870.24 611.01C870.24 611.01 951.69 743.81 980.9 748C1010.11 752.19 1162.15 631.17 1165.91 628.35C1168.63 626.31 1168.63 623.17 1166.92 621.69C1166.66 624.12 1163.68 626.13 1156.74 631.12C1147.84 637.51 1078.87 690.18 1042.25 711.5C1005.64 732.81 996.11 742.09 980.06 737.33C964.01 732.56 949.96 708.49 929.9 682.91C909.84 657.32 879.99 572.56 880.25 541.46C880.35 529.19 883.88 522.47 888.12 518.82C882.14 513.31 875.59 509.05 868.41 506.77C868.41 506.77 833.79 518.87 870.24 611.01Z" />
		<path id="Path 36" class="shp15" d="M690.35 611.01C690.35 611.01 608.9 743.81 579.69 748C550.48 752.19 398.43 631.17 394.66 628.35C390.9 625.53 392.36 620.59 396.34 620.88C400.33 621.19 421.33 632.79 422.69 633.7C424.05 634.61 424.14 633.21 424.14 633.21C420.11 614.53 437.05 610.03 441.52 609.74C445.99 609.46 449.37 611.41 449.34 613.76C449.32 616.11 445.91 617.06 445.91 617.06C435.44 618.17 432.95 627.13 437.04 633.08C441.12 639.01 449.98 642.07 456.67 636.23C463.36 630.4 458.35 622.65 456.31 620.37C454.27 618.09 452.2 615.69 454.4 613.49C456.6 611.28 458.94 613.29 458.94 613.29C480.19 628.01 469.62 644.9 469.62 644.9C469.62 644.9 467.45 650.83 472.54 654.21C477.63 657.58 563.28 699.4 569.14 699.92C573.52 700.3 615.52 617.11 640.03 567.14C651.95 542.84 668.69 514.22 692.17 506.77C692.17 506.77 726.8 518.87 690.35 611.01Z" />
		<path id="Path 37" class="shp16" d="M690.34 611.01C690.34 611.01 608.9 743.81 579.69 748C550.48 752.19 398.43 631.17 394.66 628.35C391.29 625.82 392.11 621.59 395.18 620.95C395.48 623.69 397.87 626.02 402.49 629.36C409.76 634.63 523.87 716.14 549.95 729.17C576.04 742.22 580.55 741.21 602.62 715.63C624.69 690.05 677.35 594 674.35 553.88C673.39 541.12 668.58 533.8 662.47 529.73C670.93 519.02 680.75 510.39 692.17 506.77C692.17 506.77 726.8 518.87 690.34 611.01ZM1089.3 819.71C1095.46 834.92 1088.45 860.22 1084.24 869.31C1079.23 880.13 1012.47 909.42 939.65 914.17C866.82 918.92 783.45 929.21 777.64 930.26C771.84 931.32 650.72 945.83 632.78 951.64C614.84 957.44 625.13 937.39 636.47 934.22C647.82 931.05 653.49 931.58 657.06 929.74C660.62 927.89 673.15 918 696.37 909.29C719.59 900.58 731.46 886.6 737.8 880.53C744.13 874.46 757.85 873.4 766.03 875.78C774.21 878.15 779.75 891.08 798.48 891.35C817.22 891.61 852.31 881.32 910.09 855.72C953.03 836.71 991.59 824.54 1023.94 820.19C1032.51 819.04 1087.61 815.57 1089.3 819.71Z" />
		<path id="Path 38" class="shp17" d="M1089.3 819.71C1095.46 834.92 1088.45 860.22 1084.24 869.31C1079.23 880.13 1012.47 909.42 939.65 914.17C866.82 918.92 783.45 929.21 777.64 930.26C771.84 931.32 650.72 945.83 632.78 951.64C614.84 957.44 625.13 937.39 636.47 934.22C647.82 931.05 653.49 931.59 657.06 929.74C660.62 927.89 673.15 918 696.37 909.29C719.59 900.58 731.46 886.6 737.8 880.53C744.13 874.46 757.85 873.4 766.03 875.78C774.21 878.15 779.75 891.08 798.48 891.35C808.16 891.48 822.19 888.8 841.46 882.66C853.91 891.63 883.54 907.1 934.79 901.34C1005.56 893.39 1051.16 877.01 1062.94 868.24C1074.73 859.46 1084.26 832.13 1080 827.11C1075.74 822.1 1056.83 818.06 1056.77 818.05C1072.69 817.46 1088.41 817.53 1089.3 819.71Z" />
		<path id="Path 39" class="shp18" d="M780.29 837.65C780.29 837.65 842.03 839.76 888.47 819.71C888.47 819.71 859.45 793.85 855.49 767.99C851.53 742.13 852.85 693.06 854.43 681.97C856.01 670.89 870.53 620.76 870.53 606.78C870.53 592.79 876.86 518.39 868.41 506.77C868.41 506.77 837.6 499.1 821.24 494.35C804.88 489.6 806.2 463.21 806.2 449.75C806.2 436.3 806.2 434.98 806.2 434.98L780.29 432.63L754.38 434.98C754.38 434.98 754.38 436.3 754.38 449.75C754.38 463.21 755.7 489.6 739.34 494.35C722.98 499.1 692.17 506.77 692.17 506.77C683.72 518.39 690.06 592.79 690.06 606.78C690.06 620.76 704.57 670.89 706.15 681.97C707.73 693.06 709.05 742.13 705.09 767.99C701.14 793.85 672.11 819.71 672.11 819.71C718.55 839.76 780.29 837.65 780.29 837.65Z" />
		<path id="Path 40" class="shp19" d="M780.29 837.65C780.29 837.65 842.03 839.76 888.47 819.71C888.47 819.71 859.45 793.85 855.49 767.99C851.53 742.13 852.85 693.06 854.43 681.97C856.01 670.89 870.53 620.76 870.53 606.78C870.53 592.79 876.86 518.39 868.41 506.77C868.41 506.77 859.26 504.49 848.29 501.65L842.12 521.7L844.88 527.72C844.88 527.72 860.68 529.98 863.94 533.49C867.2 537 867.95 542.02 866.95 568.86C865.94 595.69 856.92 634.31 812.53 634.06C768.14 633.81 742.31 634.06 731.77 634.06C721.24 634.06 813.53 652.87 824.56 658.89C835.6 664.91 831.59 750.92 831.59 769.99C831.59 789.05 808.94 822.74 739.01 835.74C762.59 838.25 780.29 837.65 780.29 837.65Z" />
		<path id="Path 41" class="shp16" d="M854.01 503.12C843.78 500.5 830.29 496.98 821.24 494.35C808.06 490.52 806.35 472.64 806.19 458.8L780.29 454.84L754.4 458.8C754.23 472.64 752.53 490.52 739.35 494.35C730.29 496.98 716.81 500.5 706.58 503.12C706.58 503.12 714.49 548.78 718.18 557.22C721.87 565.66 751.64 588.35 780.29 588.35C808.94 588.35 838.72 565.66 842.41 557.22C846.1 548.78 854.01 503.12 854.01 503.12Z" />
		<path id="Path 42" class="shp17" d="M769.37 587.33C772.99 587.99 776.65 588.35 780.29 588.35C783.34 588.35 786.4 588.1 789.44 587.63C789.36 587.54 783.32 581.02 784.94 571.81C786.57 562.53 780.05 569.42 779.17 574.06C778.3 578.7 777.11 586.68 769.37 587.33ZM854.01 503.12C843.78 500.5 830.29 496.98 821.24 494.35C809.24 490.86 806.75 475.75 806.28 462.62C802.09 462.2 798.42 461.96 795.48 461.96C784.44 461.96 770.11 460.24 757.54 458.32L754.4 458.8C754.28 468.44 753.42 480.04 748.45 487.49C769.84 493.19 808.96 503.7 823.06 507.98C842.87 514 842.41 557.22 842.41 557.22C846.1 548.78 854.01 503.12 854.01 503.12Z" />
		<path id="Path 43" class="shp14" d="M765.81 311.91C765.79 311.79 757.38 272.33 799.34 276.16L799.04 279.42C761.51 276 769.01 311.16 769.02 311.27L765.81 311.91ZM828.34 277.99C828.45 277.98 868.21 272.73 862.52 312.25L859.27 311.79C864.34 276.55 828.83 281.24 828.73 281.25L828.34 277.99Z" />
		<path id="Path 44" class="shp11" d="M796.88 350.26C812.96 350.26 826.08 337.14 826.08 321.06C826.08 304.99 812.96 291.87 796.88 291.87C780.81 291.87 767.69 304.99 767.69 321.06C767.69 337.14 780.81 350.26 796.88 350.26Z" />
		<path id="Path 45" class="shp17" d="M715.44 392.48C715 392.54 714.56 392.61 714.12 392.7L714.11 392.71L714.11 392.7C706.1 394.38 700.01 401.42 699.84 409.95C699.66 419.87 707.55 428.07 717.47 428.26C727.4 428.45 735.59 420.56 735.78 410.64C735.89 404.87 733.27 399.68 729.11 396.32C729.57 401.62 728.72 408.19 721.95 408.85L722.15 398.49C722.23 394.29 718.32 392.36 715.44 392.48ZM845.14 392.48C845.58 392.54 846.02 392.61 846.46 392.7L846.47 392.71L846.47 392.7C854.48 394.38 860.57 401.42 860.73 409.95C860.92 419.87 853.03 428.07 843.11 428.26C833.18 428.45 824.99 420.56 824.8 410.64C824.69 404.87 827.31 399.68 831.47 396.32C831.01 401.62 831.86 408.19 838.63 408.85L838.43 398.49C838.35 394.29 842.26 392.36 845.14 392.48Z" />
		<path id="Path 46" class="shp15" d="M780.29 302.71C746.45 302.71 718.76 330.4 718.76 364.24L718.76 420.2C718.76 454.04 746.45 481.72 780.29 481.72C814.12 481.72 841.81 454.04 841.81 420.2L841.81 364.24C841.81 330.4 814.12 302.71 780.29 302.71Z" />
		<path id="Path 47" class="shp16" d="M780.29 481.72C814.12 481.72 841.81 454.04 841.81 420.2L841.81 364.24C841.81 356.01 840.18 348.16 837.21 340.97C825.63 333.56 817.05 330.05 817.05 330.05L724.51 346.85L718.76 369.17L728.65 374.06L730.65 374.06C730.65 374.06 733.41 363.9 744.07 363.9C754.73 363.9 791.22 363.9 803.76 363.9C816.3 363.9 826.08 363.78 826.08 380.58C826.08 397.38 829.46 407.79 833.22 411.55C833.22 411.55 833.22 417.97 833.22 429.31C833.22 440.64 817.02 477.91 780.29 481.72Z" />
		<path id="Path 48" class="shp17" d="M815.17 423.24C810.71 423.16 807.01 426.71 806.93 431.18C806.84 435.64 810.4 439.34 814.86 439.42C819.33 439.5 823.03 435.95 823.11 431.49C823.19 427.02 819.64 423.33 815.17 423.24ZM745.58 421.92C741.11 421.84 737.42 425.39 737.34 429.85C737.25 434.32 740.81 438.01 745.27 438.1C749.74 438.18 753.43 434.63 753.52 430.16C753.6 425.69 750.05 422 745.58 421.92Z" />
		<path id="Path 49" class="shp14" d="M742.21 393.3C741.1 393.86 739.75 393.41 739.2 392.3C738.64 391.19 739.09 389.84 740.2 389.28C746.01 386.29 753.77 385.94 759.47 389.36C760.53 390 760.88 391.39 760.24 392.45C759.61 393.51 758.22 393.86 757.16 393.22C752.58 390.48 746.85 391.09 742.21 393.3ZM818.78 407.28C818.78 408.78 818.19 410.21 817.13 411.26C816.07 412.32 814.64 412.91 813.15 412.91C811.65 412.91 810.23 412.32 809.16 411.26C808.11 410.21 807.52 408.78 807.52 407.28C807.52 406.04 806.51 405.03 805.26 405.03C804.02 405.03 803.01 406.04 803.01 407.28C803.01 409.98 804.07 412.55 805.98 414.45C807.89 416.36 810.45 417.42 813.15 417.42C815.84 417.42 818.41 416.36 820.32 414.45C821.3 413.47 822.05 412.32 822.56 411.06C822.85 411 823.42 410.95 823.93 411.33C824.22 411.55 824.62 411.49 824.84 411.21C825.05 410.92 824.99 410.52 824.71 410.3C824.13 409.86 823.51 409.74 822.99 409.74L823 409.69C823.54 409.57 824.24 409.55 824.96 409.9C825.29 410.05 825.67 409.91 825.82 409.59C825.97 409.27 825.84 408.88 825.52 408.73C824.7 408.35 823.91 408.29 823.23 408.36L823.23 408.35C823.8 408.12 824.48 407.98 825.25 408.07C825.61 408.11 825.93 407.86 825.97 407.51C826.01 407.15 825.75 406.83 825.4 406.79C824.61 406.69 823.89 406.78 823.26 406.97C823.11 405.88 822.18 405.03 821.03 405.03C819.79 405.03 818.78 406.04 818.78 407.28ZM820.7 393.31C816.06 391.09 810.33 390.48 805.75 393.22C804.69 393.86 803.3 393.51 802.66 392.45C802.03 391.39 802.38 390 803.44 389.36C809.14 385.94 816.9 386.29 822.71 389.28C823.82 389.84 824.27 391.19 823.71 392.3C823.16 393.41 821.81 393.86 820.7 393.31Z" />
		<path id="Path 50" class="shp20" d="M718.76 400.68L718.76 409.35C721.69 409.35 725.24 405.09 725.24 401.27C725.24 397.45 725.24 393.34 725.24 393.34C725.24 393.34 732.12 382.44 732.12 370.98C732.12 359.53 734.78 352.7 744.59 352.7C754.4 352.7 764.22 357.83 780.29 357.83C796.37 357.83 806.19 352.7 816 352.7C825.8 352.7 828.47 359.53 828.47 370.98C828.47 382.44 835.35 393.34 835.35 393.34C835.35 393.34 835.35 397.45 835.35 401.27C835.35 405.09 838.9 409.35 841.82 409.35L841.82 400.68C841.78 394.7 843.97 392.51 843.97 392.51C843.97 392.51 843.97 392.22 843.97 366.76C843.97 279.11 716.62 279.11 716.62 366.76C716.62 392.22 716.62 392.51 716.62 392.51C716.62 392.51 718.8 394.7 718.76 400.68Z" />
		<path id="Path 51" class="shp21" d="M815.8 311.14C813.98 309.98 812.1 308.92 810.18 307.96C811.15 316.24 808.81 329.47 785.82 334.05C761.57 338.89 753.44 319.6 750.75 307.78C743.07 311.56 736.12 316.92 730.53 323.87C738.65 333.28 750.84 343.56 766.51 345.84C793.8 349.81 821.24 330.85 815.8 311.14Z" />
		<path id="Path 52" class="shp14" d="M808.51 353.51C811.07 353.02 813.54 352.7 816 352.7C825.8 352.7 828.47 359.53 828.47 370.98C828.47 382.44 835.35 393.34 835.35 393.34C835.35 393.34 835.35 397.45 835.35 401.27C835.35 405.09 838.9 409.35 841.82 409.35L841.82 400.68C841.78 394.7 843.97 392.51 843.97 392.51C843.97 392.51 843.97 392.22 843.97 366.76C843.97 346.08 836.87 330.29 826.04 319.37C840.65 342.97 808.51 353.51 808.51 353.51ZM718.76 400.68L718.76 409.35C721.69 409.35 725.24 405.09 725.24 401.27C725.24 397.45 725.24 393.34 725.24 393.34C725.24 393.34 732.12 382.44 732.12 370.98C732.12 360.99 734.15 354.52 741.16 353.03L741.16 353.03C730.33 349.43 724.53 344.38 721.61 339.24C718.44 347.18 716.62 356.34 716.62 366.76C716.62 392.22 716.62 392.51 716.62 392.51C716.62 392.51 718.8 394.7 718.76 400.68ZM744.13 407.28C744.13 408.78 744.72 410.21 745.78 411.26C746.84 412.32 748.26 412.91 749.76 412.91C751.26 412.91 752.68 412.32 753.74 411.26C754.8 410.21 755.39 408.78 755.39 407.28C755.39 406.04 756.4 405.03 757.65 405.03C758.89 405.03 759.9 406.04 759.9 407.28C759.9 409.98 758.84 412.55 756.93 414.45C755.02 416.36 752.46 417.42 749.76 417.42C747.06 417.42 744.5 416.36 742.59 414.45C741.61 413.47 740.85 412.32 740.35 411.06C740.06 411 739.49 410.95 738.98 411.33C738.69 411.55 738.29 411.49 738.07 411.21C737.86 410.92 737.91 410.52 738.2 410.3C738.78 409.86 739.4 409.74 739.92 409.74L739.91 409.69C739.37 409.57 738.67 409.55 737.94 409.9C737.62 410.05 737.24 409.91 737.09 409.59C736.93 409.27 737.07 408.88 737.39 408.73C738.21 408.35 739 408.29 739.68 408.36L739.68 408.35C739.11 408.12 738.43 407.98 737.66 408.07C737.31 408.11 736.98 407.86 736.94 407.51C736.9 407.15 737.16 406.83 737.51 406.79C738.3 406.69 739.02 406.78 739.64 406.97C739.8 405.88 740.74 405.03 741.88 405.03C743.12 405.03 744.13 406.04 744.13 407.28Z" />
		<path id="Path 53" class="shp22" d="M773.29 439.25C773.27 437.87 772.14 436.76 770.76 436.78C769.38 436.79 768.27 437.93 768.29 439.31C768.33 442.63 769.72 445.63 771.93 447.78C774.15 449.95 777.18 451.26 780.5 451.22C783.81 451.18 786.81 449.79 788.97 447.58C791.13 445.36 792.45 442.33 792.41 439.01C792.39 437.63 791.26 436.53 789.88 436.54C788.5 436.56 787.39 437.7 787.41 439.07C787.43 441.03 786.66 442.8 785.41 444.09C784.14 445.39 782.39 446.2 780.44 446.22C778.49 446.24 776.71 445.47 775.42 444.22C774.12 442.95 773.31 441.2 773.29 439.25Z" />
		<path id="Path 54" class="shp15" d="M471.1 819.71C464.93 834.92 471.94 860.22 476.15 869.31C481.16 880.13 547.92 909.42 620.74 914.17C693.57 918.92 776.94 929.21 782.75 930.26C788.56 931.32 909.67 945.83 927.61 951.64C945.55 957.44 935.26 937.39 923.91 934.22C912.57 931.05 906.9 931.58 903.34 929.74C899.78 927.89 887.24 918 864.02 909.29C840.8 900.58 828.93 886.6 822.6 880.53C816.26 874.46 802.54 873.4 794.36 875.78C786.18 878.15 780.64 891.08 761.91 891.35C743.17 891.61 708.08 881.32 650.3 855.72C607.36 836.71 568.8 824.54 536.45 820.19C527.88 819.04 472.78 815.57 471.1 819.71Z" />
		<path id="Path 55" class="shp16" d="M471.1 819.71C464.93 834.92 471.94 860.22 476.15 869.31C481.16 880.13 547.92 909.42 620.74 914.17C693.57 918.92 776.94 929.21 782.75 930.26C788.56 931.32 909.67 945.83 927.61 951.64C937.53 954.85 938.82 950.15 936.07 944.77C935.83 946.81 932.53 947.86 923 945.6C913.47 943.35 860.93 928.68 815.54 921.91C770.15 915.14 755.1 919.4 673.84 910.37C592.59 901.34 528.63 880.28 506.81 870.25C485 860.21 479.48 843.41 492.27 830.62C505.05 817.84 558.44 824.14 558.5 824.14C550.87 822.46 543.51 821.14 536.45 820.19C527.88 819.04 472.78 815.57 471.1 819.71Z" />
		<path id="Path 56" class="shp7" d="M756.83 354.52C756.83 354.52 750.82 345.34 747.35 345.22C744.2 345.11 741.68 350.35 740.25 353.26C741.51 352.89 742.95 352.7 744.59 352.7C748.53 352.7 752.47 353.53 756.82 354.52L756.83 354.52Z" />
		<path id="Path 57" class="shp10" d="M756.83 354.52C756.83 354.52 751.94 347.35 746.35 347.16C740.77 346.97 733.58 374.56 738.53 391.2C738.53 391.2 740.21 395.85 733.67 396.61C727.13 397.37 722.9 393.19 724.33 374.59C725.77 355.99 737.02 343.46 745 343.56C752.97 343.65 755.76 351.34 756.83 354.52Z" />
		<path id="Path 58" class="shp15" d="M1126.03 634.84C1136.41 616.96 1150.76 598.92 1152.27 606.16C1153.79 613.4 1139.6 629.97 1133.02 637.93C1126.43 645.88 1126.03 634.84 1126.03 634.84ZM1128.77 635.61C1144.62 618.74 1164.81 602.71 1164.64 610.99C1164.46 619.26 1144.8 633.73 1135.61 640.73C1126.42 647.73 1128.77 635.61 1128.77 635.61Z" />
		<path id="Path 59" class="shp16" d="M1134.09 617.93C1133.71 617.39 1133.3 616.89 1132.88 616.42C1128.42 611.49 1121.65 609.91 1119.06 609.74C1114.6 609.46 1111.21 611.41 1111.24 613.76C1111.26 616.11 1114.66 617.06 1114.66 617.06C1125.14 618.17 1127.63 627.13 1123.55 633.08C1122.41 634.72 1120.91 636.15 1119.18 637.23C1119.65 637.11 1120.13 636.92 1120.66 636.76C1125.3 635.34 1140.09 625.39 1134.09 617.93Z" />
		<path id="Path 60" class="shp15" d="M1136.91 637.67C1136.58 640.89 1135.73 644.49 1133.49 648.4C1145.25 639.68 1153.95 633.12 1156.74 631.12C1163.68 626.13 1166.66 624.12 1166.92 621.69C1166.26 621.12 1165.35 620.8 1164.24 620.88C1161.07 621.12 1147.13 628.51 1140.88 631.99C1139.27 632.88 1138.17 633.51 1137.89 633.7C1137.56 633.92 1137.3 634 1137.11 634.01C1137.09 635.16 1137.04 636.39 1136.91 637.67ZM434.57 634.84C424.18 616.96 409.83 598.92 408.32 606.16C406.8 613.4 420.99 629.97 427.57 637.93C434.16 645.88 434.57 634.84 434.57 634.84ZM431.82 635.61C415.97 618.74 395.78 602.71 395.96 610.99C396.13 619.26 415.79 633.73 424.98 640.73C434.17 647.73 431.82 635.61 431.82 635.61Z" />
		<path id="Path 61" class="shp16" d="M426.5 617.93C426.88 617.39 427.29 616.89 427.71 616.42C432.17 611.49 438.94 609.91 441.53 609.74C446 609.46 449.38 611.41 449.35 613.76C449.33 616.11 445.93 617.06 445.93 617.06C435.45 618.17 432.96 627.13 437.05 633.08C438.18 634.72 439.68 636.15 441.41 637.23C440.94 637.11 440.46 636.92 439.93 636.76C435.29 635.34 420.5 625.39 426.5 617.93Z" />
		<path id="Path 62" fill-rule="evenodd" class="shp23" d="M786.63 996.3L789.13 996.3L781.75 1014.03C780.86 1016.16 779.37 1016.99 777.41 1017.02C776.93 1017.02 776.16 1016.93 775.74 1016.8L776.1 1014.73C776.44 1014.88 776.99 1014.98 777.35 1014.98C778.36 1014.98 779.03 1014.64 779.55 1013.42L780.53 1011.19L774.36 996.3L776.83 996.3L781.75 1008.38L786.63 996.3ZM773.6 1003.68C773.6 1008.47 770.88 1011.4 767.04 1011.4C764.96 1011.4 763.16 1010.34 762.06 1008.84L762.06 1011.04L759.77 1011.04L759.77 990.68L762.06 990.68L762.06 998.53C763.25 996.91 765.02 995.93 767.04 995.93C770.88 995.93 773.6 998.99 773.6 1003.68ZM771.22 1003.68C771.22 1000.42 769.45 997.98 766.46 997.98C764.66 997.98 762.86 999.07 762.06 1000.36L762.06 1007.04C762.86 1008.32 764.66 1009.36 766.46 1009.36C769.45 1009.36 771.22 1006.95 771.22 1003.68ZM746.56 990.68L748.85 990.68L748.85 1011.04L746.56 1011.04L746.56 1008.84C745.46 1010.34 743.66 1011.4 741.59 1011.4C737.74 1011.4 735.03 1008.47 735.03 1003.68C735.03 998.99 737.71 995.93 741.59 995.93C743.57 995.93 745.37 996.91 746.56 998.53L746.56 990.68ZM746.56 1000.36C745.74 999.07 743.97 997.98 742.14 997.98C739.18 997.98 737.41 1000.42 737.41 1003.68C737.41 1006.95 739.18 1009.36 742.14 1009.36C743.97 1009.36 745.74 1008.32 746.56 1007.04L746.56 1000.36ZM732.95 1003.84L732.95 1004.42L721.02 1004.42C721.2 1007.19 723.15 1009.51 726.33 1009.51C728.01 1009.51 729.72 1008.84 730.88 1007.65L731.97 1009.15C730.51 1010.61 728.52 1011.4 726.11 1011.4C721.75 1011.4 718.61 1008.26 718.61 1003.65C718.61 999.38 721.66 995.93 725.87 995.93C730.33 995.93 732.95 999.41 732.95 1003.84ZM730.69 1002.74C730.66 1000.54 729.2 997.82 725.84 997.82C722.7 997.82 721.14 1000.48 721.02 1002.74L730.69 1002.74ZM715.65 1000.69L715.65 1011.04L713.36 1011.04L713.36 1001.4C713.36 998.8 712.05 997.98 710.06 997.98C708.26 997.98 706.55 999.07 705.7 1000.27L705.7 1011.04L703.41 1011.04L703.41 996.3L705.7 996.3L705.7 998.44C706.74 997.21 708.75 995.93 710.95 995.93C714.03 995.93 715.65 997.49 715.65 1000.69ZM697.31 996.3L699.6 996.3L699.6 1010.61C699.6 1015.49 696.18 1017.02 692.58 1017.02C690.07 1017.02 688.37 1016.53 686.63 1014.82L687.79 1013.11C689.01 1014.58 690.47 1015.13 692.58 1015.13C695.02 1015.13 697.31 1013.94 697.31 1010.7L697.31 1008.6C696.24 1010.09 694.44 1011.22 692.36 1011.22C688.52 1011.22 685.8 1008.35 685.8 1003.59C685.8 998.86 688.49 995.93 692.36 995.93C694.35 995.93 696.12 996.91 697.31 998.53L697.31 996.3ZM697.31 1000.36C696.51 999.07 694.75 997.98 692.91 997.98C689.95 997.98 688.19 1000.33 688.19 1003.59C688.19 1006.83 689.95 1009.21 692.91 1009.21C694.75 1009.21 696.51 1008.08 697.31 1006.8L697.31 1000.36ZM680.56 996.3L682.85 996.3L682.85 1011.04L680.56 1011.04L680.56 996.3ZM683.24 992.67C683.24 993.52 682.54 994.19 681.69 994.19C680.86 994.19 680.16 993.52 680.16 992.67C680.16 991.81 680.86 991.11 681.69 991.11C682.54 991.11 683.24 991.81 683.24 992.67ZM677.6 1006.95C677.6 1009.42 675.61 1011.4 671.8 1011.4C669.39 1011.4 667.34 1010.67 665.85 1009.09L667.04 1007.44C668.01 1008.57 669.88 1009.54 671.89 1009.54C674.15 1009.54 675.37 1008.47 675.37 1007.01C675.37 1003.44 666.24 1005.64 666.24 1000.18C666.24 997.89 668.23 995.93 671.74 995.93C674.24 995.93 676.01 996.88 677.2 998.07L676.13 999.66C675.25 998.59 673.63 997.79 671.74 997.79C669.72 997.79 668.47 998.8 668.47 1000.11C668.47 1003.35 677.6 1001.21 677.6 1006.95ZM664.2 1003.84L664.2 1004.42L652.27 1004.42C652.45 1007.19 654.4 1009.51 657.58 1009.51C659.26 1009.51 660.97 1008.84 662.12 1007.65L663.22 1009.15C661.76 1010.61 659.77 1011.4 657.36 1011.4C653 1011.4 649.86 1008.26 649.86 1003.65C649.86 999.38 652.91 995.93 657.12 995.93C661.58 995.93 664.2 999.41 664.2 1003.84ZM661.94 1002.74C661.91 1000.54 660.45 997.82 657.09 997.82C653.95 997.82 652.39 1000.48 652.27 1002.74L661.94 1002.74ZM644.61 990.68L646.9 990.68L646.9 1011.04L644.61 1011.04L644.61 1008.84C643.51 1010.34 641.71 1011.4 639.63 1011.4C635.79 1011.4 633.07 1008.47 633.07 1003.68C633.07 998.99 635.76 995.93 639.63 995.93C641.62 995.93 643.42 996.91 644.61 998.53L644.61 990.68ZM644.61 1000.36C643.79 999.07 642.01 997.98 640.18 997.98C637.22 997.98 635.45 1000.42 635.45 1003.68C635.45 1006.95 637.22 1009.36 640.18 1009.36C642.01 1009.36 643.79 1008.32 644.61 1007.04L644.61 1000.36ZM929.43 1011.17L924.47 1011.17L918.81 1005.13L918.81 1011.17L914.79 1011.17L914.79 988.97L918.81 988.97L918.81 1001.55L924.45 996.23L929.38 996.23L922.13 1003.26L929.43 1011.17ZM908.08 996.23L912.1 996.23L912.1 1011.17L908.08 1011.17L908.08 996.23ZM912.64 991.34C912.64 992.79 911.51 993.9 910.07 993.9C908.61 993.9 907.51 992.79 907.51 991.34C907.51 989.89 908.61 988.75 910.07 988.75C911.51 988.75 912.64 989.89 912.64 991.34ZM906.18 1003.69C906.18 1008.18 903.06 1011.56 898.94 1011.56C896.94 1011.56 895.52 1010.77 894.55 1009.62L894.55 1017.34L890.54 1017.34L890.54 996.23L894.47 996.23L894.47 997.88C895.44 996.66 896.88 995.83 898.93 995.83C903.06 995.83 906.18 999.21 906.18 1003.69ZM902.04 1003.69C902.04 1001.41 900.56 999.58 898.19 999.58C895.91 999.58 894.35 1001.34 894.35 1003.69C894.35 1006.05 895.91 1007.81 898.19 1007.81C900.56 1007.81 902.04 1005.98 902.04 1003.69ZM888.79 1003.68C888.79 1004.14 888.76 1004.7 888.71 1005.04L878.12 1005.04C878.55 1007.2 880.06 1008.14 881.96 1008.14C883.25 1008.14 884.66 1007.61 885.73 1006.7L888.09 1009.29C886.4 1010.85 884.24 1011.56 881.73 1011.56C877.14 1011.56 873.97 1008.44 873.97 1003.74C873.97 999.04 877.05 995.83 881.53 995.83C885.83 995.83 888.77 999.02 888.79 1003.68ZM884.75 1002.29C884.38 1000.38 883.22 999.3 881.49 999.3C879.6 999.3 878.49 1000.44 878.13 1002.29L884.75 1002.29ZM872.84 1003.68C872.84 1004.14 872.81 1004.7 872.77 1005.04L862.17 1005.04C862.61 1007.2 864.11 1008.14 866.01 1008.14C867.31 1008.14 868.71 1007.61 869.79 1006.7L872.15 1009.29C870.45 1010.85 868.29 1011.56 865.78 1011.56C861.2 1011.56 858.02 1008.44 858.02 1003.74C858.02 999.04 861.11 995.83 865.58 995.83C869.88 995.83 872.83 999.02 872.84 1003.68ZM868.8 1002.29C868.43 1000.38 867.28 999.3 865.55 999.3C863.66 999.3 862.54 1000.44 862.19 1002.29L868.8 1002.29ZM859 996.53L856.87 999.77C856.5 999.7 856.12 999.67 855.77 999.67C853.91 999.67 852.63 1000.81 852.63 1003.03L852.63 1011.17L848.6 1011.17L848.6 996.23L852.51 996.23L852.51 997.86C853.45 996.46 854.88 995.83 856.71 995.83C857.58 995.83 858.48 996.1 859 996.53ZM842.44 996.23L847.08 996.23L847.08 999.81L842.44 999.81L842.44 1011.17L838.41 1011.17L838.41 999.81L835.62 999.81L835.62 996.23L838.41 996.23L838.41 994.38C838.41 990.88 840.28 988.58 843.76 988.58C845.1 988.58 846.17 988.84 847.08 989.22L847.08 992.82C846.46 992.58 845.39 992.18 844.19 992.33C843.05 992.47 842.44 993.04 842.44 994.43L842.44 996.23ZM826.3 999.76C826.35 1000.16 826.38 1000.56 826.39 1000.97C823.53 1003.47 818.49 1005.11 812.49 1005.47C806.99 1005.8 802.75 1004.95 801.35 1003.94C801.16 1003.09 801.07 1002.2 801.07 1001.32C801.07 994.49 806.75 988.94 813.73 988.94C820.1 988.94 825.51 993.59 826.3 999.76ZM813.09 998.65C813.09 996.53 811.36 994.8 809.23 994.8C807.11 994.8 805.38 996.53 805.38 998.65C805.38 1000.78 807.11 1002.51 809.23 1002.51C811.36 1002.51 813.09 1000.78 813.09 998.65ZM821.94 997.78C821.94 996.22 820.67 994.95 819.1 994.95C817.54 994.95 816.27 996.22 816.27 997.78C816.27 999.34 817.54 1000.62 819.1 1000.62C820.67 1000.62 821.94 999.34 821.94 997.78ZM820.87 1005.6C822.86 1004.98 824.57 1004.2 825.99 1003.26C824.56 1008.65 819.55 1012.64 813.6 1012.64C808.76 1012.64 804.55 1010.01 802.37 1006.13C803.26 1006.42 804.2 1006.61 805.02 1006.74C806.57 1006.99 808.35 1007.12 810.18 1007.12C810.98 1007.12 811.79 1007.09 812.59 1007.04C815.55 1006.87 818.41 1006.37 820.87 1005.6ZM828.58 989.68C828.67 990.37 828.18 991 827.49 991.08C827.35 991.1 827.22 991.09 827.09 991.07L826.25 991.8C827.04 992.79 827.69 993.86 828.21 995.02L826.78 995.67C825.65 993.17 823.8 991.06 821.44 989.57L822.28 988.24C823.36 988.92 824.34 989.72 825.21 990.61L826.08 989.86C826.07 989.22 826.54 988.67 827.18 988.59C827.87 988.5 828.5 988.99 828.58 989.68ZM806.81 987.33C808.18 986.68 809.61 986.23 811.1 985.99L810.95 984.69C810.5 984.48 810.17 984.04 810.11 983.51C810.01 982.69 810.6 981.95 811.41 981.86C812.23 981.76 812.98 982.35 813.07 983.16C813.14 983.7 812.91 984.2 812.52 984.51L812.67 985.81C813.02 985.79 813.38 985.78 813.73 985.78C814.88 985.78 816.02 985.9 817.14 986.14L816.8 987.69C815.8 987.46 814.77 987.36 813.73 987.36C811.54 987.36 809.44 987.83 807.49 988.76L806.81 987.33ZM803.43 991.67C801.47 993.69 800.18 996.19 799.7 998.91L798.14 998.64C798.36 997.37 798.74 996.16 799.26 995L798.32 994.51C798.21 994.57 798.08 994.61 797.94 994.62C797.25 994.7 796.63 994.21 796.55 993.52C796.47 992.83 796.96 992.21 797.65 992.13C798.3 992.05 798.88 992.48 799.02 993.1L799.99 993.6C800.63 992.51 801.4 991.5 802.3 990.57L803.43 991.67Z" />
		<path id="Shape 1" class="shp0" d="M543 975L997 975L997 1029L543 1029L543 975Z" />
	</g>
</svg>