<?xml version="1.0" encoding="UTF-8" standalone="no"?>
<svg
   xmlns:dc="http://purl.org/dc/elements/1.1/"
   xmlns:cc="http://creativecommons.org/ns#"
   xmlns:rdf="http://www.w3.org/1999/02/22-rdf-syntax-ns#"
   xmlns:svg="http://www.w3.org/2000/svg"
   xmlns="http://www.w3.org/2000/svg"
   viewBox="0 0 666.66669 666.66669"
   height="666.66669"
   width="666.66669"
   xml:space="preserve"
   id="svg2"
   version="1.1"><metadata
     id="metadata8"><rdf:RDF><cc:Work
         rdf:about=""><dc:format>image/svg+xml</dc:format><dc:type
           rdf:resource="http://purl.org/dc/dcmitype/StillImage" /></cc:Work></rdf:RDF></metadata><defs
     id="defs6"><clipPath
       id="clipPath20"
       clipPathUnits="userSpaceOnUse"><path
         id="path18"
         d="M 0,500 H 500 V 0 H 0 Z" /></clipPath><clipPath
       id="clipPath28"
       clipPathUnits="userSpaceOnUse"><path
         id="path26"
         d="M 0.274414,500 H 500 V 141.23 H 0.274414 Z" /></clipPath><clipPath
       id="clipPath46"
       clipPathUnits="userSpaceOnUse"><path
         id="path44"
         d="M 94.6704,215.834 H 225.582 V 122.78 H 94.6704 Z" /></clipPath><clipPath
       id="clipPath90"
       clipPathUnits="userSpaceOnUse"><path
         id="path88"
         d="M 286.988,291.738 H 388.451 V 137.934 H 286.988 Z" /></clipPath><clipPath
       id="clipPath110"
       clipPathUnits="userSpaceOnUse"><path
         id="path108"
         d="m 151.88,434.698 h 88.172 V 226.565 H 151.88 Z" /></clipPath><clipPath
       id="clipPath296"
       clipPathUnits="userSpaceOnUse"><path
         id="path294"
         d="m 0.275,38.667 h 499.726 v 87.059 H 0.275 Z" /></clipPath><clipPath
       id="clipPath304"
       clipPathUnits="userSpaceOnUse"><path
         id="path302"
         d="M -35.4072,126.015 H 25.1665 V 40.9824 h -60.5737 z" /></clipPath><clipPath
       id="clipPath320"
       clipPathUnits="userSpaceOnUse"><path
         id="path318"
         d="m 470.883,126.015 h 60.574 V 40.9824 h -60.574 z" /></clipPath><clipPath
       id="clipPath336"
       clipPathUnits="userSpaceOnUse"><path
         id="path334"
         d="M 31.228,125.964 H 77.7891 V 41.0332 H 31.228 Z" /></clipPath><clipPath
       id="clipPath352"
       clipPathUnits="userSpaceOnUse"><path
         id="path350"
         d="m 418.261,125.964 h 46.56 V 41.0332 h -46.56 z" /></clipPath><clipPath
       id="clipPath368"
       clipPathUnits="userSpaceOnUse"><path
         id="path366"
         d="m 105.198,125.894 h 30.999 V 41.1035 h -30.999 z" /></clipPath><clipPath
       id="clipPath384"
       clipPathUnits="userSpaceOnUse"><path
         id="path382"
         d="m 359.854,125.894 h 30.998 V 41.1035 h -30.998 z" /></clipPath><clipPath
       id="clipPath400"
       clipPathUnits="userSpaceOnUse"><path
         id="path398"
         d="m 178.458,125.811 h 15.57 V 41.1865 h -15.57 z" /></clipPath><clipPath
       id="clipPath416"
       clipPathUnits="userSpaceOnUse"><path
         id="path414"
         d="m 302.021,125.811 h 15.572 V 41.1865 h -15.572 z" /></clipPath><clipPath
       id="clipPath432"
       clipPathUnits="userSpaceOnUse"><path
         id="path430"
         d="m 249.774,123.27 h 1 V 41.2715 h -1 z" /></clipPath><clipPath
       id="clipPath448"
       clipPathUnits="userSpaceOnUse"><path
         id="path446"
         d="M 0.274414,42.4912 H 500.274 V 38.667 H 0.274414 Z" /></clipPath><clipPath
       id="clipPath462"
       clipPathUnits="userSpaceOnUse"><path
         id="path460"
         d="M 0,500 H 500 V 0 H 0 Z" /></clipPath><clipPath
       id="clipPath470"
       clipPathUnits="userSpaceOnUse"><path
         id="path468"
         d="M 151.517,86.1973 H 360.698 V 60.7422 H 151.517 Z" /></clipPath><clipPath
       id="clipPath570"
       clipPathUnits="userSpaceOnUse"><path
         id="path568"
         d="m 242.482,318.071 h 8.955 v -1.014 h -8.955 z" /></clipPath><clipPath
       id="clipPath586"
       clipPathUnits="userSpaceOnUse"><path
         id="path584"
         d="m 205.925,283.151 h 79.999 v -19.068 h -79.999 z" /></clipPath><clipPath
       id="clipPath606"
       clipPathUnits="userSpaceOnUse"><path
         id="path604"
         d="m 279.481,249.457 h 7.723 v -43.089 h -7.723 z" /></clipPath><clipPath
       id="clipPath634"
       clipPathUnits="userSpaceOnUse"><path
         id="path632"
         d="m 204.428,249.457 h 10.048 v -50.195 h -10.048 z" /></clipPath><clipPath
       id="clipPath662"
       clipPathUnits="userSpaceOnUse"><path
         id="path660"
         d="M 193.944,149.856 H 295.815 V 117.118 H 193.944 Z" /></clipPath><clipPath
       id="clipPath714"
       clipPathUnits="userSpaceOnUse"><path
         id="path712"
         d="m 231.293,293.582 c 0,0 -19.462,-8.602 -29.894,-15.813 v 0 l -0.01,0.005 c -1.249,-0.791 -2.507,-1.781 -3.751,-2.919 v 0 c -0.14,-0.127 -0.281,-0.253 -0.411,-0.378 v 0 c -7.485,-7.076 -14.28,-19.577 -14.619,-28.521 v 0 c 0,0 10.043,-15.213 23.549,-18.867 v 0 c 0.393,-6.491 0.14,-13.922 -1.157,-22.488 v 0 c -0.837,-5.524 -3.36,-42.719 -6.613,-57.084 v 0 c -0.32,-1.414 22.986,-2.646 48.984,-2.663 v 0 c 23.265,-0.013 43.189,1.936 44.074,2.735 v 0 c -0.116,-0.106 -6.357,42.144 -6.592,45.946 v 0 c -0.811,13.099 -0.449,23.967 0.551,33.038 v 0 c 14.697,2.344 25.945,19.383 25.945,19.383 v 0 c -0.402,10.588 -9.849,26.163 -18.781,31.818 v 0 l -0.006,-0.003 c -2.743,1.876 -6.435,3.711 -10.326,5.378 v 0 c -10.824,-15.115 -33.552,-13.753 -33.552,-13.753 v 0 l -14.872,2.472 7.106,27.827 z" /></clipPath><clipPath
       id="clipPath722"
       clipPathUnits="userSpaceOnUse"><path
         id="path720"
         d="M 168.374,275.528 H 320.667 V 152.808 H 168.374 Z" /></clipPath><clipPath
       id="clipPath754"
       clipPathUnits="userSpaceOnUse"><path
         id="path752"
         d="M 0,500 H 500 V 0 H 0 Z" /></clipPath><clipPath
       id="clipPath762"
       clipPathUnits="userSpaceOnUse"><path
         id="path760"
         d="m 197.619,268.035 h 49.384 v -28.827 h -49.384 z" /></clipPath></defs><g
     transform="matrix(1.3333333,0,0,-1.3333333,0,666.66667)"
     id="g10"><path
       id="path12"
       style="fill:#9feff0;fill-opacity:1;fill-rule:nonzero;stroke:none"
       d="M 0.275,0 H 500.001 V 141.231 H 0.275 Z" /><g
       id="g14"><g
         clip-path="url(#clipPath20)"
         id="g16"><g
           id="g22"><g
             id="g24" /><g
             id="g34"><g
               style="opacity:0.5"
               id="g32"
               clip-path="url(#clipPath28)"><path
                 id="path30"
                 style="fill:#9feff0;fill-opacity:1;fill-rule:nonzero;stroke:none"
                 d="M 500,141.23 H 0.274 V 500 H 500 Z" /></g></g></g><g
           transform="translate(406.8223,247.9082)"
           id="g36"><path
             id="path38"
             style="fill:#00213e;fill-opacity:1;fill-rule:nonzero;stroke:none"
             d="m 0,0 c 13.66,16.731 21.857,38.099 21.857,61.383 0,53.639 -43.484,97.123 -97.125,97.123 -17.986,0 -34.824,-4.894 -49.27,-13.416 -19.598,36.897 -58.412,62.027 -103.103,62.027 -64.438,0 -116.676,-52.238 -116.676,-116.676 0,-35.117 15.517,-66.608 40.066,-87.999 -21.773,-15.381 -36.007,-40.727 -36.007,-69.414 0,-46.919 38.036,-84.954 84.954,-84.954 46.919,0 177.116,8.299 219.271,8.299 42.156,0 76.329,34.175 76.329,76.331 C 40.296,-38.174 23.983,-12.868 0,0" /></g><g
           id="g40"><g
             id="g42" /><g
             id="g54"><g
               style="opacity:0.39999402"
               id="g52"
               clip-path="url(#clipPath46)"><g
                 id="g50"
                 transform="translate(225.5815,139.915)"><path
                   id="path48"
                   style="fill:#00b9c8;fill-opacity:1;fill-rule:nonzero;stroke:none"
                   d="m 0,0 c -14.582,7.095 -15.382,44.908 -31.948,48.474 -6.735,1.449 -11.668,-1.615 -17.765,3.6 -5.249,4.492 -9.318,16.369 -16.433,18.034 -7.643,1.786 -12.758,-9.403 -18.433,-11.837 -11.368,-4.881 -15.543,11.029 -22.808,15.383 -9.062,5.432 -20.592,0.681 -23.211,-9.865 -2.01,-8.098 5.913,-17.467 16.328,-18.597 3.727,-0.404 8.344,-2.697 10.028,-6.421 2.812,-6.216 -4.408,-13.445 -3.447,-19.354 1.477,-9.066 9.75,-12.659 17.719,-11.555 9.184,1.276 14.361,3.772 20.547,-4.714 4.54,-6.228 6.847,-14.145 14.075,-18.137 11.225,-6.2 20.052,2.381 28.605,8.76 9.572,7.14 14.436,7.63 24.978,2.239 0.307,-0.158 0.621,-0.315 0.943,-0.472 z" /></g></g></g></g><g
           transform="translate(96.7485,208.0791)"
           id="g56"><path
             id="path58"
             style="fill:none;stroke:#ffffff;stroke-width:1;stroke-linecap:butt;stroke-linejoin:miter;stroke-miterlimit:10;stroke-dasharray:none;stroke-opacity:1"
             d="M 0,0 C 16.926,-12.059 116.566,-65.326 128.459,-70.196" /></g><g
           transform="translate(156.5723,210.1064)"
           id="g60"><path
             id="path62"
             style="fill:none;stroke:#ffffff;stroke-width:1;stroke-linecap:butt;stroke-linejoin:miter;stroke-miterlimit:10;stroke-dasharray:none;stroke-opacity:1"
             d="m 0,0 c 0,0 -3.762,-17.017 1.07,-36.986 0,0 -20.569,-9.565 -35.579,-21.734" /></g><g
           transform="translate(109.1963,215.8008)"
           id="g64"><path
             id="path66"
             style="fill:none;stroke:#ffffff;stroke-width:1;stroke-linecap:butt;stroke-linejoin:miter;stroke-miterlimit:10;stroke-dasharray:none;stroke-opacity:1"
             d="m 0,0 c 0,0 2.049,-10.924 7.216,-19.731 0,0 -11.754,-1.279 -17.515,-4.727" /></g><g
           transform="translate(195.6143,187.7686)"
           id="g68"><path
             id="path70"
             style="fill:none;stroke:#ffffff;stroke-width:1;stroke-linecap:butt;stroke-linejoin:miter;stroke-miterlimit:10;stroke-dasharray:none;stroke-opacity:1"
             d="m 0,0 c 0,0 -3.756,-15.867 0.796,-35.376 0,0 -15.881,-7.902 -30.792,-23.818" /></g><g
           transform="translate(177.126,191.0205)"
           id="g72"><path
             id="path74"
             style="fill:none;stroke:#ffffff;stroke-width:1;stroke-linecap:butt;stroke-linejoin:miter;stroke-miterlimit:10;stroke-dasharray:none;stroke-opacity:1"
             d="m 0,0 c 0,0 -2.647,-14.15 -0.387,-28.2 0,0 -11.582,-5.196 -23.971,-16.075" /></g><g
           transform="translate(136.1143,197.3027)"
           id="g76"><path
             id="path78"
             style="fill:none;stroke:#ffffff;stroke-width:1;stroke-linecap:butt;stroke-linejoin:miter;stroke-miterlimit:10;stroke-dasharray:none;stroke-opacity:1"
             d="m 0,0 c 0,0 -0.806,-7.5 1.386,-13.126 0,0 -8.241,-3.521 -15.752,-10.863" /></g><g
           transform="translate(210.8691,164.1074)"
           id="g80"><path
             id="path82"
             style="fill:none;stroke:#ffffff;stroke-width:1;stroke-linecap:butt;stroke-linejoin:miter;stroke-miterlimit:10;stroke-dasharray:none;stroke-opacity:1"
             d="m 0,0 c 0,0 -1.52,-11.082 0.525,-19.485 0,0 -12.49,-7.709 -21.231,-17.388" /></g><g
           id="g84"><g
             id="g86" /><g
             id="g98"><g
               style="opacity:0.39999402"
               id="g96"
               clip-path="url(#clipPath90)"><g
                 id="g94"
                 transform="translate(286.9883,137.9336)"><path
                   id="path92"
                   style="fill:#00b9c8;fill-opacity:1;fill-rule:nonzero;stroke:none"
                   d="m 0,0 c 0.443,9.941 4.043,23.249 6.662,34.646 5.436,23.684 13.773,47.233 24.231,69.178 7.5,15.738 19.238,32.755 34.003,42.603 7.092,4.73 19.148,9.994 27.614,5.918 C 113.107,142.43 92.75,99.609 85.152,87.258 64.524,53.734 33.076,21.93 0,0" /></g></g></g></g><g
           transform="translate(387.7793,265.6553)"
           id="g100"><path
             id="path102"
             style="fill:#ffffff;fill-opacity:1;fill-rule:nonzero;stroke:none"
             d="M 0,0 0.265,0.814 C 0.124,0.861 -13.517,5.21 -25.052,2.324 -14.987,15.844 -8.159,24.1 -7.949,24.352 l -0.662,0.545 C -8.82,24.648 -15.582,16.47 -25.571,3.065 -24.104,15.782 -27.205,22.99 -27.346,23.3 l -0.782,-0.347 c 0.036,-0.077 3.401,-7.877 1.525,-21.278 -7.016,-9.459 -15.501,-21.346 -24.382,-34.791 4.602,22.888 1.442,39.384 1.409,39.553 L -50.419,6.27 c 0.035,-0.171 3.356,-17.487 -1.837,-41.276 l -0.011,-0.054 c -6.715,-10.236 -13.624,-21.332 -20.268,-32.918 3.286,24.534 -0.086,37.211 -0.121,37.342 l -0.826,-0.23 c 0.035,-0.13 3.557,-13.35 -0.195,-39.091 l -10e-4,-0.015 c -5.127,-9.024 -10.077,-18.327 -14.642,-27.738 2.432,19.403 1.041,28.31 1.026,28.404 l -0.847,-0.14 c 0.015,-0.097 1.512,-9.657 -1.368,-30.728 -4.337,-9.096 -8.296,-18.28 -11.681,-27.397 l 0.802,-0.301 c 3.381,9.107 7.336,18.286 11.673,27.373 10.969,9.452 32.194,8.869 32.409,8.863 l 0.029,0.857 c -0.21,0.007 -20.064,0.547 -31.586,-7.951 4.658,9.648 9.73,19.187 14.986,28.435 17.476,10.708 39.369,4.573 39.587,4.511 l 0.24,0.822 c -0.217,0.067 -21.408,6.004 -38.977,-3.848 6.749,11.788 13.773,23.072 20.601,33.466 12.087,8.286 39.296,1.531 39.571,1.459 l 0.212,0.832 c -1.092,0.279 -25.73,6.391 -38.687,-0.62 8.912,13.486 17.426,25.41 24.452,34.885 C -14.394,4.592 -0.145,0.046 0,0" /></g><g
           id="g104"><g
             id="g106" /><g
             id="g118"><g
               style="opacity:0.39999402"
               id="g116"
               clip-path="url(#clipPath110)"><g
                 id="g114"
                 transform="translate(238.5142,226.5654)"><path
                   id="path112"
                   style="fill:#00b9c8;fill-opacity:1;fill-rule:nonzero;stroke:none"
                   d="m 0,0 c 2.155,12.043 1.434,28.975 1.375,43.352 -0.121,29.865 -3.757,60.361 -10.365,89.504 -4.743,20.901 -14.221,44.481 -29.267,60.283 -7.226,7.587 -20.264,17.157 -31.516,14.558 -27.381,-6.326 -14.539,-63.177 -8.763,-80.044 C -62.858,81.878 -33.739,35.235 0,0" /></g></g></g></g><g
           transform="translate(152.1562,406.9702)"
           id="g120"><path
             id="path122"
             style="fill:#ffffff;fill-opacity:1;fill-rule:nonzero;stroke:none"
             d="M 0,0 -0.097,1.048 C 0.084,1.066 17.619,2.597 30.672,-3.983 22.254,14.951 16.297,26.697 16.114,27.054 l 0.941,0.478 c 0.182,-0.356 6.082,-11.992 14.438,-30.767 1.678,15.647 7.344,23.454 7.596,23.788 l 0.846,-0.628 c -0.063,-0.083 -6.207,-8.528 -7.581,-25.105 5.858,-13.238 12.821,-29.787 19.84,-48.313 0.665,28.694 8.913,47.622 8.999,47.816 l 0.965,-0.428 C 62.069,-6.301 53.408,-26.169 53.206,-56.1 v -0.068 c 5.287,-14.089 10.574,-29.265 15.413,-44.953 2.688,30.308 10.156,44.601 10.232,44.746 l 0.931,-0.498 C 79.703,-57.02 71.907,-71.92 69.451,-103.804 l -0.003,-0.018 c 3.711,-12.207 7.134,-24.701 10.064,-37.222 2.328,23.925 6.403,34.233 6.445,34.341 l 0.978,-0.396 c -0.043,-0.111 -4.421,-11.174 -6.664,-37.221 2.743,-12.081 5.01,-24.166 6.607,-36.012 l -1.044,-0.144 c -1.596,11.836 -3.858,23.909 -6.602,35.981 -10.601,14.295 -36.212,19.335 -36.469,19.385 l 0.198,1.037 c 0.251,-0.048 24.207,-4.766 35.728,-18.073 -2.979,12.83 -6.484,25.643 -10.288,38.151 -18.065,17.566 -45.976,16.125 -46.256,16.108 l -0.063,1.054 c 0.277,0.018 27.294,1.413 45.701,-15.151 -4.907,15.959 -10.284,31.392 -15.661,45.702 -12.258,13.204 -46.713,12.453 -47.061,12.443 l -0.029,1.054 c 1.383,0.039 32.581,0.711 46.224,-11.197 C 44.213,-35.399 37.229,-18.8 31.361,-5.539 18.5,1.617 0.183,0.017 0,0" /></g><g
           transform="translate(233.4678,160.5674)"
           id="g124"><path
             id="path126"
             style="fill:#00b9c8;fill-opacity:1;fill-rule:nonzero;stroke:none"
             d="m 0,0 c 0,0 -2.144,39.755 -26.917,80.479 l -7.351,-10.96 3.119,17.588 c -13.234,19.744 -32.049,39.22 -58.783,54.007 l -2.688,-13.089 -3.464,16.336 c -10.831,5.45 -22.877,10.146 -36.275,13.829 0,0 5.365,-45.903 32.261,-88.644 l 30.329,5.062 -22.534,-16.488 14.038,4.892 -9.785,-10.405 C -68.331,28.085 -40.133,7.051 0,0" /></g><g
           transform="translate(101.1084,318.7573)"
           id="g128"><path
             id="path130"
             style="fill:none;stroke:#ffffff;stroke-width:1;stroke-linecap:butt;stroke-linejoin:miter;stroke-miterlimit:10;stroke-dasharray:none;stroke-opacity:1"
             d="M 0,0 C 0,0 75.778,-67.459 132.359,-158.19" /></g><g
           transform="translate(129.7881,308.5327)"
           id="g132"><path
             id="path134"
             style="fill:none;stroke:#ffffff;stroke-width:1;stroke-linecap:butt;stroke-linejoin:miter;stroke-miterlimit:10;stroke-dasharray:none;stroke-opacity:1"
             d="m 0,0 c 0,0 -1.082,-11.541 2.556,-20.301 0,0 -11.494,2.104 -23.824,-2.761" /></g><g
           transform="translate(150.3154,297.7275)"
           id="g136"><path
             id="path138"
             style="fill:none;stroke:#ffffff;stroke-width:1;stroke-linecap:butt;stroke-linejoin:miter;stroke-miterlimit:10;stroke-dasharray:none;stroke-opacity:1"
             d="m 0,0 c 0,0 -5.34,-7.819 -2.631,-25.796 0,0 -17.554,-2.22 -31.041,-9.81" /></g><g
           transform="translate(172.3374,281.6445)"
           id="g140"><path
             id="path142"
             style="fill:none;stroke:#ffffff;stroke-width:1;stroke-linecap:butt;stroke-linejoin:miter;stroke-miterlimit:10;stroke-dasharray:none;stroke-opacity:1"
             d="m 0,0 c 0,0 -8.968,-13.271 -5.697,-31.057 0,0 -20.46,-3.914 -36.353,-15.406" /></g><g
           transform="translate(195.7852,256.7729)"
           id="g144"><path
             id="path146"
             style="fill:none;stroke:#ffffff;stroke-width:1;stroke-linecap:butt;stroke-linejoin:miter;stroke-miterlimit:10;stroke-dasharray:none;stroke-opacity:1"
             d="m 0,0 c 0,0 -7.377,-7.647 -9.385,-30.04 0,0 -21.346,-3.993 -37.35,-17.92" /></g><g
           transform="translate(210.5078,234.208)"
           id="g148"><path
             id="path150"
             style="fill:none;stroke:#ffffff;stroke-width:1;stroke-linecap:butt;stroke-linejoin:miter;stroke-miterlimit:10;stroke-dasharray:none;stroke-opacity:1"
             d="m 0,0 c 0,0 -7.293,-10.441 -6.318,-30.654 0,0 -22.116,-3.249 -36.43,-13.076" /></g><g
           transform="translate(223.2876,205.707)"
           id="g152"><path
             id="path154"
             style="fill:none;stroke:#ffffff;stroke-width:1;stroke-linecap:butt;stroke-linejoin:miter;stroke-miterlimit:10;stroke-dasharray:none;stroke-opacity:1"
             d="m 0,0 c 0,0 -5.547,-9.935 -4.623,-22.512 0,0 -10.568,1.034 -28.453,-7.803" /></g><g
           transform="translate(275.1396,226.4717)"
           id="g156"><path
             id="path158"
             style="fill:#00b9c8;fill-opacity:1;fill-rule:nonzero;stroke:none"
             d="m 0,0 c 0,0 -7.699,31.981 2.285,70.078 l 8.412,-6.94 -6.627,13.189 c 5.811,18.758 16.101,38.624 33.771,56.652 l 5.222,-9.728 -1.118,13.753 c 7.284,6.874 15.712,13.44 25.449,19.523 0,0 6.603,-37.61 -4.587,-77.806 L 37.6,75.561 59.338,67.834 47.066,68.388 57.273,62.464 C 47.458,38.389 30.106,15.069 0,0" /></g><g
           transform="translate(342.5332,382.9985)"
           id="g160"><path
             id="path162"
             style="fill:none;stroke:#ffffff;stroke-width:1;stroke-linecap:butt;stroke-linejoin:miter;stroke-miterlimit:10;stroke-dasharray:none;stroke-opacity:1"
             d="M 0,0 C 0,0 -44.046,-71.321 -67.394,-156.527" /></g><g
           transform="translate(322.2441,368.1235)"
           id="g164"><path
             id="path166"
             style="fill:none;stroke:#ffffff;stroke-width:1;stroke-linecap:butt;stroke-linejoin:miter;stroke-miterlimit:10;stroke-dasharray:none;stroke-opacity:1"
             d="m 0,0 c 0,0 3.585,-8.881 2.776,-16.676 0,0 8.604,4.384 19.514,3.446" /></g><g
           transform="translate(308.5479,354.7173)"
           id="g168"><path
             id="path170"
             style="fill:none;stroke:#ffffff;stroke-width:1;stroke-linecap:butt;stroke-linejoin:miter;stroke-miterlimit:10;stroke-dasharray:none;stroke-opacity:1"
             d="m 0,0 c 0,0 6.075,-4.929 8.18,-19.801 0,0 14.423,2.393 26.895,-0.429" /></g><g
           transform="translate(294.915,336.7788)"
           id="g172"><path
             id="path174"
             style="fill:none;stroke:#ffffff;stroke-width:1;stroke-linecap:butt;stroke-linejoin:miter;stroke-miterlimit:10;stroke-dasharray:none;stroke-opacity:1"
             d="m 0,0 c 0,0 10.236,-8.388 11.854,-23.24 0,0 17.122,1.738 32.42,-3.604" /></g><g
           transform="translate(282.2314,311.5449)"
           id="g176"><path
             id="path178"
             style="fill:none;stroke:#ffffff;stroke-width:1;stroke-linecap:butt;stroke-linejoin:miter;stroke-miterlimit:10;stroke-dasharray:none;stroke-opacity:1"
             d="m 0,0 c 0,0 7.647,-4.31 14.531,-21.563 0,0 17.845,1.885 33.806,-5.358" /></g><g
           transform="translate(275.9082,290.2007)"
           id="g180"><path
             id="path182"
             style="fill:none;stroke:#ffffff;stroke-width:1;stroke-linecap:butt;stroke-linejoin:miter;stroke-miterlimit:10;stroke-dasharray:none;stroke-opacity:1"
             d="m 0,0 c 0,0 8.244,-6.543 12.249,-22.774 0,0 18.278,2.654 31.933,-1.741" /></g><g
           transform="translate(272.5293,264.6167)"
           id="g184"><path
             id="path186"
             style="fill:none;stroke:#ffffff;stroke-width:1;stroke-linecap:butt;stroke-linejoin:miter;stroke-miterlimit:10;stroke-dasharray:none;stroke-opacity:1"
             d="m 0,0 c 0,0 6.739,-6.556 8.98,-16.731 0,0 8.124,3.317 24.373,0.549" /></g><g
           transform="translate(282.4355,135.0928)"
           id="g188"><path
             id="path190"
             style="fill:#00b9c8;fill-opacity:1;fill-rule:nonzero;stroke:none"
             d="m 0,0 c 15.146,9.714 11.113,51.484 28.903,57.564 7.235,2.474 13.068,-0.259 19.108,6.281 5.201,5.631 8.14,19.246 15.763,22.006 8.191,2.959 15.281,-8.704 21.85,-10.65 13.161,-3.899 15.694,14.174 23.134,19.915 9.278,7.162 22.6,3.428 26.857,-7.853 3.268,-8.662 -4.245,-20.016 -15.574,-22.614 -4.054,-0.93 -8.844,-4.056 -10.216,-8.38 -2.291,-7.214 6.605,-14.241 6.315,-20.875 C 115.69,25.21 107.041,20.175 98.115,20.356 87.83,20.568 81.802,22.646 76.089,12.494 71.895,5.04 70.381,-3.983 62.937,-9.322 51.372,-17.612 40.531,-9.306 30.277,-3.388 18.803,3.236 13.379,3.146 2.463,-4.166 2.145,-4.38 1.82,-4.594 1.486,-4.806 Z" /></g><g
           transform="translate(415.5371,226.9453)"
           id="g192"><path
             id="path194"
             style="fill:none;stroke:#ffffff;stroke-width:1;stroke-linecap:butt;stroke-linejoin:miter;stroke-miterlimit:10;stroke-dasharray:none;stroke-opacity:1"
             d="M 0,0 C -17.083,-15.484 -119.953,-87.13 -132.426,-94.04" /></g><g
           transform="translate(349.3555,221.4062)"
           id="g196"><path
             id="path198"
             style="fill:none;stroke:#ffffff;stroke-width:1;stroke-linecap:butt;stroke-linejoin:miter;stroke-miterlimit:10;stroke-dasharray:none;stroke-opacity:1"
             d="m 0,0 c 0,0 6.356,-18.263 3.627,-40.896 0,0 23.908,-7.866 42.028,-19.323" /></g><g
           transform="translate(400.8174,233.8379)"
           id="g200"><path
             id="path202"
             style="fill:none;stroke:#ffffff;stroke-width:1;stroke-linecap:butt;stroke-linejoin:miter;stroke-miterlimit:10;stroke-dasharray:none;stroke-opacity:1"
             d="m 0,0 c 0,0 -0.838,-12.302 -5.388,-22.68 0,0 13.118,0.118 19.915,-2.931" /></g><g
           transform="translate(309.2383,191.7168)"
           id="g204"><path
             id="path206"
             style="fill:none;stroke:#ffffff;stroke-width:1;stroke-linecap:butt;stroke-linejoin:miter;stroke-miterlimit:10;stroke-dasharray:none;stroke-opacity:1"
             d="m 0,0 c 0,0 6.201,-16.993 3.719,-39.082 0,0 18.527,-6.646 37.025,-22.243" /></g><g
           transform="translate(329.1875,197.7051)"
           id="g208"><path
             id="path210"
             style="fill:none;stroke:#ffffff;stroke-width:1;stroke-linecap:butt;stroke-linejoin:miter;stroke-miterlimit:10;stroke-dasharray:none;stroke-opacity:1"
             d="m 0,0 c 0,0 4.755,-15.248 4.09,-31.024 0,0 13.437,-4.221 28.505,-14.597" /></g><g
           transform="translate(373.5605,209.957)"
           id="g212"><path
             id="path214"
             style="fill:none;stroke:#ffffff;stroke-width:1;stroke-linecap:butt;stroke-linejoin:miter;stroke-miterlimit:10;stroke-dasharray:none;stroke-opacity:1"
             d="m 0,0 c 0,0 1.862,-8.16 0.18,-14.645 0,0 9.538,-2.806 18.767,-9.922" /></g><g
           transform="translate(295.5029,163.6641)"
           id="g216"><path
             id="path218"
             style="fill:none;stroke:#ffffff;stroke-width:1;stroke-linecap:butt;stroke-linejoin:miter;stroke-miterlimit:10;stroke-dasharray:none;stroke-opacity:1"
             d="m 0,0 c 0,0 3.116,-12.014 1.954,-21.54 0,0 14.765,-6.87 25.654,-16.398" /></g><g
           transform="translate(92.1494,335.7158)"
           id="g220"><path
             id="path222"
             style="fill:#ffffff;fill-opacity:1;fill-rule:nonzero;stroke:none"
             d="m 0,0 c 0,0 -0.167,0.104 -0.458,0.238 -0.293,0.137 -0.709,0.303 -1.209,0.459 -0.592,0.182 -1.305,0.325 -2.061,0.418 -0.07,1.971 -0.254,3.863 -0.499,5.356 -0.156,0.938 -0.322,1.72 -0.458,2.268 -0.135,0.547 -0.239,0.86 -0.239,0.86 -0.042,0.124 -0.14,0.23 -0.274,0.274 -0.227,0.075 -0.472,-0.048 -0.547,-0.274 0,0 -0.105,-0.313 -0.239,-0.86 C -6.121,8.191 -6.286,7.409 -6.442,6.471 -6.686,4.983 -6.871,3.102 -6.94,1.14 -7.696,1.056 -8.411,0.916 -9.002,0.728 -9.502,0.568 -9.918,0.395 -10.21,0.25 -10.502,0.11 -10.669,0 -10.669,0 c -0.052,-0.035 -0.101,-0.082 -0.138,-0.138 -0.151,-0.226 -0.089,-0.532 0.138,-0.682 0,0 0.167,-0.112 0.459,-0.251 0.292,-0.144 0.708,-0.317 1.208,-0.477 0.588,-0.188 1.297,-0.326 2.046,-0.411 0.055,-1.962 0.231,-3.845 0.484,-5.332 0.159,-0.938 0.333,-1.721 0.477,-2.268 0.14,-0.547 0.25,-0.86 0.25,-0.86 0.043,-0.119 0.137,-0.22 0.266,-0.266 0.227,-0.08 0.474,0.039 0.555,0.266 0,0 0.11,0.313 0.25,0.86 0.144,0.547 0.318,1.33 0.476,2.268 0.256,1.493 0.431,3.385 0.484,5.356 0.751,0.094 1.459,0.236 2.047,0.417 0.5,0.157 0.916,0.321 1.209,0.459 C -0.167,-0.924 0,-0.82 0,-0.82 0.06,-0.783 0.114,-0.73 0.154,-0.666 0.295,-0.439 0.227,-0.141 0,0" /></g><g
           transform="translate(136.3984,417.9009)"
           id="g224"><path
             id="path226"
             style="fill:#ffffff;fill-opacity:1;fill-rule:nonzero;stroke:none"
             d="M 0,0 C 0,0 -0.135,0.084 -0.37,0.192 -0.605,0.303 -0.942,0.437 -1.346,0.562 -1.823,0.709 -2.398,0.825 -3.009,0.9 -3.065,2.491 -3.214,4.017 -3.412,5.222 -3.537,5.979 -3.671,6.611 -3.781,7.053 -3.89,7.494 -3.974,7.747 -3.974,7.747 -4.008,7.846 -4.087,7.932 -4.195,7.968 -4.378,8.028 -4.576,7.93 -4.637,7.747 c 0,0 -0.084,-0.253 -0.192,-0.694 C -4.94,6.611 -5.073,5.979 -5.199,5.222 -5.396,4.022 -5.545,2.503 -5.601,0.92 -6.211,0.852 -6.788,0.739 -7.265,0.587 -7.668,0.458 -8.005,0.318 -8.24,0.202 -8.476,0.089 -8.61,0 -8.61,0 c -0.042,-0.028 -0.082,-0.066 -0.111,-0.111 -0.122,-0.183 -0.072,-0.43 0.111,-0.552 0,0 0.134,-0.089 0.37,-0.202 0.235,-0.116 0.572,-0.256 0.975,-0.385 0.475,-0.151 1.046,-0.263 1.652,-0.331 0.043,-1.584 0.186,-3.103 0.39,-4.303 0.128,-0.758 0.268,-1.389 0.385,-1.831 0.112,-0.441 0.201,-0.694 0.201,-0.694 0.035,-0.095 0.111,-0.177 0.215,-0.214 0.183,-0.065 0.383,0.031 0.448,0.214 0,0 0.089,0.253 0.202,0.694 0.116,0.442 0.256,1.073 0.384,1.831 0.206,1.205 0.347,2.732 0.39,4.323 0.606,0.076 1.178,0.19 1.652,0.336 0.404,0.126 0.741,0.26 0.976,0.371 0.235,0.108 0.37,0.191 0.37,0.191 0.048,0.031 0.092,0.074 0.124,0.126 C 0.238,-0.354 0.183,-0.114 0,0" /></g><g
           transform="translate(385.2812,356.8672)"
           id="g228"><path
             id="path230"
             style="fill:#ffffff;fill-opacity:1;fill-rule:nonzero;stroke:none"
             d="M 0,0 C 0,0 -0.135,0.084 -0.369,0.192 -0.605,0.303 -0.941,0.437 -1.346,0.562 -1.823,0.71 -2.398,0.825 -3.009,0.9 -3.065,2.491 -3.214,4.018 -3.411,5.222 -3.536,5.979 -3.67,6.611 -3.781,7.053 -3.89,7.494 -3.975,7.747 -3.975,7.747 c -0.033,0.1 -0.112,0.185 -0.219,0.221 -0.185,0.06 -0.381,-0.038 -0.442,-0.221 0,0 -0.084,-0.253 -0.193,-0.694 C -4.939,6.611 -5.073,5.979 -5.199,5.222 -5.396,4.022 -5.545,2.503 -5.601,0.92 -6.211,0.852 -6.787,0.739 -7.265,0.587 -7.668,0.458 -8.005,0.318 -8.24,0.202 -8.476,0.089 -8.609,0 -8.609,0 c -0.042,-0.028 -0.082,-0.066 -0.112,-0.111 -0.122,-0.183 -0.071,-0.43 0.112,-0.551 0,0 0.133,-0.09 0.369,-0.202 0.235,-0.116 0.572,-0.257 0.975,-0.386 0.476,-0.15 1.047,-0.263 1.653,-0.331 0.043,-1.584 0.185,-3.103 0.389,-4.303 0.128,-0.758 0.268,-1.389 0.386,-1.831 0.111,-0.441 0.201,-0.694 0.201,-0.694 0.034,-0.095 0.111,-0.177 0.213,-0.214 0.185,-0.065 0.384,0.031 0.448,0.214 0,0 0.091,0.253 0.204,0.694 0.115,0.442 0.255,1.073 0.383,1.831 0.206,1.205 0.348,2.732 0.391,4.323 0.606,0.076 1.179,0.19 1.651,0.336 0.405,0.126 0.741,0.26 0.977,0.371 C -0.135,-0.746 0,-0.662 0,-0.662 0.049,-0.632 0.093,-0.589 0.125,-0.537 0.238,-0.354 0.183,-0.113 0,0" /></g><g
           transform="translate(372.6709,327.1792)"
           id="g232"><path
             id="path234"
             style="fill:#ffffff;fill-opacity:1;fill-rule:nonzero;stroke:none"
             d="m 0,0 c 0,0 -0.167,0.104 -0.459,0.238 -0.291,0.137 -0.708,0.303 -1.209,0.459 -0.591,0.182 -1.304,0.325 -2.06,0.419 -0.07,1.97 -0.254,3.862 -0.5,5.355 -0.155,0.938 -0.32,1.72 -0.458,2.268 -0.134,0.547 -0.238,0.86 -0.238,0.86 -0.042,0.124 -0.14,0.23 -0.273,0.274 -0.229,0.075 -0.473,-0.047 -0.548,-0.274 0,0 -0.104,-0.313 -0.239,-0.86 C -6.121,8.191 -6.287,7.409 -6.441,6.471 -6.686,4.983 -6.871,3.102 -6.94,1.14 -7.696,1.056 -8.411,0.916 -9.001,0.728 -9.502,0.568 -9.919,0.395 -10.21,0.25 -10.502,0.111 -10.669,0 -10.669,0 c -0.053,-0.035 -0.101,-0.082 -0.139,-0.138 -0.15,-0.226 -0.088,-0.532 0.139,-0.682 0,0 0.167,-0.112 0.459,-0.251 0.291,-0.144 0.708,-0.317 1.209,-0.477 0.588,-0.188 1.296,-0.326 2.046,-0.411 0.054,-1.962 0.23,-3.845 0.484,-5.332 0.159,-0.938 0.332,-1.721 0.476,-2.268 0.14,-0.547 0.25,-0.86 0.25,-0.86 0.043,-0.119 0.137,-0.22 0.265,-0.266 0.228,-0.08 0.475,0.039 0.556,0.266 0,0 0.11,0.313 0.25,0.86 0.145,0.547 0.318,1.33 0.476,2.268 0.256,1.494 0.431,3.385 0.484,5.356 0.752,0.094 1.459,0.236 2.046,0.417 0.501,0.157 0.918,0.322 1.209,0.459 C -0.167,-0.924 0,-0.82 0,-0.82 0.061,-0.783 0.114,-0.73 0.154,-0.666 0.295,-0.439 0.226,-0.141 0,0" /></g><g
           transform="translate(88.0098,176.4434)"
           id="g236"><path
             id="path238"
             style="fill:#ffffff;fill-opacity:1;fill-rule:nonzero;stroke:none"
             d="M 0,0 C 0,0 -0.107,0.068 -0.296,0.152 -0.484,0.242 -0.753,0.35 -1.077,0.45 -1.459,0.567 -1.919,0.66 -2.407,0.722 -2.453,1.994 -2.572,3.216 -2.73,4.179 -2.831,4.786 -2.938,5.291 -3.026,5.645 -3.113,5.998 -3.18,6.2 -3.18,6.2 -3.208,6.281 -3.271,6.348 -3.356,6.378 -3.505,6.427 -3.662,6.347 -3.711,6.2 c 0,0 -0.066,-0.202 -0.154,-0.555 C -3.954,5.291 -4.06,4.786 -4.16,4.179 -4.318,3.22 -4.437,2.004 -4.482,0.737 -4.97,0.682 -5.433,0.594 -5.814,0.471 -6.138,0.368 -6.406,0.255 -6.595,0.162 -6.783,0.073 -6.89,0 -6.89,0 c -0.035,-0.022 -0.066,-0.053 -0.089,-0.088 -0.099,-0.148 -0.058,-0.344 0.089,-0.441 0,0 0.107,-0.072 0.295,-0.163 0.189,-0.093 0.457,-0.204 0.781,-0.306 0.38,-0.123 0.838,-0.211 1.322,-0.267 0.035,-1.266 0.149,-2.483 0.312,-3.444 0.103,-0.606 0.215,-1.111 0.307,-1.465 0.092,-0.353 0.162,-0.555 0.162,-0.555 0.028,-0.076 0.089,-0.142 0.171,-0.171 0.149,-0.051 0.308,0.025 0.36,0.171 0,0 0.072,0.202 0.162,0.555 0.093,0.354 0.205,0.859 0.307,1.465 0.164,0.966 0.278,2.186 0.313,3.46 0.485,0.062 0.943,0.152 1.321,0.27 0.324,0.101 0.593,0.206 0.781,0.294 C -0.107,-0.596 0,-0.529 0,-0.529 0.041,-0.505 0.075,-0.471 0.101,-0.43 0.191,-0.283 0.146,-0.092 0,0" /></g><g
           transform="translate(430.9326,190.8828)"
           id="g240"><path
             id="path242"
             style="fill:#ffffff;fill-opacity:1;fill-rule:nonzero;stroke:none"
             d="m 0,0 c 0,0 -0.086,0.055 -0.235,0.122 -0.151,0.071 -0.364,0.155 -0.621,0.235 -0.304,0.094 -0.669,0.168 -1.057,0.216 -0.035,1.011 -0.131,1.982 -0.256,2.746 -0.08,0.482 -0.166,0.883 -0.235,1.165 -0.07,0.28 -0.122,0.44 -0.122,0.44 -0.023,0.064 -0.073,0.118 -0.141,0.142 -0.117,0.038 -0.242,-0.026 -0.281,-0.142 0,0 -0.053,-0.16 -0.122,-0.44 C -3.142,4.202 -3.226,3.801 -3.305,3.319 -3.431,2.557 -3.524,1.592 -3.562,0.586 -3.948,0.542 -4.315,0.472 -4.618,0.374 -4.875,0.293 -5.09,0.203 -5.239,0.129 -5.389,0.058 -5.473,0 -5.473,0 c -0.028,-0.018 -0.053,-0.042 -0.072,-0.07 -0.077,-0.117 -0.045,-0.274 0.072,-0.35 0,0 0.084,-0.058 0.234,-0.13 0.149,-0.073 0.364,-0.162 0.621,-0.243 0.301,-0.097 0.665,-0.167 1.05,-0.211 0.026,-1.007 0.118,-1.973 0.248,-2.737 0.081,-0.481 0.169,-0.882 0.244,-1.161 0.072,-0.283 0.128,-0.443 0.128,-0.443 0.023,-0.06 0.07,-0.112 0.135,-0.135 0.118,-0.041 0.245,0.019 0.287,0.135 0,0 0.057,0.16 0.129,0.443 0.074,0.279 0.163,0.68 0.242,1.161 0.133,0.768 0.222,1.737 0.25,2.75 0.384,0.049 0.749,0.12 1.049,0.214 0.257,0.08 0.47,0.164 0.621,0.234 C -0.086,-0.473 0,-0.42 0,-0.42 0.032,-0.4 0.059,-0.374 0.079,-0.341 0.15,-0.225 0.116,-0.072 0,0" /></g><g
           transform="translate(232.8838,417.8364)"
           id="g244"><path
             id="path246"
             style="fill:#ffffff;fill-opacity:1;fill-rule:nonzero;stroke:none"
             d="M 0,0 C 0,0 -0.109,0.069 -0.298,0.154 -0.489,0.245 -0.76,0.353 -1.086,0.454 -1.473,0.572 -1.937,0.667 -2.429,0.728 -2.474,2.011 -2.595,3.245 -2.755,4.216 -2.856,4.828 -2.965,5.337 -3.053,5.695 -3.141,6.05 -3.208,6.253 -3.208,6.253 -3.237,6.334 -3.3,6.404 -3.387,6.435 -3.536,6.482 -3.694,6.401 -3.745,6.253 c 0,0 -0.066,-0.203 -0.154,-0.558 C -3.989,5.337 -4.096,4.828 -4.197,4.216 -4.357,3.247 -4.477,2.022 -4.523,0.744 -5.014,0.688 -5.48,0.599 -5.865,0.475 -6.191,0.371 -6.463,0.258 -6.654,0.164 -6.844,0.073 -6.951,0 -6.951,0 -6.986,-0.022 -7.018,-0.053 -7.042,-0.089 -7.139,-0.238 -7.1,-0.436 -6.951,-0.534 c 0,0 0.107,-0.073 0.297,-0.164 0.191,-0.093 0.463,-0.206 0.789,-0.309 0.382,-0.123 0.845,-0.213 1.333,-0.268 0.034,-1.279 0.151,-2.505 0.315,-3.476 0.104,-0.611 0.216,-1.121 0.311,-1.476 0.091,-0.357 0.161,-0.561 0.161,-0.561 0.031,-0.077 0.091,-0.144 0.174,-0.173 0.148,-0.052 0.309,0.025 0.363,0.173 0,0 0.072,0.204 0.163,0.561 0.095,0.355 0.208,0.865 0.309,1.476 0.167,0.974 0.282,2.205 0.317,3.491 0.489,0.062 0.951,0.153 1.333,0.272 0.326,0.102 0.597,0.208 0.788,0.298 0.189,0.088 0.298,0.156 0.298,0.156 0.041,0.025 0.074,0.059 0.101,0.1 C 0.191,-0.286 0.148,-0.091 0,0" /></g><g
           transform="translate(137.314,347.5352)"
           id="g248"><path
             id="path250"
             style="fill:#ffffff;fill-opacity:1;fill-rule:nonzero;stroke:none"
             d="m 0,0 c 0,0 -0.241,0.15 -0.662,0.344 -0.421,0.198 -1.022,0.436 -1.743,0.662 -0.853,0.263 -1.882,0.469 -2.972,0.603 -0.101,2.843 -0.367,5.572 -0.72,7.725 -0.225,1.354 -0.464,2.482 -0.661,3.271 -0.195,0.79 -0.345,1.241 -0.345,1.241 -0.061,0.179 -0.202,0.331 -0.395,0.395 -0.328,0.109 -0.68,-0.068 -0.789,-0.395 0,0 -0.151,-0.451 -0.345,-1.241 C -8.829,11.816 -9.067,10.688 -9.292,9.334 -9.644,7.188 -9.911,4.475 -10.011,1.645 -11.102,1.523 -12.132,1.321 -12.985,1.05 -13.707,0.819 -14.307,0.569 -14.729,0.361 -15.149,0.16 -15.389,0 -15.389,0 c -0.075,-0.05 -0.146,-0.118 -0.199,-0.198 -0.217,-0.327 -0.128,-0.768 0.199,-0.985 0,0 0.24,-0.161 0.66,-0.362 0.422,-0.207 1.022,-0.457 1.744,-0.688 0.849,-0.27 1.87,-0.47 2.952,-0.593 0.078,-2.83 0.332,-5.546 0.698,-7.691 0.229,-1.354 0.48,-2.482 0.688,-3.271 0.201,-0.79 0.36,-1.24 0.36,-1.24 0.061,-0.172 0.198,-0.318 0.383,-0.384 0.327,-0.115 0.685,0.057 0.801,0.384 0,0 0.159,0.45 0.361,1.24 0.208,0.789 0.458,1.917 0.687,3.271 0.368,2.155 0.621,4.884 0.698,7.727 1.083,0.135 2.105,0.34 2.952,0.601 0.721,0.226 1.322,0.463 1.743,0.662 C -0.241,-1.333 0,-1.183 0,-1.183 0.086,-1.129 0.165,-1.053 0.222,-0.96 0.426,-0.633 0.326,-0.203 0,0" /></g><g
           transform="translate(112.6392,396.394)"
           id="g252"><path
             id="path254"
             style="fill:#ffffff;fill-opacity:1;fill-rule:nonzero;stroke:none"
             d="m 0,0 c 0,-1.579 -1.281,-2.859 -2.859,-2.859 -1.582,0 -2.861,1.28 -2.861,2.859 0,1.58 1.279,2.86 2.861,2.86 C -1.281,2.86 0,1.58 0,0" /></g><g
           transform="translate(304.0352,377.8628)"
           id="g256"><path
             id="path258"
             style="fill:#ffffff;fill-opacity:1;fill-rule:nonzero;stroke:none"
             d="m 0,0 c 0,-1.579 -1.28,-2.859 -2.859,-2.859 -1.581,0 -2.86,1.28 -2.86,2.859 0,1.58 1.279,2.86 2.86,2.86 C -1.28,2.86 0,1.58 0,0" /></g><g
           transform="translate(408.2627,302.4263)"
           id="g260"><path
             id="path262"
             style="fill:#ffffff;fill-opacity:1;fill-rule:nonzero;stroke:none"
             d="m 0,0 c 0,-1.579 -1.28,-2.859 -2.858,-2.859 -1.582,0 -2.862,1.28 -2.862,2.859 0,1.58 1.28,2.86 2.862,2.86 C -1.28,2.86 0,1.58 0,0" /></g><g
           transform="translate(104.9434,365.7397)"
           id="g264"><path
             id="path266"
             style="fill:#ffffff;fill-opacity:1;fill-rule:nonzero;stroke:none"
             d="m 0,0 c 0,-1.059 -0.859,-1.917 -1.917,-1.917 -1.061,0 -1.918,0.858 -1.918,1.917 0,1.059 0.857,1.917 1.918,1.917 C -0.859,1.917 0,1.059 0,0" /></g><g
           transform="translate(114.5566,234.208)"
           id="g268"><path
             id="path270"
             style="fill:#ffffff;fill-opacity:1;fill-rule:nonzero;stroke:none"
             d="m 0,0 c 0,-1.06 -0.858,-1.917 -1.917,-1.917 -1.061,0 -1.918,0.857 -1.918,1.917 0,1.059 0.857,1.917 1.918,1.917 C -0.858,1.917 0,1.059 0,0" /></g><g
           transform="translate(92.377,298.084)"
           id="g272"><path
             id="path274"
             style="fill:#ffffff;fill-opacity:1;fill-rule:nonzero;stroke:none"
             d="m 0,0 c 0,-1.059 -0.859,-1.917 -1.917,-1.917 -1.061,0 -1.918,0.858 -1.918,1.917 0,1.059 0.857,1.918 1.918,1.918 C -0.859,1.918 0,1.059 0,0" /></g><g
           transform="translate(361.7822,375.9458)"
           id="g276"><path
             id="path278"
             style="fill:#ffffff;fill-opacity:1;fill-rule:nonzero;stroke:none"
             d="m 0,0 c 0,-1.059 -0.859,-1.917 -1.917,-1.917 -1.06,0 -1.918,0.858 -1.918,1.917 0,1.059 0.858,1.917 1.918,1.917 C -0.859,1.917 0,1.059 0,0" /></g><g
           transform="translate(400.625,326.1724)"
           id="g280"><path
             id="path282"
             style="fill:#ffffff;fill-opacity:1;fill-rule:nonzero;stroke:none"
             d="m 0,0 c 0,-1.059 -0.859,-1.917 -1.917,-1.917 -1.06,0 -1.918,0.858 -1.918,1.917 0,1.059 0.858,1.917 1.918,1.917 C -0.859,1.917 0,1.059 0,0" /></g><g
           transform="translate(414.3447,180.627)"
           id="g284"><path
             id="path286"
             style="fill:#ffffff;fill-opacity:1;fill-rule:nonzero;stroke:none"
             d="m 0,0 c 0,-1.059 -0.858,-1.917 -1.916,-1.917 -1.061,0 -1.918,0.858 -1.918,1.917 0,1.06 0.857,1.918 1.918,1.918 C -0.858,1.918 0,1.06 0,0" /></g></g></g><path
       id="path288"
       style="fill:#00b9c8;fill-opacity:1;fill-rule:nonzero;stroke:none"
       d="m 0.275,41.271 h 499.726 v 84.454 H 0.275 Z" /><g
       id="g290"><g
         clip-path="url(#clipPath296)"
         id="g292"><g
           id="g298"><g
             id="g300" /><g
             id="g312"><g
               id="g310"
               clip-path="url(#clipPath304)"><g
                 id="g308"
                 transform="translate(24.7583,125.7256)"><path
                   id="path306"
                   style="fill:none;stroke:#ffffff;stroke-width:1;stroke-linecap:butt;stroke-linejoin:miter;stroke-miterlimit:10;stroke-dasharray:none;stroke-opacity:1"
                   d="M 0,0 -59.757,-84.454" /></g></g></g></g><g
           id="g314"><g
             id="g316" /><g
             id="g328"><g
               id="g326"
               clip-path="url(#clipPath320)"><g
                 id="g324"
                 transform="translate(471.291,125.7256)"><path
                   id="path322"
                   style="fill:none;stroke:#ffffff;stroke-width:1;stroke-linecap:butt;stroke-linejoin:miter;stroke-miterlimit:10;stroke-dasharray:none;stroke-opacity:1"
                   d="M 0,0 59.758,-84.454" /></g></g></g></g><g
           id="g330"><g
             id="g332" /><g
             id="g344"><g
               id="g342"
               clip-path="url(#clipPath336)"><g
                 id="g340"
                 transform="translate(77.3491,125.7256)"><path
                   id="path338"
                   style="fill:none;stroke:#ffffff;stroke-width:1;stroke-linecap:butt;stroke-linejoin:miter;stroke-miterlimit:10;stroke-dasharray:none;stroke-opacity:1"
                   d="M 0,0 -45.681,-84.454" /></g></g></g></g><g
           id="g346"><g
             id="g348" /><g
             id="g360"><g
               id="g358"
               clip-path="url(#clipPath352)"><g
                 id="g356"
                 transform="translate(418.7002,125.7256)"><path
                   id="path354"
                   style="fill:none;stroke:#ffffff;stroke-width:1;stroke-linecap:butt;stroke-linejoin:miter;stroke-miterlimit:10;stroke-dasharray:none;stroke-opacity:1"
                   d="M 0,0 45.682,-84.454" /></g></g></g></g><g
           id="g362"><g
             id="g364" /><g
             id="g376"><g
               id="g374"
               clip-path="url(#clipPath368)"><g
                 id="g372"
                 transform="translate(135.7256,125.7256)"><path
                   id="path370"
                   style="fill:none;stroke:#ffffff;stroke-width:1;stroke-linecap:butt;stroke-linejoin:miter;stroke-miterlimit:10;stroke-dasharray:none;stroke-opacity:1"
                   d="M 0,0 -30.057,-84.454" /></g></g></g></g><g
           id="g378"><g
             id="g380" /><g
             id="g392"><g
               id="g390"
               clip-path="url(#clipPath384)"><g
                 id="g388"
                 transform="translate(360.3242,125.7256)"><path
                   id="path386"
                   style="fill:none;stroke:#ffffff;stroke-width:1;stroke-linecap:butt;stroke-linejoin:miter;stroke-miterlimit:10;stroke-dasharray:none;stroke-opacity:1"
                   d="M 0,0 30.057,-84.454" /></g></g></g></g><g
           id="g394"><g
             id="g396" /><g
             id="g408"><g
               id="g406"
               clip-path="url(#clipPath400)"><g
                 id="g404"
                 transform="translate(193.5352,125.7256)"><path
                   id="path402"
                   style="fill:none;stroke:#ffffff;stroke-width:1;stroke-linecap:butt;stroke-linejoin:miter;stroke-miterlimit:10;stroke-dasharray:none;stroke-opacity:1"
                   d="M 0,0 -14.584,-84.454" /></g></g></g></g><g
           id="g410"><g
             id="g412" /><g
             id="g424"><g
               id="g422"
               clip-path="url(#clipPath416)"><g
                 id="g420"
                 transform="translate(302.5146,125.7256)"><path
                   id="path418"
                   style="fill:none;stroke:#ffffff;stroke-width:1;stroke-linecap:butt;stroke-linejoin:miter;stroke-miterlimit:10;stroke-dasharray:none;stroke-opacity:1"
                   d="M 0,0 14.585,-84.454" /></g></g></g></g><g
           id="g426"><g
             id="g428" /><g
             id="g440"><g
               id="g438"
               clip-path="url(#clipPath432)"><g
                 id="g436"
                 transform="translate(250.2744,41.2715)"><path
                   id="path434"
                   style="fill:none;stroke:#ffffff;stroke-width:1;stroke-linecap:butt;stroke-linejoin:miter;stroke-miterlimit:10;stroke-dasharray:none;stroke-opacity:1"
                   d="M 0,0 V 81.998" /></g></g></g></g><g
           id="g442"><g
             id="g444" /><g
             id="g454"><g
               style="opacity:0.5"
               id="g452"
               clip-path="url(#clipPath448)"><path
                 id="path450"
                 style="fill:#c2c2c2;fill-opacity:1;fill-rule:nonzero;stroke:none"
                 d="m 500.274,42.491 h -500 v -3.824 h 500 z" /></g></g></g></g></g><g
       id="g456"><g
         clip-path="url(#clipPath462)"
         id="g458"><g
           id="g464"><g
             id="g466" /><g
             id="g478"><g
               style="opacity:0.5"
               id="g476"
               clip-path="url(#clipPath470)"><g
                 id="g474"
                 transform="translate(360.6982,73.4697)"><path
                   id="path472"
                   style="fill:#9c9c9c;fill-opacity:1;fill-rule:nonzero;stroke:none"
                   d="m 0,0 c 0,-7.029 -46.827,-12.728 -104.591,-12.728 -57.763,0 -104.591,5.699 -104.591,12.728 0,7.029 46.828,12.728 104.591,12.728 C -46.827,12.728 0,7.029 0,0" /></g></g></g></g><g
           transform="translate(288.125,272.8682)"
           id="g480"><path
             id="path482"
             style="fill:#ffb199;fill-opacity:1;fill-rule:nonzero;stroke:none"
             d="m 0,0 c 16.537,-9.959 12.692,-17.718 19.009,-32.291 6.994,-16.134 12.584,-34.517 21.908,-51.116 14.702,-3.45 30.608,-8.692 53.219,-15.738 10.707,-2.655 9.331,-16.666 1.649,-15.377 -8.82,1.478 -60.296,11.423 -65.679,14.727 -6.279,3.852 -28.285,40.556 -35.097,66.275 z" /></g><g
           transform="translate(203.3638,275.3613)"
           id="g484"><path
             id="path486"
             style="fill:#ffb199;fill-opacity:1;fill-rule:nonzero;stroke:none"
             d="m 0,0 c -16.175,-10.538 -12.012,-25.821 -17.809,-40.607 -6.419,-16.372 -12.457,-32.222 -21.188,-49.141 -14.572,-3.968 -30.283,-9.768 -52.63,-17.607 -10.606,-3.033 -8.737,-16.986 -1.106,-15.427 8.763,1.789 59.856,13.548 65.118,17.039 6.139,4.071 26.835,41.529 32.734,67.474 z" /></g><g
           transform="translate(311.3486,245.9561)"
           id="g488"><path
             id="path490"
             style="fill:#ffc300;fill-opacity:1;fill-rule:nonzero;stroke:none"
             d="m 0,0 c -0.401,10.588 -9.849,26.162 -18.781,31.818 l -0.005,-0.003 c -2.743,1.876 -6.436,3.711 -10.327,5.378 -16.395,-22.447 -59.686,-12.621 -80.837,-5.381 l -0.009,0.006 c -1.249,-0.791 -2.508,-1.781 -3.751,-2.92 -0.141,-0.126 -0.281,-0.252 -0.412,-0.377 C -121.607,21.445 -128.401,8.944 -128.74,0 c 0,0 10.042,-15.213 23.548,-18.867 0.394,-6.491 0.141,-13.922 -1.157,-22.488 -0.836,-5.524 -3.36,-42.719 -6.613,-57.083 -0.32,-1.415 22.986,-2.647 48.984,-2.664 23.266,-0.013 43.19,1.936 44.075,2.735 -0.117,-0.106 -6.358,42.143 -6.593,45.946 -0.811,13.099 -0.448,23.967 0.552,33.038 C -11.247,-17.039 0,0 0,0" /></g><g
           transform="translate(219.8882,326.3877)"
           id="g492"><path
             id="path494"
             style="fill:#00213e;fill-opacity:1;fill-rule:nonzero;stroke:none"
             d="m 0,0 3.778,-24.348 12.638,-0.839 V -7.683 L 2.156,3.147 Z" /></g><g
           transform="translate(273.1533,344.8452)"
           id="g496"><path
             id="path498"
             style="fill:#00213e;fill-opacity:1;fill-rule:nonzero;stroke:none"
             d="m 0,0 c -1.741,-7.727 -0.179,-17.95 1.68,-26.051 2.773,-12.093 -3.421,-25.76 -20.7,-19.035 -17.034,6.629 3.97,30.442 3.97,30.442 z" /></g><g
           transform="translate(232.5864,313.9209)"
           id="g500"><path
             id="path502"
             style="fill:#ffb199;fill-opacity:1;fill-rule:nonzero;stroke:none"
             d="m 0,0 c 0.035,-4.696 -0.968,-17.591 -1.293,-20.339 l -21.5,-10.677 c 15.773,-17.091 57.957,-19.905 72.447,0.246 0,0 -21.68,8.655 -21.617,8.489 -0.399,1.051 -1.455,14.14 -1.136,21.062 z" /></g><g
           transform="translate(232.5864,313.9209)"
           id="g504"><path
             id="path506"
             style="fill:#ff9b86;fill-opacity:1;fill-rule:nonzero;stroke:none"
             d="m 0,0 c 0,0 0.214,-1.725 0.035,-4.696 0,0 8.007,-9.47 13.72,-9.466 5.719,0.004 13.011,8.761 13.011,8.761 0,0 -0.125,5.863 0.135,8.309 z" /></g><g
           transform="translate(278.7666,340.8882)"
           id="g508"><path
             id="path510"
             style="fill:#ff9b86;fill-opacity:1;fill-rule:nonzero;stroke:none"
             d="m 0,0 c -0.655,-4.891 -4.442,-11.167 -8.074,-9.279 -2.927,1.527 -5.394,4.063 -4.748,8.956 0.645,4.894 3.21,7.293 7.092,8.08 C -1.538,8.601 0.641,4.891 0,0" /></g><g
           transform="translate(277.6064,347.0625)"
           id="g512"><path
             id="path514"
             style="fill:#ffb199;fill-opacity:1;fill-rule:nonzero;stroke:none"
             d="m 0,0 c -0.784,0.971 -4.982,1.489 -6.194,-2.188 l 0.45,3.469 c 0,0 1.342,0.636 2.957,0.38 C -0.714,1.328 0,0 0,0" /></g><g
           transform="translate(215.6406,340.8506)"
           id="g516"><path
             id="path518"
             style="fill:#ff9b86;fill-opacity:1;fill-rule:nonzero;stroke:none"
             d="m 0,0 c 0.652,-4.89 4.45,-11.161 8.084,-9.27 2.924,1.53 5.383,4.07 4.731,8.963 C 12.164,4.584 9.601,6.981 5.712,7.762 1.525,8.604 -0.651,4.891 0,0" /></g><g
           transform="translate(216.79,347.0254)"
           id="g520"><path
             id="path522"
             style="fill:#ffb199;fill-opacity:1;fill-rule:nonzero;stroke:none"
             d="M 0,0 C 0.786,0.972 4.982,1.494 6.196,-2.18 L 5.742,1.287 c 0,0 -1.343,0.635 -2.952,0.376 C 0.709,1.33 0,0 0,0" /></g><g
           transform="translate(271.8623,351.0605)"
           id="g524"><path
             id="path526"
             style="fill:#ffb199;fill-opacity:1;fill-rule:nonzero;stroke:none"
             d="m 0,0 c 0.008,-13.615 -11.024,-24.663 -24.642,-24.673 -13.619,-0.007 -24.661,11.027 -24.671,24.643 -0.01,18.282 11.02,27.082 24.641,27.089 C -11.056,27.068 -0.01,17.9 0,0" /></g><g
           transform="translate(271.8623,351.0605)"
           id="g528"><path
             id="path530"
             style="fill:#ffb199;fill-opacity:1;fill-rule:nonzero;stroke:none"
             d="m 0,0 c 0.008,-13.187 0.014,-24.226 -5.01,-31.398 -3.024,-4.319 -10.885,-11.745 -16.581,-13.63 -1.415,-0.465 -5.468,-0.234 -6.874,0.263 -5.656,1.998 -12.908,9.226 -15.801,13.344 -5.032,7.165 -5.037,18.204 -5.047,31.391" /></g><g
           transform="translate(262.0918,337.6675)"
           id="g532"><path
             id="path534"
             style="fill:#00213e;fill-opacity:1;fill-rule:nonzero;stroke:none"
             d="m 0,0 c 0.003,-2.24 -2.424,-3.165 -3.985,-3.165 -1.561,0 -3.988,0.921 -3.993,3.161 C -6.039,-2.678 -1.361,-2.451 0,0" /></g><g
           transform="translate(239.4155,337.6675)"
           id="g536"><path
             id="path538"
             style="fill:#00213e;fill-opacity:1;fill-rule:nonzero;stroke:none"
             d="m 0,0 c 0.003,-2.24 -2.519,-3.165 -4.141,-3.165 -1.621,0 -4.142,0.92 -4.147,3.161 C -6.275,-2.678 -1.415,-2.451 0,0" /></g><g
           transform="translate(254.0781,347.2212)"
           id="g540"><path
             id="path542"
             style="fill:#00213e;fill-opacity:1;fill-rule:nonzero;stroke:none"
             d="M 0,0 C 0,0 0.148,0.04 0.446,0.083 0.743,0.127 1.156,0.187 1.65,0.221 2.146,0.256 2.723,0.264 3.344,0.271 3.962,0.232 4.625,0.226 5.281,0.125 5.937,0.024 6.598,-0.042 7.2,-0.221 c 0.604,-0.164 1.172,-0.28 1.635,-0.484 0.934,-0.376 1.528,-0.669 1.528,-0.669 0.345,-0.17 0.487,-0.588 0.317,-0.933 -0.137,-0.276 -0.431,-0.422 -0.72,-0.381 l -0.075,0.01 c 0,0 -0.626,0.087 -1.523,0.283 -0.442,0.116 -0.988,0.155 -1.549,0.273 -0.56,0.118 -1.175,0.171 -1.782,0.269 -0.606,0.099 -1.224,0.131 -1.798,0.212 -0.576,0.047 -1.117,0.119 -1.58,0.139 -0.924,0.067 -1.542,0.111 -1.542,0.111 -0.388,0.029 -0.68,0.367 -0.652,0.755 0.021,0.306 0.236,0.553 0.517,0.629 z" /></g><g
           transform="translate(238.7881,345.8198)"
           id="g544"><path
             id="path546"
             style="fill:#00213e;fill-opacity:1;fill-rule:nonzero;stroke:none"
             d="m 0,0 c 0,0 -0.617,-0.045 -1.542,-0.113 -0.462,-0.02 -1.003,-0.093 -1.579,-0.14 -0.572,-0.082 -1.19,-0.114 -1.796,-0.213 -0.606,-0.099 -1.221,-0.152 -1.782,-0.271 -0.559,-0.118 -1.105,-0.159 -1.547,-0.275 -0.895,-0.197 -1.521,-0.285 -1.521,-0.285 l -0.074,-0.011 c -0.381,-0.053 -0.733,0.212 -0.786,0.593 -0.043,0.304 0.119,0.591 0.38,0.721 0,0 0.593,0.295 1.526,0.671 0.463,0.205 1.031,0.322 1.634,0.487 0.602,0.18 1.262,0.245 1.918,0.347 0.656,0.102 1.319,0.109 1.937,0.148 C -2.611,1.652 -2.035,1.645 -1.54,1.61 -1.047,1.577 -0.633,1.517 -0.336,1.474 -0.039,1.431 0.109,1.391 0.109,1.391 L 0.133,1.384 C 0.509,1.282 0.731,0.895 0.629,0.519 0.549,0.223 0.29,0.022 0,0" /></g><g
           transform="translate(242.9004,325.1807)"
           id="g548"><path
             id="path550"
             style="fill:#ff9b86;fill-opacity:1;fill-rule:nonzero;stroke:none"
             d="M 0,0 C 1.579,0.747 7.264,0.807 8.614,0.006 9.959,-0.799 5.766,-1.874 4.307,-1.875 2.848,-1.875 -1.261,-0.69 0,0" /></g><g
           transform="translate(250.7534,313.1865)"
           id="g552"><path
             id="path554"
             style="fill:#ff9b86;fill-opacity:1;fill-rule:nonzero;stroke:none"
             d="M 0,0 C 0,0 -2.138,0.266 -3.607,0.262 -5.074,0.258 -6.878,0.02 -6.878,0.02 -7.982,0.348 -4.734,0.762 -3.537,0.763 -2.338,0.763 1.036,0.282 0,0" /></g><g
           transform="translate(256.1582,319.2393)"
           id="g556"><path
             id="path558"
             style="fill:#ff9b86;fill-opacity:1;fill-rule:nonzero;stroke:none"
             d="M 0,0 C -2.271,-1.428 -6.23,1.46 -8.761,0.389 H -9.015 C -11.545,1.46 -15.504,-1.428 -17.775,0 -16.055,-1.915 -1.856,-2.596 0,0" /></g><g
           transform="translate(255.2812,318.5708)"
           id="g560"><path
             id="path562"
             style="fill:#ff9b86;fill-opacity:1;fill-rule:nonzero;stroke:none"
             d="m 0,0 c -2.135,-0.673 -4.925,-3.68 -8.011,-2.722 -2.252,-0.844 -6.578,1.864 -7.855,2.79 l 7.855,-0.957 z" /></g><g
           id="g564"><g
             id="g566" /><g
             id="g578"><g
               id="g576"
               clip-path="url(#clipPath570)"><g
                 id="g574"
                 transform="translate(242.4824,318.0708)"><path
                   id="path572"
                   style="fill:#c2c2c2;fill-opacity:1;fill-rule:nonzero;stroke:none"
                   d="M 0,0 C 0.811,-0.188 1.797,-0.346 2.83,-0.445 3.501,-0.51 4.192,-0.834 4.867,-0.843 5.496,-0.853 6.111,-0.55 6.684,-0.5 7.583,-0.42 8.376,-0.26 8.955,0 8.955,0 7.267,-1.014 4.866,-1.014 2.466,-1.014 0,0 0,0" /></g></g></g></g><g
           id="g580"><g
             id="g582" /><g
             id="g594"><g
               id="g592"
               clip-path="url(#clipPath586)"><g
                 id="g590"
                 transform="translate(205.9248,280.6685)"><path
                   id="path588"
                   style="fill:#c2c2c2;fill-opacity:1;fill-rule:nonzero;stroke:none"
                   d="m 0,0 c 8.74,-10.615 23.103,-16.585 41.446,-16.585 18.343,0 31.876,5.71 38.553,17.401 l -3.684,1.666 c 0,0 -8.895,-13.711 -35.033,-13.711 -26.138,0 -37.414,13.466 -37.414,13.466 z" /></g></g></g></g><g
           transform="translate(308.8789,236.4434)"
           id="g596"><path
             id="path598"
             style="fill:#ff9b86;fill-opacity:1;fill-rule:nonzero;stroke:none"
             d="m 0,0 c 0,0 -10.354,-10.701 -20.697,-11.977 l -0.978,2.542 c 0,0 11.564,3.028 19.93,13.569 z" /></g><g
           id="g600"><g
             id="g602" /><g
             id="g614"><g
               id="g612"
               clip-path="url(#clipPath606)"><g
                 id="g610"
                 transform="translate(279.4814,249.457)"><path
                   id="path608"
                   style="fill:#c2c2c2;fill-opacity:1;fill-rule:nonzero;stroke:none"
                   d="m 0,0 1.644,-24.99 2.217,-1.02 1.068,-17.079 0.928,20.294 1.866,0.347 -3.454,-0.641 z" /></g></g></g></g><g
           transform="translate(383.9102,158.3457)"
           id="g616"><path
             id="path618"
             style="fill:#ffb199;fill-opacity:1;fill-rule:nonzero;stroke:none"
             d="m 0,0 c 3.111,-0.405 10.511,-2.545 13.883,-2.812 2.74,-0.215 15.333,-0.684 18.545,1.018 2.008,0.97 4.041,13.643 4,16.128 -0.039,2.484 -2.698,1.58 -4.276,-2.461 C 30.943,8.779 30.567,4.754 29.385,4.527 25.687,3.828 21.819,4.27 21.746,5.418 c -0.072,1.147 4.113,2.905 4.113,2.905 0,0 6.225,3.564 8.106,5.999 3.137,4.058 -3.684,3.743 -6.089,1.442 -3.28,-3.141 -7.484,-2.143 -10.266,-3.072 -2.865,-0.938 -15.952,1.382 -19.259,2.686" /></g><g
           transform="translate(418.1992,165.5)"
           id="g620"><path
             id="path622"
             style="fill:#ffb199;fill-opacity:1;fill-rule:nonzero;stroke:none"
             d="M 0,0 C 1.17,0.736 2.337,1.667 3.213,2.466 3.802,3.003 4.769,3.225 4.672,1.912 4.502,-0.396 3.878,-4.088 2.913,-5.3 1.4,-7.199 -1.3,-9.438 -4.8,-9.3 -8.301,-9.161 -3,-5.5 -3,-5.5 Z" /></g><g
           transform="translate(185.9727,235.8682)"
           id="g624"><path
             id="path626"
             style="fill:#ff9b86;fill-opacity:1;fill-rule:nonzero;stroke:none"
             d="m 0,0 c 0,0 8.462,-10.671 18.806,-11.946 l 0.997,3.269 c 0,0 -10.149,2.348 -18.515,12.889 z" /></g><g
           id="g628"><g
             id="g630" /><g
             id="g642"><g
               id="g640"
               clip-path="url(#clipPath634)"><g
                 id="g638"
                 transform="translate(214.4756,249.457)"><path
                   id="path636"
                   style="fill:#c2c2c2;fill-opacity:1;fill-rule:nonzero;stroke:none"
                   d="m 0,0 -2.31,-26.01 h -3.683 l -4.055,-24.185 c 0,0 2.197,15.106 1.87,24.66 -0.133,3.883 -0.522,3.269 -0.522,3.269 l 4.431,-0.823 z" /></g></g></g></g><g
           transform="translate(110.6309,152.5791)"
           id="g644"><path
             id="path646"
             style="fill:#ffb199;fill-opacity:1;fill-rule:nonzero;stroke:none"
             d="m 0,0 c -3.094,-0.516 -10.414,-2.914 -13.774,-3.3 -2.73,-0.313 -15.299,-1.225 -18.569,0.362 -2.041,0.898 -4.521,13.49 -4.568,15.975 -0.048,2.484 2.64,1.676 4.36,-2.308 1.317,-3.048 1.836,-7.058 3.026,-7.243 3.718,-0.568 7.569,0.01 7.602,1.16 0.031,1.15 -4.214,2.758 -4.214,2.758 0,0 -6.345,3.341 -8.312,5.708 -3.278,3.945 3.549,3.872 6.034,1.657 3.389,-3.023 7.556,-1.877 10.368,-2.706 2.897,-0.837 15.894,1.943 19.153,3.364" /></g><g
           transform="translate(76.4326,158.7051)"
           id="g648"><path
             id="path650"
             style="fill:#ffb199;fill-opacity:1;fill-rule:nonzero;stroke:none"
             d="m 0,0 c -1.114,0.817 -2.212,1.829 -3.028,2.688 -0.549,0.579 -1.498,0.869 -1.495,-0.447 0.004,-2.315 0.363,-6.042 1.239,-7.319 1.373,-2.003 3.906,-4.429 7.407,-4.541 3.502,-0.112 -1.524,3.918 -1.524,3.918 z" /></g><g
           transform="translate(118.1211,156.6719)"
           id="g652"><path
             id="path654"
             style="fill:#00213e;fill-opacity:1;fill-rule:nonzero;stroke:none"
             d="m 0,0 c 16.129,6.696 82.629,-11.815 130.379,-11.815 47.75,0 123.75,18.25 142.5,11.25 L 138.379,-57.554 3.629,-9.39 Z" /></g><g
           id="g656"><g
             id="g658" /><g
             id="g670"><g
               id="g668"
               clip-path="url(#clipPath662)"><g
                 id="g666"
                 transform="translate(193.9443,149.8564)"><path
                   id="path664"
                   style="fill:#c2c2c2;fill-opacity:1;fill-rule:nonzero;stroke:none"
                   d="m 0,0 c 0,0 49.604,-11.238 56.33,-32.738 0,0 -1.767,20.384 45.541,31.371 0,0 -50.935,-7.119 -101.871,1.367" /></g></g></g></g><g
           transform="translate(310.5801,182.126)"
           id="g672"><path
             id="path674"
             style="fill:#ff9b86;fill-opacity:1;fill-rule:nonzero;stroke:none"
             d="m 0,0 c 0,0 4.545,-6.758 10.92,-8.383 6.375,-1.625 57,-12.75 57,-12.75 0,0 9.625,1.533 14.25,-0.483 4.625,-2.017 10.807,-5.366 17.341,-5.067 l -12.298,0.091 -21.182,4.139 c 0,0 -50.398,8.966 -58.38,13.4 C 4.92,-7.883 0,0 0,0" /></g><g
           transform="translate(182.6084,178.2061)"
           id="g676"><path
             id="path678"
             style="fill:#ff9b86;fill-opacity:1;fill-rule:nonzero;stroke:none"
             d="m 0,0 c -3.109,-4.516 -9.775,-7.954 -19.275,-10.229 -9.5,-2.276 -25,-6.095 -25,-6.095 0,0 -9.5,2.668 -16.5,1.077 -7,-1.591 -10.833,-8.258 -10.833,-8.258 0,0 -6.817,-3.922 -12.826,-5.211 0,0 15.826,3.711 21.826,5.378 6,1.667 52.666,11.55 55.749,14.75 C -3.777,-5.388 0,0 0,0" /></g><g
           transform="translate(398.8027,149.8818)"
           id="g680"><path
             id="path682"
             style="fill:#ffb199;fill-opacity:1;fill-rule:nonzero;stroke:none"
             d="m 0,0 c 2.064,-11.414 2.904,-23.17 -4.928,-28.019 -23.025,-14.235 -151.017,-47.438 -163.828,-48.828 -10.4,-1.128 -30.541,-1.663 -38.833,-0.834 -10,1 -16.507,13.055 -17.666,21.334 -1.167,8.333 14.828,4.135 22.948,2.972 5.371,-0.77 12.789,-5.316 29.794,-2.857 22.257,3.218 120.257,65.868 155.967,65.86 C -9.736,9.626 -1.354,7.491 0,0" /></g><g
           transform="translate(176.2871,98.0078)"
           id="g684"><path
             id="path686"
             style="fill:#ff9b86;fill-opacity:1;fill-rule:nonzero;stroke:none"
             d="m 0,0 c 0,0 50.713,-14.806 52.713,-18.473 2,-3.667 -5.662,-7.065 -5.662,-7.065 l 6.709,0.565 26.06,5.79 L 9.088,0 C 9.088,0 4.121,1.473 0,0" /></g><g
           transform="translate(259.6406,107.5859)"
           id="g688"><path
             id="path690"
             style="fill:#ff9b86;fill-opacity:1;fill-rule:nonzero;stroke:none"
             d="M 0,0 C 0,0 17.068,-8.996 31.693,-10.218 45.193,-11.346 99.026,0 99.026,0 L 20.607,-22.561 -10.647,-5.204 Z" /></g><g
           transform="translate(113.4106,149.8818)"
           id="g692"><path
             id="path694"
             style="fill:#ffb199;fill-opacity:1;fill-rule:nonzero;stroke:none"
             d="m 0,0 c -2.063,-11.414 -2.903,-23.17 4.928,-28.019 23.026,-14.235 151.018,-47.438 163.828,-48.828 10.401,-1.128 30.541,-1.663 38.833,-0.834 10,1 16.507,13.055 17.666,21.334 1.167,8.333 -14.828,4.135 -22.948,2.972 -5.371,-0.77 -12.789,-5.316 -29.794,-2.857 C 150.256,-53.014 52.256,9.636 16.546,9.628 9.737,9.626 1.354,7.491 0,0" /></g><g
           transform="translate(252.6221,377.6025)"
           id="g696"><path
             id="path698"
             style="fill:#00213e;fill-opacity:1;fill-rule:nonzero;stroke:none"
             d="m 0,0 c 0,-8.359 -8.997,-17.859 -23.497,-22.734 -3.75,-1.5 -5.25,-11.875 -5.125,-16.625 l -1.204,-0.576 c 0,0 -7.796,23.201 2.579,36.951 C -16.872,10.766 0,0 0,0" /></g><g
           transform="translate(271.667,342.1182)"
           id="g700"><path
             id="path702"
             style="fill:#ffb199;fill-opacity:1;fill-rule:nonzero;stroke:none"
             d="M 0,0 C 0,0 2.084,-2.917 2,-4.083 1.916,-5.25 -0.917,-7.616 -0.917,-7.616 Z" /></g><g
           transform="translate(252.6221,377.6025)"
           id="g704"><path
             id="path706"
             style="fill:#00213e;fill-opacity:1;fill-rule:nonzero;stroke:none"
             d="m 0,0 c 0,0 -3.084,0.002 -4.139,-4.109 -1.154,-4.5 5.134,-10.449 9.017,-11.875 9.875,-3.628 12.5,-12.398 12.5,-16.012 v -6.988 l 1.412,-1.5 c 0,0 4.588,15.875 2.588,28.25 C 19.378,0.141 5.481,3.391 0,0" /></g></g></g><g
       id="g708"><g
         clip-path="url(#clipPath714)"
         id="g710"><g
           id="g716"><g
             id="g718" /><g
             id="g746"><g
               style="opacity:0.30000299"
               id="g744"
               clip-path="url(#clipPath722)"><path
                 id="path724"
                 style="fill:#ffffff;fill-opacity:1;fill-rule:nonzero;stroke:none"
                 d="M 298.041,152.808 H 191 v 5 h 107.041 z" /><path
                 id="path726"
                 style="fill:#ffffff;fill-opacity:1;fill-rule:nonzero;stroke:none"
                 d="M 298.041,165.888 H 191 v 5 h 107.041 z" /><path
                 id="path728"
                 style="fill:#ffffff;fill-opacity:1;fill-rule:nonzero;stroke:none"
                 d="M 298.041,178.968 H 191 v 5 h 107.041 z" /><path
                 id="path730"
                 style="fill:#ffffff;fill-opacity:1;fill-rule:nonzero;stroke:none"
                 d="M 298.041,192.048 H 191 v 5 h 107.041 z" /><path
                 id="path732"
                 style="fill:#ffffff;fill-opacity:1;fill-rule:nonzero;stroke:none"
                 d="M 298.041,205.128 H 191 v 5 h 107.041 z" /><path
                 id="path734"
                 style="fill:#ffffff;fill-opacity:1;fill-rule:nonzero;stroke:none"
                 d="M 298.041,218.208 H 191 v 5 h 107.041 z" /><path
                 id="path736"
                 style="fill:#ffffff;fill-opacity:1;fill-rule:nonzero;stroke:none"
                 d="M 320.667,231.288 H 168.374 v 5 h 152.293 z" /><path
                 id="path738"
                 style="fill:#ffffff;fill-opacity:1;fill-rule:nonzero;stroke:none"
                 d="M 320.667,244.368 H 168.374 v 5 h 152.293 z" /><path
                 id="path740"
                 style="fill:#ffffff;fill-opacity:1;fill-rule:nonzero;stroke:none"
                 d="M 316,257.448 H 173.041 v 5 H 316 Z" /><path
                 id="path742"
                 style="fill:#ffffff;fill-opacity:1;fill-rule:nonzero;stroke:none"
                 d="M 307,270.528 H 182.041 v 5 H 307 Z" /></g></g></g></g></g><g
       id="g748"><g
         clip-path="url(#clipPath754)"
         id="g750"><g
           id="g756"><g
             id="g758" /><g
             id="g770"><g
               id="g768"
               clip-path="url(#clipPath762)"><g
                 id="g766"
                 transform="translate(197.6396,268.0347)"><path
                   id="path764"
                   style="fill:#c2c2c2;fill-opacity:1;fill-rule:nonzero;stroke:none"
                   d="M 0,0 C -0.64,-18 13.361,-28.076 26.194,-28.789 39.027,-29.5 47.576,-20.104 49.32,-10.219 51.065,-0.334 0,0 0,0" /></g></g></g></g><g
           transform="translate(256.75,378.1196)"
           id="g772"><path
             id="path774"
             style="fill:#00213e;fill-opacity:1;fill-rule:nonzero;stroke:none"
             d="m 0,0 c -1.5,3.999 -17.537,12.249 -31.081,4.499 -13.544,-7.75 -16.23,-19.532 -12.419,-27.5 2.75,-5.75 -12.424,-22.458 -0.337,-35.479 12.087,-13.021 -17.123,-34.301 -15.18,-53.133 1.425,-13.805 16.743,-24.638 30.581,-22.336 18.511,3.08 24.308,17.864 17.86,39.235 -4.022,13.331 -26.064,24.833 -21.674,39.901 3.469,11.906 2.52,23.522 -2.456,29.562" /></g></g></g></g></svg>