<svg id="Layer_1" enable-background="new 0 0 512 512" height="512" viewBox="0 0 512 512" width="512" xmlns="http://www.w3.org/2000/svg"><g fill="#8bc4ff"><path d="m116 504h12v-60l80 20 16.12-10.75c17.117-11.389 40.477-3.453 47.01 16.13l.87 2.62 112-28v60h12c33.14 0 60-26.86 60-60 0-33.138-26.859-60-60-60h-18.09c-6.41 9.591-17.426 16-29.95 16h-183.92c-12.48 0-23.49-6.35-29.95-16h-18.09c-53.631 0-79.871 64.955-42.43 102.43 10.86 10.85 25.86 17.57 42.43 17.57z"/><path d="m200.5 176h1.82c-1.51-5.07-2.32-10.44-2.32-16 0-40.899-.764-45.645 2.32-56h4.74c5.48 0 10.49-3.1 12.94-8 2.457-4.934 7.504-8 12.94-8h46.12c5.48 0 10.49 3.1 12.94 8 2.457 4.933 7.504 8 12.94 8h4.74c1.51 5.07 2.32 10.44 2.32 16 0 40.899.764 45.645-2.32 56h1.82l9.32-12.6c32.88-44.47 9.2-105.12-40.82-119.99v-11.41c0-13.253-10.76-24-24-24-13.25 0-24 10.75-24 24v11.41c-50.02 14.87-73.7 75.52-40.82 119.99z"/><path d="m248 336h16c15.37 15.37 36.21 24 57.94 24h14.06l-14.22-64h47.13c-11.638-33.172-36.883-58.497-67.44-71.03-10.04 48.95-49.05 88.13-99.89 97.1l-17.85 3.15-7.73 34.78c15.116 0 45.302 2.697 72-24z"/></g><path d="m152.881 274.573c3.677 2.467 8.643 1.477 11.101-2.184.474-.707.966-1.395 1.467-2.083 2.599-3.573 1.809-8.577-1.764-11.175-3.572-2.598-8.576-1.809-11.175 1.764-.619.852-1.227 1.704-1.813 2.577-2.462 3.668-1.484 8.638 2.184 11.101z" fill="#0e5f8f"/><path d="m504 496h-64.248c48.222-40.639 19.812-120-43.752-120h-5.672c3.939-13.929 1.086-19.501-9.689-68.027-9.901-44.5-43.24-81.529-88.975-94.857 10.89-7.336 19.401-17.934 24.147-30.376 1.661-1.062 1.228-.771 11.442-14.588 35.507-48.032 11.148-111.846-39.253-130.545v-5.607c0-17.645-14.355-32-32-32s-32 14.355-32 32v5.607c-50.417 18.704-74.748 82.53-39.253 130.545 10.253 13.869 9.78 13.526 11.442 14.588 4.744 12.435 13.247 23.027 24.127 30.363-17.008 4.957-32.938 13.43-46.647 25.005-3.376 2.85-3.802 7.897-.951 11.273 2.85 3.375 7.897 3.802 11.273.951 29.508-24.915 70.336-33.183 108.054-20.313-11.586 43.55-46.964 76.252-91.856 84.172l-6.052 1.068 5.672-25.524c.958-4.313-1.761-8.586-6.074-9.545s-8.586 1.762-9.545 6.074c-1.859 8.366-12.211 54.951-14.608 65.735h-9.582c-4.418 0-8 3.582-8 8s3.582 8 8 8h30.059c24.023 0 46.609-9.355 63.598-26.343 3.124-3.124 3.125-8.189 0-11.313-3.123-3.124-8.188-3.124-11.313 0-13.967 13.966-32.535 21.657-52.285 21.657h-4.086l4.407-19.83c19.909-3.513 51.244-7.725 82.048-37.947 16.437-16.127 28.237-35.989 34.49-57.903 22.415 11.463 39.641 29.735 50.029 51.68h-28.752l-.386-1.735c-.958-4.313-5.231-7.033-9.545-6.074-4.313.958-7.033 5.232-6.074 9.545l13.837 62.264h-4.086c-19.75 0-38.318-7.691-52.284-21.657-3.124-3.125-8.189-3.124-11.313 0-3.125 3.124-3.124 8.189 0 11.313 29.294 29.295 58.907 26.344 93.656 26.344 4.418 0 8-3.582 8-8s-3.582-8-8-8h-9.583l-10.667-48h31.314c1.605 5.407.789 2.19 12.266 53.878 3.892 17.499-9.45 34.122-27.372 34.122h-66.667c8.881-18.644-4.873-40-25.293-40-4.418 0-8 3.582-8 8s3.582 8 8 8c3.203 0 6.215 1.249 8.483 3.516 7.496 7.495 2.245 20.484-8.481 20.484h-91.96c-15.461 0-28.04-12.579-28.04-28.04 0-4.192-.227-2.047 10.978-52.508 1.128-5.056 2.61-10.052 4.405-14.848 1.548-4.138-.551-8.748-4.689-10.296-4.137-1.549-8.747.55-10.296 4.689-2.053 5.486-3.747 11.197-5.037 16.979-10.825 48.752-13.606 54.212-9.674 68.024h-5.687c-63.255 0-92.093 79.213-43.805 120h-64.195c-4.418 0-8 3.582-8 8s3.582 8 8 8h496c4.418 0 8-3.582 8-8s-3.582-8-8-8zm-264-464c0-8.822 7.178-16 16-16s16 7.178 16 16c0 3.245.921-.511-18.907.041-14.55.407-13.093 2.719-13.093-.041zm-37.68 64c-12.178 0-10.32 21.74-10.32 53.752-10.285-19.259-10.776-41.75-.944-61.944 25.884-53.161 103.954-53.265 129.889 0 9.832 20.194 9.34 42.686-.944 61.944-.001-32.178 1.79-53.752-10.321-53.752-4.176 0-8.37.745-10.525-3.578-3.831-7.662-11.531-12.422-20.095-12.422-49.739 0-50.693-1.089-57.948 3.362-9.339 5.795-7.229 12.638-14.052 12.638zm53.68 112c-26.467 0-48-21.533-48-48 0-43.94-.224-42.747.672-48.057 7.909-.557 14.894-5.188 18.489-12.377 1.103-2.216 3.367-3.566 5.779-3.566h46.12c2.465 0 4.681 1.371 5.779 3.567 3.522 7.071 10.549 11.801 18.488 12.375.944 5.592.673 4.943.673 48.058 0 26.467-21.533 48-48 48zm-95.085 288h-24.915v-41.754l46.057 11.514-8.032 3.213c-10.907 4.363-16.325 16.148-13.11 27.027zm215.085 0h-193.689c-6.891 0-8.788-9.594-2.344-12.171l31.004-12.401c1.199-.479.847-.359 17.591-11.521 12.678-8.454 30.102-2.62 34.974 12l.874 2.623c1.322 3.966 5.469 6.246 9.53 5.232l102.06-25.516zm20 0h-4v-45.754l9.94-2.485c4.286-1.072 6.892-5.415 5.821-9.702s-5.414-6.892-9.702-5.821l-121.081 30.271c-10.284-21.847-37.505-29.108-57.292-15.915l-13.179 8.786-92.567-23.142c-4.288-1.069-8.63 1.535-9.702 5.821-1.071 4.287 1.535 8.63 5.821 9.702l9.94 2.485v45.754h-4c-13.885 0-26.945-5.409-36.771-15.224-32.469-32.504-9.671-88.776 36.772-88.776h14.106c8.084 9.767 20.294 16 33.934 16h183.92c13.262 0 25.523-5.832 33.952-16h14.088c28.755 0 52 23.267 52 52 0 28.673-23.327 52-52 52z" fill="#0e5f8f"/></svg>