<svg xmlns="http://www.w3.org/2000/svg" width="256" height="256"><path fill-opacity=".016" d="M0 128.004v128.004l128.25-.254 128.25-.254.254-127.75L257.008 0H0v128.004m.485.496c0 70.4.119 99.053.265 63.672.146-35.38.146-92.98 0-128C.604 29.153.485 58.1.485 128.5" fill="#1976D2" fill-rule="evenodd"/><path fill-opacity=".131" d="M119.618 1.049c-6.33 1.589-15.334 6.919-19.71 11.666-6.447 6.995-9.31 14.191-9.74 24.483-.438 10.484 1.156 16.078 6.93 24.321 2.202 3.143 3.868 5.78 3.702 5.861-.165.081-3 1.425-6.3 2.986-18.854 8.919-34.086 25.994-41.123 46.098-2.13 6.084-3.781 8.916-6.994 12-2.903 2.786-4.428 5.227-4.924 7.882-1.533 8.21 3.647 16.528 11.632 18.678 14.114 3.801 25.694-13.807 16.369-24.889-3.417-4.062-3.116-6.621 1.973-16.783 6.959-13.893 18.784-24.919 32.538-30.341 8.121-3.2 12.139-2.632 14.566 2.061 1.167 2.256 1.463 7.769 1.463 27.223 0 23.521-.075 24.463-2.102 26.298-5.968 5.4-6.612 15.946-1.314 21.518 8.135 8.558 18.574 7.713 25.142-2.033 3.944-5.852 2.502-14.697-3.282-20.131L136 135.651v-23.26c0-13.674.428-24.387 1.039-25.994 2.554-6.716 8.348-7.075 20.095-1.245 11.255 5.586 22.761 16.997 28.121 27.888 4.996 10.152 5.59 13.43 2.945 16.253-8.263 8.822-3.26 23.197 9.087 26.107 4.58 1.079 10.16-1.046 14.049-5.35 6.52-7.217 5.915-16.111-1.529-22.483-3.314-2.837-4.592-4.951-6.355-10.511-6.114-19.283-22.208-37.573-41.028-46.625l-7.484-3.599 3.179-3.62c1.748-1.992 4.341-6.116 5.762-9.166 2.2-4.725 2.586-6.953 2.601-15.046.016-8.618-.277-10.122-3.156-16.201C157.068 9.591 145.211 1.436 130.963.542c-4.105-.257-9.21-.029-11.345.507m3.882 14.865c-17.432 4.368-24.278 24.639-12.837 38.006 12.519 14.625 36.172 8.582 40.403-10.322 2.248-10.047-3.468-21.722-12.566-25.665-5.022-2.177-11.105-2.996-15-2.019M52.571 136.571c-2.941 2.942-.97 7.429 3.264 7.429 3.298 0 5.165-1.626 5.165-4.5 0-4.278-5.253-6.104-8.429-2.929M197.2 136.2c-.66.66-1.2 2.145-1.2 3.3 0 1.155.54 2.64 1.2 3.3.66.66 2.145 1.2 3.3 1.2 1.155 0 2.64-.54 3.3-1.2.66-.66 1.2-2.145 1.2-3.3 0-1.155-.54-2.64-1.2-3.3-.66-.66-2.145-1.2-3.3-1.2-1.155 0-2.64.54-3.3 1.2M125 148c-2.475 2.475-2.487 3.178-.105 6.119 1.63 2.012 2.296 2.201 4.75 1.342 5.033-1.759 3.945-9.461-1.336-9.461-.72 0-2.209.9-3.309 2m-66.366 12.586c-22.438 5.431-38.137 26.23-37.225 49.319 1.061 26.892 24.12 47.574 51.091 45.823 17.009-1.104 24.342-5.821 55.781-35.881 42.665-40.794 45.935-43.18 59.165-43.165 12.277.015 22.339 6.485 27.709 17.818 9.127 19.261-4.416 42.547-25.741 44.259-7.125.572-11.62-.677-17.335-4.817-3.553-2.573-4.079-3.451-4.079-6.8 0-4.601-3.103-9.613-8.024-12.957-2.86-1.944-4.414-2.288-8.767-1.938-6.547.525-9.977 2.897-13.052 9.027-3.313 6.606-2.348 11.78 3.242 17.381 3.297 3.303 5.147 4.304 9.024 4.886 3.218.482 6.762 2.052 10.421 4.615 26.146 18.315 64.307 3.236 72.625-28.698 5.718-21.955-5.371-45.678-25.9-55.404-16.815-7.966-35.341-5.786-51.704 6.084-2.549 1.849-16.049 14.226-30 27.505-30.086 28.637-36.515 34.288-43.276 38.036-4.471 2.479-6.121 2.82-13.589 2.809-9.712-.014-14.086-1.761-21.486-8.582-6.112-5.634-8.944-12.547-8.983-21.927-.027-6.517.408-8.412 3.254-14.194 8.19-16.636 28.461-22.478 42.465-12.239 4.199 3.07 4.75 3.907 4.754 7.214.014 14.009 18.928 19.394 27.996 7.969 3.49-4.396 3.576-13.72.171-18.494-2.839-3.981-7.603-6.58-11.771-6.424-1.916.072-4.412-.859-6.504-2.426-5.668-4.245-12.784-7.465-19.765-8.945-8.147-1.727-12.898-1.693-20.497.146m42.971 22.713c-2.189 1.601-1.841 6.539.567 8.046 2.852 1.785 6.828-.712 6.828-4.288 0-4.315-3.913-6.303-7.395-3.758m47.355 41.532c-1.746 1.414-2.11 2.437-1.596 4.485.875 3.483 4.943 4.621 7.676 2.148 2.583-2.338 2.482-4.985-.263-6.907-2.801-1.963-3.07-1.95-5.817.274" fill="#1976D2" fill-rule="evenodd"/><path fill-opacity=".491" d="M114.657 2.93c-9.387 3.775-16.871 11.017-21.422 20.732C90.857 28.739 90.5 30.739 90.5 39c0 8.144.371 10.292 2.601 15.046 1.431 3.05 4.033 7.176 5.784 9.17 1.867 2.126 2.759 3.886 2.158 4.258-.564.348-4.517 2.384-8.784 4.524-18.577 9.316-34.624 28.539-39.409 47.212-.947 3.693-2.208 5.697-4.95 7.87-12.089 9.574-5.974 27.93 9.3 27.916 12.523-.011 19.328-14.446 11.745-24.914-2.845-3.927-2.975-4.47-1.879-7.9 5.14-16.085 19.748-32.265 35.227-39.017 8.576-3.741 11.222-3.803 14.678-.348L120 85.846v51.051l-2.505 2.703c-7.521 8.115-4.903 20.207 5.379 24.843 4.581 2.066 8.855 1.631 13.836-1.407 3.567-2.176 7.29-8.574 7.29-12.528 0-3.681-2.32-8.618-5.371-11.432L136 136.651V85.846l3.046-3.046c2.637-2.637 3.545-2.966 6.75-2.448 5.698.92 17.617 7.237 23.699 12.559 7.547 6.603 12.811 13.478 16.974 22.166 4.169 8.699 4.317 10.676 1.149 15.345-3.742 5.513-4.152 9.935-1.43 15.417 2.838 5.719 7.721 9.161 12.992 9.161 15.461 0 21.572-16.564 10.149-27.509-3.115-2.985-4.79-5.683-5.945-9.574-5.917-19.942-25.359-41.395-43.95-48.495-2.439-.932-4.434-1.905-4.434-2.164 0-.258 1.15-1.836 2.555-3.506 3.912-4.648 7.132-11.672 8.47-18.473 3.098-15.746-5.176-32.251-20.212-40.322-5.79-3.108-7.141-3.412-16.313-3.681-8.069-.237-10.935.082-14.843 1.654m4.843 13.937c-9.809 4.472-14.506 11.667-14.491 22.199.017 11.612 7.425 20.75 18.514 22.836 15.947 3 29.827-9.537 28.183-25.457-1.622-15.72-18.355-25.892-32.206-19.578m-66.277 118.69C52 136.413 51 138.143 51 139.402c0 2.576 2.838 5.598 5.257 5.598 4.132 0 6.263-6.337 3.172-9.429-1.978-1.977-3.4-1.98-6.206-.014M197 136c-1.1 1.1-2 2.675-2 3.5 0 .825.9 2.4 2 3.5s2.675 2 3.5 2c.825 0 2.4-.9 3.5-2s2-2.675 2-3.5c0-.825-.9-2.4-2-3.5s-2.675-2-3.5-2c-.825 0-2.4.9-3.5 2m-72.345 11.829c-2.078 2.296-2.107 4.576-.084 6.6 2.381 2.38 6.138 1.945 8.021-.929 1.517-2.316 1.517-2.684 0-5-1.948-2.972-5.577-3.279-7.937-.671M184 159.691c-12.908 1.609-23.46 6.397-33.281 15.101-3.42 3.031-15.219 14.106-26.219 24.61-27.154 25.929-37.034 34.445-43.352 37.365-4.677 2.161-6.38 2.417-13.5 2.029-9.695-.529-13.169-2.083-20.412-9.132-19.108-18.597-6.875-51.238 20.011-53.396 6.847-.549 11.312.793 18.003 5.414 3.169 2.189 3.75 3.152 3.75 6.22 0 8.548 8.178 15.719 16.864 14.786 4.712-.505 8.315-2.707 11.574-7.073 2.872-3.846 2.856-12.397-.03-16.292-3.108-4.194-8.265-7.323-12.071-7.323-2.184 0-5.239-1.242-8.692-3.535-2.929-1.945-7.759-4.469-10.735-5.61-6.647-2.549-19.636-3.508-26.774-1.978-13.821 2.964-26.41 13.205-32.873 26.742-3.732 7.816-3.763 7.984-3.763 20.433 0 12.461.027 12.606 3.704 20.045 8.715 17.636 23.415 26.995 42.796 27.248 18.36.239 26.423-4.417 54.523-31.484 36.023-34.7 47.079-44.071 54.645-46.318 11.415-3.39 20.888-1.163 29.682 6.979 7.682 7.112 10.462 13.287 10.415 23.137-.058 12.065-5.969 22.091-16.446 27.895-4.797 2.657-6.214 2.946-14.428 2.946-8.728 0-9.32-.143-14.132-3.425-4.644-3.166-5.066-3.796-5.606-8.361-.757-6.385-4.297-11.031-10.093-13.244-6.11-2.334-10.716-1.329-15.845 3.455-3.721 3.471-4.099 4.294-4.446 9.684-.3 4.658.049 6.573 1.667 9.15 2.602 4.145 7.64 7.232 11.812 7.237 2.112.003 4.949 1.226 8.114 3.5 10.786 7.749 20.29 10.143 33.815 8.519 22.741-2.732 39.171-19.623 41.841-43.015 1.989-17.421-8.757-37.825-24.406-46.342-6.873-3.741-19.967-6.734-26.112-5.967m-83.302 24.09c-2.193 2.423-2.151 4.499.131 6.564 2.477 2.242 5.475 2.082 7.733-.413 1.708-1.888 1.741-2.303.373-4.75-1.857-3.324-5.878-4.007-8.237-1.401M148.2 224.2c-.66.66-1.2 2.37-1.2 3.8 0 1.43.54 3.14 1.2 3.8.66.66 2.37 1.2 3.8 1.2 3.189 0 5-1.677 5-4.629 0-4.379-5.829-7.142-8.8-4.171" fill="#1976D2" fill-rule="evenodd"/><path fill-opacity=".279" d="M117.929 2.303C99.267 7.598 87.179 27.032 91.011 45.58c1.373 6.646 4.617 13.636 8.434 18.172 1.405 1.67 2.555 3.254 2.555 3.519 0 .266-2.362 1.49-5.25 2.72C85.669 74.715 72.196 85.559 64.439 96c-3.735 5.027-8.896 15.533-11.051 22.5-1.411 4.561-2.916 6.971-6.273 10.048-4.007 3.673-4.455 4.555-4.828 9.5-.303 4.035.08 6.362 1.475 8.952 2.114 3.923 8.989 8 13.49 8 4.562 0 10.051-3.416 12.506-7.783 3.574-6.36 2.883-12.541-2.005-17.911-2.548-2.8-1.937-6.447 2.583-15.418 7.005-13.904 17.017-23.72 31.136-30.527 7.48-3.606 10.01-4.01 13.933-2.222 5.014 2.284 5.595 5.542 5.595 31.38v23.717l-2.955 3.365c-4.528 5.158-5.737 10.339-3.641 15.616 2.354 5.93 6.598 9.046 12.969 9.522 3.711.278 6.072-.138 8.55-1.505 8.41-4.641 9.586-17.938 2.179-24.641-2.032-1.84-2.102-2.757-2.102-27.559 0-24.391.1-25.764 2.028-27.833 2.773-2.977 6.374-3.692 11.313-2.245 16.741 4.904 34.874 23.332 40.607 41.27 1.101 3.444.985 3.995-1.529 7.292-5.4 7.079-4.009 17.784 2.954 22.752 4.236 3.021 12.32 3.09 16.304.138 9.496-7.036 9.681-17.384.458-25.585-2.274-2.022-4.135-4.422-4.135-5.333 0-3.187-5.996-16.594-10.181-22.765-8.531-12.579-19.032-21.654-32.176-27.805-3.653-1.71-6.643-3.569-6.643-4.132 0-.563 1.394-2.612 3.099-4.553 5.752-6.551 7.331-11.533 7.368-23.235.029-9.346-.262-11.13-2.655-16.236-3.453-7.367-10.768-14.652-18.282-18.206-7.057-3.339-19.164-4.365-26.601-2.255m1.493 14.115c-4.533 1.974-10.266 7.356-12.5 11.734-4.282 8.394-3.417 17.417 2.402 25.056 4.993 6.555 10.663 9.291 19.254 9.292 6.134 0 7.732-.404 11.974-3.026 7.021-4.341 10.789-10.824 11.274-19.395.592-10.49-3.658-17.933-12.923-22.628-5.53-2.803-14.343-3.27-19.481-1.033M52.571 135.571c-.864.865-1.571 2.633-1.571 3.929 0 5.621 7.138 7.325 9.909 2.365 1.318-2.36 1.293-2.907-.242-5.25-1.957-2.987-5.673-3.466-8.096-1.044m144.084.258c-3.229 3.568-.774 9.171 4.019 9.171 2.512 0 5.326-2.998 5.326-5.674 0-4.581-6.248-6.919-9.345-3.497m-71.432 10.728c-4.8 3.361-.829 11.722 4.729 9.958 4.755-1.509 5.097-8.26.525-10.344-3.143-1.432-2.604-1.471-5.254.386M57 161.747c-28.944 7.865-43.364 40.63-29.779 67.664 3.496 6.957 11.492 15.751 17.551 19.301 11.009 6.452 26.941 8.165 39.595 4.256 10.272-3.172 18.435-9.574 46.774-36.679 40.019-38.277 43.98-41.002 58.238-40.07 11.719.765 21.168 7.086 26.341 17.62 2.337 4.758 2.78 6.937 2.78 13.661 0 6.717-.444 8.904-2.77 13.642-8.641 17.595-29.448 23.887-43.98 13.299-4.327-3.152-4.75-3.824-4.75-7.546 0-14.069-18.58-19.399-27.219-7.808-4.993 6.699-2.345 18.054 5.095 21.85 2.224 1.135 5.28 2.063 6.791 2.063 1.562 0 5.135 1.663 8.29 3.858 8.263 5.751 15.614 8.142 25.031 8.142 10.663 0 17.279-1.519 24.873-5.711C225.406 240.708 234 225.858 234 207.576c0-13.373-3.836-23.21-12.778-32.77-9.327-9.971-19.528-14.226-34.222-14.275-18.385-.06-25.872 4.266-53.71 31.04-20.521 19.736-37.018 34.796-45.207 41.269-16.057 12.693-37.947 7.37-47.229-11.484-3.613-7.34-4.294-15.47-1.914-22.856 6.596-20.47 30.606-29.237 46.62-17.022 2.546 1.942 3.297 3.387 3.824 7.36 1.124 8.472 6.587 13.165 15.316 13.158 11.04-.008 17.902-10.326 13.495-20.289-2.423-5.476-6.998-8.818-12.998-9.494-3.061-.345-6.201-1.656-9.302-3.884-10.058-7.226-26.368-9.986-38.895-6.582m44.219 20.812C97.033 185.491 99.552 193 104.723 193c1.89 0 5.277-3.728 5.277-5.809 0-4.418-5.183-7.152-8.781-4.632m47.236 41.896c-3.108 3.107-3.089 4.601.099 7.596 2.391 2.246 2.726 2.303 5.25.893 3.684-2.058 4.24-7.1 1.03-9.348-2.999-2.1-3.486-2.035-6.379.859" fill="#1976D2" fill-rule="evenodd"/></svg>